G04 #@! TF.GenerationSoftware,KiCad,Pcbnew,5.0.2-bee76a0~70~ubuntu18.04.1*
G04 #@! TF.CreationDate,2019-03-23T13:43:10-04:00*
G04 #@! TF.ProjectId,linemonitor,6c696e65-6d6f-46e6-9974-6f722e6b6963,rev?*
G04 #@! TF.SameCoordinates,Original*
G04 #@! TF.FileFunction,Soldermask,Bot*
G04 #@! TF.FilePolarity,Negative*
%FSLAX46Y46*%
G04 Gerber Fmt 4.6, Leading zero omitted, Abs format (unit mm)*
G04 Created by KiCad (PCBNEW 5.0.2-bee76a0~70~ubuntu18.04.1) date Sat 23 Mar 2019 01:43:10 PM EDT*
%MOMM*%
%LPD*%
G01*
G04 APERTURE LIST*
%ADD10C,0.100000*%
G04 APERTURE END LIST*
D10*
G36*
X127166821Y-109397313D02*
X127166824Y-109397314D01*
X127166825Y-109397314D01*
X127327239Y-109445975D01*
X127327241Y-109445976D01*
X127327244Y-109445977D01*
X127475078Y-109524995D01*
X127604659Y-109631341D01*
X127711005Y-109760922D01*
X127790023Y-109908756D01*
X127790024Y-109908759D01*
X127790025Y-109908761D01*
X127838686Y-110069175D01*
X127838687Y-110069179D01*
X127855117Y-110236000D01*
X127838687Y-110402821D01*
X127838686Y-110402824D01*
X127838686Y-110402825D01*
X127813993Y-110484228D01*
X127790023Y-110563244D01*
X127711005Y-110711078D01*
X127604659Y-110840659D01*
X127475078Y-110947005D01*
X127327244Y-111026023D01*
X127327241Y-111026024D01*
X127327239Y-111026025D01*
X127166825Y-111074686D01*
X127166824Y-111074686D01*
X127166821Y-111074687D01*
X127041804Y-111087000D01*
X126958196Y-111087000D01*
X126833179Y-111074687D01*
X126833176Y-111074686D01*
X126833175Y-111074686D01*
X126672761Y-111026025D01*
X126672759Y-111026024D01*
X126672756Y-111026023D01*
X126524922Y-110947005D01*
X126395341Y-110840659D01*
X126288995Y-110711078D01*
X126209977Y-110563244D01*
X126186008Y-110484228D01*
X126161314Y-110402825D01*
X126161314Y-110402824D01*
X126161313Y-110402821D01*
X126144883Y-110236000D01*
X126161313Y-110069179D01*
X126161314Y-110069175D01*
X126209975Y-109908761D01*
X126209976Y-109908759D01*
X126209977Y-109908756D01*
X126288995Y-109760922D01*
X126395341Y-109631341D01*
X126524922Y-109524995D01*
X126672756Y-109445977D01*
X126672759Y-109445976D01*
X126672761Y-109445975D01*
X126833175Y-109397314D01*
X126833176Y-109397314D01*
X126833179Y-109397313D01*
X126958196Y-109385000D01*
X127041804Y-109385000D01*
X127166821Y-109397313D01*
X127166821Y-109397313D01*
G37*
G36*
X119628228Y-109417703D02*
X119783100Y-109481853D01*
X119922481Y-109574985D01*
X120041015Y-109693519D01*
X120134147Y-109832900D01*
X120198297Y-109987772D01*
X120231000Y-110152184D01*
X120231000Y-110319816D01*
X120198297Y-110484228D01*
X120134147Y-110639100D01*
X120041015Y-110778481D01*
X119922481Y-110897015D01*
X119783100Y-110990147D01*
X119628228Y-111054297D01*
X119463816Y-111087000D01*
X119296184Y-111087000D01*
X119131772Y-111054297D01*
X118976900Y-110990147D01*
X118837519Y-110897015D01*
X118718985Y-110778481D01*
X118625853Y-110639100D01*
X118561703Y-110484228D01*
X118529000Y-110319816D01*
X118529000Y-110152184D01*
X118561703Y-109987772D01*
X118625853Y-109832900D01*
X118718985Y-109693519D01*
X118837519Y-109574985D01*
X118976900Y-109481853D01*
X119131772Y-109417703D01*
X119296184Y-109385000D01*
X119463816Y-109385000D01*
X119628228Y-109417703D01*
X119628228Y-109417703D01*
G37*
G36*
X117088228Y-109417703D02*
X117243100Y-109481853D01*
X117382481Y-109574985D01*
X117501015Y-109693519D01*
X117594147Y-109832900D01*
X117658297Y-109987772D01*
X117691000Y-110152184D01*
X117691000Y-110319816D01*
X117658297Y-110484228D01*
X117594147Y-110639100D01*
X117501015Y-110778481D01*
X117382481Y-110897015D01*
X117243100Y-110990147D01*
X117088228Y-111054297D01*
X116923816Y-111087000D01*
X116756184Y-111087000D01*
X116591772Y-111054297D01*
X116436900Y-110990147D01*
X116297519Y-110897015D01*
X116178985Y-110778481D01*
X116085853Y-110639100D01*
X116021703Y-110484228D01*
X115989000Y-110319816D01*
X115989000Y-110152184D01*
X116021703Y-109987772D01*
X116085853Y-109832900D01*
X116178985Y-109693519D01*
X116297519Y-109574985D01*
X116436900Y-109481853D01*
X116591772Y-109417703D01*
X116756184Y-109385000D01*
X116923816Y-109385000D01*
X117088228Y-109417703D01*
X117088228Y-109417703D01*
G37*
G36*
X114588228Y-109417703D02*
X114743100Y-109481853D01*
X114882481Y-109574985D01*
X115001015Y-109693519D01*
X115094147Y-109832900D01*
X115158297Y-109987772D01*
X115191000Y-110152184D01*
X115191000Y-110319816D01*
X115158297Y-110484228D01*
X115094147Y-110639100D01*
X115001015Y-110778481D01*
X114882481Y-110897015D01*
X114743100Y-110990147D01*
X114588228Y-111054297D01*
X114423816Y-111087000D01*
X114256184Y-111087000D01*
X114091772Y-111054297D01*
X113936900Y-110990147D01*
X113797519Y-110897015D01*
X113678985Y-110778481D01*
X113585853Y-110639100D01*
X113521703Y-110484228D01*
X113489000Y-110319816D01*
X113489000Y-110152184D01*
X113521703Y-109987772D01*
X113585853Y-109832900D01*
X113678985Y-109693519D01*
X113797519Y-109574985D01*
X113936900Y-109481853D01*
X114091772Y-109417703D01*
X114256184Y-109385000D01*
X114423816Y-109385000D01*
X114588228Y-109417703D01*
X114588228Y-109417703D01*
G37*
G36*
X94146821Y-109397313D02*
X94146824Y-109397314D01*
X94146825Y-109397314D01*
X94307239Y-109445975D01*
X94307241Y-109445976D01*
X94307244Y-109445977D01*
X94455078Y-109524995D01*
X94584659Y-109631341D01*
X94691005Y-109760922D01*
X94770023Y-109908756D01*
X94770024Y-109908759D01*
X94770025Y-109908761D01*
X94818686Y-110069175D01*
X94818687Y-110069179D01*
X94835117Y-110236000D01*
X94818687Y-110402821D01*
X94818686Y-110402824D01*
X94818686Y-110402825D01*
X94793993Y-110484228D01*
X94770023Y-110563244D01*
X94691005Y-110711078D01*
X94584659Y-110840659D01*
X94455078Y-110947005D01*
X94307244Y-111026023D01*
X94307241Y-111026024D01*
X94307239Y-111026025D01*
X94146825Y-111074686D01*
X94146824Y-111074686D01*
X94146821Y-111074687D01*
X94021804Y-111087000D01*
X93938196Y-111087000D01*
X93813179Y-111074687D01*
X93813176Y-111074686D01*
X93813175Y-111074686D01*
X93652761Y-111026025D01*
X93652759Y-111026024D01*
X93652756Y-111026023D01*
X93504922Y-110947005D01*
X93375341Y-110840659D01*
X93268995Y-110711078D01*
X93189977Y-110563244D01*
X93166008Y-110484228D01*
X93141314Y-110402825D01*
X93141314Y-110402824D01*
X93141313Y-110402821D01*
X93124883Y-110236000D01*
X93141313Y-110069179D01*
X93141314Y-110069175D01*
X93189975Y-109908761D01*
X93189976Y-109908759D01*
X93189977Y-109908756D01*
X93268995Y-109760922D01*
X93375341Y-109631341D01*
X93504922Y-109524995D01*
X93652756Y-109445977D01*
X93652759Y-109445976D01*
X93652761Y-109445975D01*
X93813175Y-109397314D01*
X93813176Y-109397314D01*
X93813179Y-109397313D01*
X93938196Y-109385000D01*
X94021804Y-109385000D01*
X94146821Y-109397313D01*
X94146821Y-109397313D01*
G37*
G36*
X104306821Y-109397313D02*
X104306824Y-109397314D01*
X104306825Y-109397314D01*
X104467239Y-109445975D01*
X104467241Y-109445976D01*
X104467244Y-109445977D01*
X104615078Y-109524995D01*
X104744659Y-109631341D01*
X104851005Y-109760922D01*
X104930023Y-109908756D01*
X104930024Y-109908759D01*
X104930025Y-109908761D01*
X104978686Y-110069175D01*
X104978687Y-110069179D01*
X104995117Y-110236000D01*
X104978687Y-110402821D01*
X104978686Y-110402824D01*
X104978686Y-110402825D01*
X104953993Y-110484228D01*
X104930023Y-110563244D01*
X104851005Y-110711078D01*
X104744659Y-110840659D01*
X104615078Y-110947005D01*
X104467244Y-111026023D01*
X104467241Y-111026024D01*
X104467239Y-111026025D01*
X104306825Y-111074686D01*
X104306824Y-111074686D01*
X104306821Y-111074687D01*
X104181804Y-111087000D01*
X104098196Y-111087000D01*
X103973179Y-111074687D01*
X103973176Y-111074686D01*
X103973175Y-111074686D01*
X103812761Y-111026025D01*
X103812759Y-111026024D01*
X103812756Y-111026023D01*
X103664922Y-110947005D01*
X103535341Y-110840659D01*
X103428995Y-110711078D01*
X103349977Y-110563244D01*
X103326008Y-110484228D01*
X103301314Y-110402825D01*
X103301314Y-110402824D01*
X103301313Y-110402821D01*
X103284883Y-110236000D01*
X103301313Y-110069179D01*
X103301314Y-110069175D01*
X103349975Y-109908761D01*
X103349976Y-109908759D01*
X103349977Y-109908756D01*
X103428995Y-109760922D01*
X103535341Y-109631341D01*
X103664922Y-109524995D01*
X103812756Y-109445977D01*
X103812759Y-109445976D01*
X103812761Y-109445975D01*
X103973175Y-109397314D01*
X103973176Y-109397314D01*
X103973179Y-109397313D01*
X104098196Y-109385000D01*
X104181804Y-109385000D01*
X104306821Y-109397313D01*
X104306821Y-109397313D01*
G37*
G36*
X112008228Y-109417703D02*
X112163100Y-109481853D01*
X112302481Y-109574985D01*
X112421015Y-109693519D01*
X112514147Y-109832900D01*
X112578297Y-109987772D01*
X112611000Y-110152184D01*
X112611000Y-110319816D01*
X112578297Y-110484228D01*
X112514147Y-110639100D01*
X112421015Y-110778481D01*
X112302481Y-110897015D01*
X112163100Y-110990147D01*
X112008228Y-111054297D01*
X111843816Y-111087000D01*
X111676184Y-111087000D01*
X111511772Y-111054297D01*
X111356900Y-110990147D01*
X111217519Y-110897015D01*
X111098985Y-110778481D01*
X111005853Y-110639100D01*
X110941703Y-110484228D01*
X110909000Y-110319816D01*
X110909000Y-110152184D01*
X110941703Y-109987772D01*
X111005853Y-109832900D01*
X111098985Y-109693519D01*
X111217519Y-109574985D01*
X111356900Y-109481853D01*
X111511772Y-109417703D01*
X111676184Y-109385000D01*
X111843816Y-109385000D01*
X112008228Y-109417703D01*
X112008228Y-109417703D01*
G37*
G36*
X101848228Y-109417703D02*
X102003100Y-109481853D01*
X102142481Y-109574985D01*
X102261015Y-109693519D01*
X102354147Y-109832900D01*
X102418297Y-109987772D01*
X102451000Y-110152184D01*
X102451000Y-110319816D01*
X102418297Y-110484228D01*
X102354147Y-110639100D01*
X102261015Y-110778481D01*
X102142481Y-110897015D01*
X102003100Y-110990147D01*
X101848228Y-111054297D01*
X101683816Y-111087000D01*
X101516184Y-111087000D01*
X101351772Y-111054297D01*
X101196900Y-110990147D01*
X101057519Y-110897015D01*
X100938985Y-110778481D01*
X100845853Y-110639100D01*
X100781703Y-110484228D01*
X100749000Y-110319816D01*
X100749000Y-110152184D01*
X100781703Y-109987772D01*
X100845853Y-109832900D01*
X100938985Y-109693519D01*
X101057519Y-109574985D01*
X101196900Y-109481853D01*
X101351772Y-109417703D01*
X101516184Y-109385000D01*
X101683816Y-109385000D01*
X101848228Y-109417703D01*
X101848228Y-109417703D01*
G37*
G36*
X87559635Y-107473019D02*
X87740903Y-107509075D01*
X87968571Y-107603378D01*
X88063488Y-107666800D01*
X88173469Y-107740287D01*
X88347713Y-107914531D01*
X88347715Y-107914534D01*
X88484622Y-108119429D01*
X88578925Y-108347097D01*
X88627000Y-108588787D01*
X88627000Y-108835213D01*
X88578925Y-109076903D01*
X88484622Y-109304571D01*
X88390138Y-109445975D01*
X88347713Y-109509469D01*
X88173469Y-109683713D01*
X88173466Y-109683715D01*
X87968571Y-109820622D01*
X87740903Y-109914925D01*
X87590213Y-109944899D01*
X87499214Y-109963000D01*
X87252786Y-109963000D01*
X87161787Y-109944899D01*
X87011097Y-109914925D01*
X86783429Y-109820622D01*
X86578534Y-109683715D01*
X86578531Y-109683713D01*
X86404287Y-109509469D01*
X86361862Y-109445975D01*
X86267378Y-109304571D01*
X86173075Y-109076903D01*
X86125000Y-108835213D01*
X86125000Y-108588787D01*
X86173075Y-108347097D01*
X86267378Y-108119429D01*
X86404285Y-107914534D01*
X86404287Y-107914531D01*
X86578531Y-107740287D01*
X86688512Y-107666800D01*
X86783429Y-107603378D01*
X87011097Y-107509075D01*
X87192365Y-107473019D01*
X87252786Y-107461000D01*
X87499214Y-107461000D01*
X87559635Y-107473019D01*
X87559635Y-107473019D01*
G37*
G36*
X72381239Y-107479101D02*
X72617053Y-107550634D01*
X72834381Y-107666799D01*
X73024871Y-107823129D01*
X73181201Y-108013619D01*
X73297366Y-108230947D01*
X73368899Y-108466761D01*
X73393053Y-108712000D01*
X73368899Y-108957239D01*
X73297366Y-109193053D01*
X73181201Y-109410381D01*
X73024871Y-109600871D01*
X72834381Y-109757201D01*
X72617053Y-109873366D01*
X72381239Y-109944899D01*
X72197457Y-109963000D01*
X72074543Y-109963000D01*
X71890761Y-109944899D01*
X71654947Y-109873366D01*
X71437619Y-109757201D01*
X71247129Y-109600871D01*
X71090799Y-109410381D01*
X70974634Y-109193053D01*
X70903101Y-108957239D01*
X70878947Y-108712000D01*
X70903101Y-108466761D01*
X70974634Y-108230947D01*
X71090799Y-108013619D01*
X71247129Y-107823129D01*
X71437619Y-107666799D01*
X71654947Y-107550634D01*
X71890761Y-107479101D01*
X72074543Y-107461000D01*
X72197457Y-107461000D01*
X72381239Y-107479101D01*
X72381239Y-107479101D01*
G37*
G36*
X117088228Y-105353703D02*
X117243100Y-105417853D01*
X117382481Y-105510985D01*
X117501015Y-105629519D01*
X117594147Y-105768900D01*
X117658297Y-105923772D01*
X117691000Y-106088184D01*
X117691000Y-106255816D01*
X117658297Y-106420228D01*
X117594147Y-106575100D01*
X117501015Y-106714481D01*
X117382481Y-106833015D01*
X117243100Y-106926147D01*
X117088228Y-106990297D01*
X116923816Y-107023000D01*
X116756184Y-107023000D01*
X116591772Y-106990297D01*
X116436900Y-106926147D01*
X116297519Y-106833015D01*
X116178985Y-106714481D01*
X116085853Y-106575100D01*
X116021703Y-106420228D01*
X115989000Y-106255816D01*
X115989000Y-106088184D01*
X116021703Y-105923772D01*
X116085853Y-105768900D01*
X116178985Y-105629519D01*
X116297519Y-105510985D01*
X116436900Y-105417853D01*
X116591772Y-105353703D01*
X116756184Y-105321000D01*
X116923816Y-105321000D01*
X117088228Y-105353703D01*
X117088228Y-105353703D01*
G37*
G36*
X106420228Y-105353703D02*
X106575100Y-105417853D01*
X106714481Y-105510985D01*
X106833015Y-105629519D01*
X106926147Y-105768900D01*
X106990297Y-105923772D01*
X107023000Y-106088184D01*
X107023000Y-106255816D01*
X106990297Y-106420228D01*
X106926147Y-106575100D01*
X106833015Y-106714481D01*
X106714481Y-106833015D01*
X106575100Y-106926147D01*
X106420228Y-106990297D01*
X106255816Y-107023000D01*
X106088184Y-107023000D01*
X105923772Y-106990297D01*
X105768900Y-106926147D01*
X105629519Y-106833015D01*
X105510985Y-106714481D01*
X105417853Y-106575100D01*
X105353703Y-106420228D01*
X105321000Y-106255816D01*
X105321000Y-106088184D01*
X105353703Y-105923772D01*
X105417853Y-105768900D01*
X105510985Y-105629519D01*
X105629519Y-105510985D01*
X105768900Y-105417853D01*
X105923772Y-105353703D01*
X106088184Y-105321000D01*
X106255816Y-105321000D01*
X106420228Y-105353703D01*
X106420228Y-105353703D01*
G37*
G36*
X109894821Y-105333313D02*
X109894824Y-105333314D01*
X109894825Y-105333314D01*
X110055239Y-105381975D01*
X110055241Y-105381976D01*
X110055244Y-105381977D01*
X110203078Y-105460995D01*
X110332659Y-105567341D01*
X110439005Y-105696922D01*
X110518023Y-105844756D01*
X110518024Y-105844759D01*
X110518025Y-105844761D01*
X110562460Y-105991244D01*
X110566687Y-106005179D01*
X110583117Y-106172000D01*
X110566687Y-106338821D01*
X110566686Y-106338824D01*
X110566686Y-106338825D01*
X110531741Y-106454025D01*
X110518023Y-106499244D01*
X110439005Y-106647078D01*
X110332659Y-106776659D01*
X110203078Y-106883005D01*
X110055244Y-106962023D01*
X110055241Y-106962024D01*
X110055239Y-106962025D01*
X109894825Y-107010686D01*
X109894824Y-107010686D01*
X109894821Y-107010687D01*
X109769804Y-107023000D01*
X109686196Y-107023000D01*
X109561179Y-107010687D01*
X109561176Y-107010686D01*
X109561175Y-107010686D01*
X109400761Y-106962025D01*
X109400759Y-106962024D01*
X109400756Y-106962023D01*
X109252922Y-106883005D01*
X109123341Y-106776659D01*
X109016995Y-106647078D01*
X108937977Y-106499244D01*
X108924260Y-106454025D01*
X108889314Y-106338825D01*
X108889314Y-106338824D01*
X108889313Y-106338821D01*
X108872883Y-106172000D01*
X108889313Y-106005179D01*
X108893540Y-105991244D01*
X108937975Y-105844761D01*
X108937976Y-105844759D01*
X108937977Y-105844756D01*
X109016995Y-105696922D01*
X109123341Y-105567341D01*
X109252922Y-105460995D01*
X109400756Y-105381977D01*
X109400759Y-105381976D01*
X109400761Y-105381975D01*
X109561175Y-105333314D01*
X109561176Y-105333314D01*
X109561179Y-105333313D01*
X109686196Y-105321000D01*
X109769804Y-105321000D01*
X109894821Y-105333313D01*
X109894821Y-105333313D01*
G37*
G36*
X113532228Y-105353703D02*
X113687100Y-105417853D01*
X113826481Y-105510985D01*
X113945015Y-105629519D01*
X114038147Y-105768900D01*
X114102297Y-105923772D01*
X114135000Y-106088184D01*
X114135000Y-106255816D01*
X114102297Y-106420228D01*
X114038147Y-106575100D01*
X113945015Y-106714481D01*
X113826481Y-106833015D01*
X113687100Y-106926147D01*
X113532228Y-106990297D01*
X113367816Y-107023000D01*
X113200184Y-107023000D01*
X113035772Y-106990297D01*
X112880900Y-106926147D01*
X112741519Y-106833015D01*
X112622985Y-106714481D01*
X112529853Y-106575100D01*
X112465703Y-106420228D01*
X112433000Y-106255816D01*
X112433000Y-106088184D01*
X112465703Y-105923772D01*
X112529853Y-105768900D01*
X112622985Y-105629519D01*
X112741519Y-105510985D01*
X112880900Y-105417853D01*
X113035772Y-105353703D01*
X113200184Y-105321000D01*
X113367816Y-105321000D01*
X113532228Y-105353703D01*
X113532228Y-105353703D01*
G37*
G36*
X102451000Y-106515000D02*
X100749000Y-106515000D01*
X100749000Y-104813000D01*
X102451000Y-104813000D01*
X102451000Y-106515000D01*
X102451000Y-106515000D01*
G37*
G36*
X94146821Y-104825313D02*
X94146824Y-104825314D01*
X94146825Y-104825314D01*
X94307239Y-104873975D01*
X94307241Y-104873976D01*
X94307244Y-104873977D01*
X94455078Y-104952995D01*
X94584659Y-105059341D01*
X94691005Y-105188922D01*
X94770023Y-105336756D01*
X94770024Y-105336759D01*
X94770025Y-105336761D01*
X94783741Y-105381977D01*
X94818687Y-105497179D01*
X94835117Y-105664000D01*
X94818687Y-105830821D01*
X94818686Y-105830824D01*
X94818686Y-105830825D01*
X94790491Y-105923772D01*
X94770023Y-105991244D01*
X94691005Y-106139078D01*
X94584659Y-106268659D01*
X94455078Y-106375005D01*
X94307244Y-106454023D01*
X94307241Y-106454024D01*
X94307239Y-106454025D01*
X94146825Y-106502686D01*
X94146824Y-106502686D01*
X94146821Y-106502687D01*
X94021804Y-106515000D01*
X93938196Y-106515000D01*
X93813179Y-106502687D01*
X93813176Y-106502686D01*
X93813175Y-106502686D01*
X93652761Y-106454025D01*
X93652759Y-106454024D01*
X93652756Y-106454023D01*
X93504922Y-106375005D01*
X93375341Y-106268659D01*
X93268995Y-106139078D01*
X93189977Y-105991244D01*
X93169510Y-105923772D01*
X93141314Y-105830825D01*
X93141314Y-105830824D01*
X93141313Y-105830821D01*
X93124883Y-105664000D01*
X93141313Y-105497179D01*
X93176259Y-105381977D01*
X93189975Y-105336761D01*
X93189976Y-105336759D01*
X93189977Y-105336756D01*
X93268995Y-105188922D01*
X93375341Y-105059341D01*
X93504922Y-104952995D01*
X93652756Y-104873977D01*
X93652759Y-104873976D01*
X93652761Y-104873975D01*
X93813175Y-104825314D01*
X93813176Y-104825314D01*
X93813179Y-104825313D01*
X93938196Y-104813000D01*
X94021804Y-104813000D01*
X94146821Y-104825313D01*
X94146821Y-104825313D01*
G37*
G36*
X124395000Y-105091000D02*
X122493000Y-105091000D01*
X122493000Y-103189000D01*
X124395000Y-103189000D01*
X124395000Y-105091000D01*
X124395000Y-105091000D01*
G37*
G36*
X121181396Y-103225546D02*
X121354466Y-103297234D01*
X121510230Y-103401312D01*
X121642688Y-103533770D01*
X121746766Y-103689534D01*
X121818454Y-103862604D01*
X121855000Y-104046333D01*
X121855000Y-104233667D01*
X121818454Y-104417396D01*
X121746766Y-104590466D01*
X121642688Y-104746230D01*
X121510230Y-104878688D01*
X121354466Y-104982766D01*
X121181396Y-105054454D01*
X120997667Y-105091000D01*
X120810333Y-105091000D01*
X120626604Y-105054454D01*
X120453534Y-104982766D01*
X120297770Y-104878688D01*
X120165312Y-104746230D01*
X120061234Y-104590466D01*
X119989546Y-104417396D01*
X119953000Y-104233667D01*
X119953000Y-104046333D01*
X119989546Y-103862604D01*
X120061234Y-103689534D01*
X120165312Y-103533770D01*
X120297770Y-103401312D01*
X120453534Y-103297234D01*
X120626604Y-103225546D01*
X120810333Y-103189000D01*
X120997667Y-103189000D01*
X121181396Y-103225546D01*
X121181396Y-103225546D01*
G37*
G36*
X87559636Y-101885019D02*
X87740903Y-101921075D01*
X87968571Y-102015378D01*
X88063488Y-102078800D01*
X88173469Y-102152287D01*
X88347713Y-102326531D01*
X88347715Y-102326534D01*
X88484622Y-102531429D01*
X88578925Y-102759097D01*
X88627000Y-103000787D01*
X88627000Y-103247213D01*
X88578925Y-103488903D01*
X88484622Y-103716571D01*
X88376660Y-103878147D01*
X88347713Y-103921469D01*
X88173469Y-104095713D01*
X88173466Y-104095715D01*
X87968571Y-104232622D01*
X87740903Y-104326925D01*
X87590213Y-104356899D01*
X87499214Y-104375000D01*
X87252786Y-104375000D01*
X87161787Y-104356899D01*
X87011097Y-104326925D01*
X86783429Y-104232622D01*
X86578534Y-104095715D01*
X86578531Y-104095713D01*
X86404287Y-103921469D01*
X86375340Y-103878147D01*
X86267378Y-103716571D01*
X86173075Y-103488903D01*
X86125000Y-103247213D01*
X86125000Y-103000787D01*
X86173075Y-102759097D01*
X86267378Y-102531429D01*
X86404285Y-102326534D01*
X86404287Y-102326531D01*
X86578531Y-102152287D01*
X86688512Y-102078800D01*
X86783429Y-102015378D01*
X87011097Y-101921075D01*
X87192365Y-101885019D01*
X87252786Y-101873000D01*
X87499214Y-101873000D01*
X87559636Y-101885019D01*
X87559636Y-101885019D01*
G37*
G36*
X72381239Y-101891101D02*
X72617053Y-101962634D01*
X72834381Y-102078799D01*
X73024871Y-102235129D01*
X73181201Y-102425619D01*
X73297366Y-102642947D01*
X73368899Y-102878761D01*
X73393053Y-103124000D01*
X73368899Y-103369239D01*
X73297366Y-103605053D01*
X73181201Y-103822381D01*
X73024871Y-104012871D01*
X72834381Y-104169201D01*
X72617053Y-104285366D01*
X72381239Y-104356899D01*
X72197457Y-104375000D01*
X72074543Y-104375000D01*
X71890761Y-104356899D01*
X71654947Y-104285366D01*
X71437619Y-104169201D01*
X71247129Y-104012871D01*
X71090799Y-103822381D01*
X70974634Y-103605053D01*
X70903101Y-103369239D01*
X70878947Y-103124000D01*
X70903101Y-102878761D01*
X70974634Y-102642947D01*
X71090799Y-102425619D01*
X71247129Y-102235129D01*
X71437619Y-102078799D01*
X71654947Y-101962634D01*
X71890761Y-101891101D01*
X72074543Y-101873000D01*
X72197457Y-101873000D01*
X72381239Y-101891101D01*
X72381239Y-101891101D01*
G37*
G36*
X91180228Y-102305703D02*
X91335100Y-102369853D01*
X91474481Y-102462985D01*
X91593015Y-102581519D01*
X91686147Y-102720900D01*
X91750297Y-102875772D01*
X91783000Y-103040184D01*
X91783000Y-103207816D01*
X91750297Y-103372228D01*
X91686147Y-103527100D01*
X91593015Y-103666481D01*
X91474481Y-103785015D01*
X91335100Y-103878147D01*
X91180228Y-103942297D01*
X91015816Y-103975000D01*
X90848184Y-103975000D01*
X90683772Y-103942297D01*
X90528900Y-103878147D01*
X90389519Y-103785015D01*
X90270985Y-103666481D01*
X90177853Y-103527100D01*
X90113703Y-103372228D01*
X90081000Y-103207816D01*
X90081000Y-103040184D01*
X90113703Y-102875772D01*
X90177853Y-102720900D01*
X90270985Y-102581519D01*
X90389519Y-102462985D01*
X90528900Y-102369853D01*
X90683772Y-102305703D01*
X90848184Y-102273000D01*
X91015816Y-102273000D01*
X91180228Y-102305703D01*
X91180228Y-102305703D01*
G37*
G36*
X101766821Y-102285313D02*
X101766824Y-102285314D01*
X101766825Y-102285314D01*
X101927239Y-102333975D01*
X101927241Y-102333976D01*
X101927244Y-102333977D01*
X102075078Y-102412995D01*
X102204659Y-102519341D01*
X102311005Y-102648922D01*
X102390023Y-102796756D01*
X102390024Y-102796759D01*
X102390025Y-102796761D01*
X102438686Y-102957175D01*
X102438687Y-102957179D01*
X102455117Y-103124000D01*
X102438687Y-103290821D01*
X102438686Y-103290824D01*
X102438686Y-103290825D01*
X102405171Y-103401310D01*
X102390023Y-103451244D01*
X102311005Y-103599078D01*
X102204659Y-103728659D01*
X102075078Y-103835005D01*
X101927244Y-103914023D01*
X101927241Y-103914024D01*
X101927239Y-103914025D01*
X101766825Y-103962686D01*
X101766824Y-103962686D01*
X101766821Y-103962687D01*
X101641804Y-103975000D01*
X101558196Y-103975000D01*
X101433179Y-103962687D01*
X101433176Y-103962686D01*
X101433175Y-103962686D01*
X101272761Y-103914025D01*
X101272759Y-103914024D01*
X101272756Y-103914023D01*
X101124922Y-103835005D01*
X100995341Y-103728659D01*
X100888995Y-103599078D01*
X100809977Y-103451244D01*
X100794830Y-103401310D01*
X100761314Y-103290825D01*
X100761314Y-103290824D01*
X100761313Y-103290821D01*
X100744883Y-103124000D01*
X100761313Y-102957179D01*
X100761314Y-102957175D01*
X100809975Y-102796761D01*
X100809976Y-102796759D01*
X100809977Y-102796756D01*
X100888995Y-102648922D01*
X100995341Y-102519341D01*
X101124922Y-102412995D01*
X101272756Y-102333977D01*
X101272759Y-102333976D01*
X101272761Y-102333975D01*
X101433175Y-102285314D01*
X101433176Y-102285314D01*
X101433179Y-102285313D01*
X101558196Y-102273000D01*
X101641804Y-102273000D01*
X101766821Y-102285313D01*
X101766821Y-102285313D01*
G37*
G36*
X94146821Y-102285313D02*
X94146824Y-102285314D01*
X94146825Y-102285314D01*
X94307239Y-102333975D01*
X94307241Y-102333976D01*
X94307244Y-102333977D01*
X94455078Y-102412995D01*
X94584659Y-102519341D01*
X94691005Y-102648922D01*
X94770023Y-102796756D01*
X94770024Y-102796759D01*
X94770025Y-102796761D01*
X94818686Y-102957175D01*
X94818687Y-102957179D01*
X94835117Y-103124000D01*
X94818687Y-103290821D01*
X94818686Y-103290824D01*
X94818686Y-103290825D01*
X94785171Y-103401310D01*
X94770023Y-103451244D01*
X94691005Y-103599078D01*
X94584659Y-103728659D01*
X94455078Y-103835005D01*
X94307244Y-103914023D01*
X94307241Y-103914024D01*
X94307239Y-103914025D01*
X94146825Y-103962686D01*
X94146824Y-103962686D01*
X94146821Y-103962687D01*
X94021804Y-103975000D01*
X93938196Y-103975000D01*
X93813179Y-103962687D01*
X93813176Y-103962686D01*
X93813175Y-103962686D01*
X93652761Y-103914025D01*
X93652759Y-103914024D01*
X93652756Y-103914023D01*
X93504922Y-103835005D01*
X93375341Y-103728659D01*
X93268995Y-103599078D01*
X93189977Y-103451244D01*
X93174830Y-103401310D01*
X93141314Y-103290825D01*
X93141314Y-103290824D01*
X93141313Y-103290821D01*
X93124883Y-103124000D01*
X93141313Y-102957179D01*
X93141314Y-102957175D01*
X93189975Y-102796761D01*
X93189976Y-102796759D01*
X93189977Y-102796756D01*
X93268995Y-102648922D01*
X93375341Y-102519341D01*
X93504922Y-102412995D01*
X93652756Y-102333977D01*
X93652759Y-102333976D01*
X93652761Y-102333975D01*
X93813175Y-102285314D01*
X93813176Y-102285314D01*
X93813179Y-102285313D01*
X93938196Y-102273000D01*
X94021804Y-102273000D01*
X94146821Y-102285313D01*
X94146821Y-102285313D01*
G37*
G36*
X68690442Y-99689518D02*
X68756627Y-99696037D01*
X68869853Y-99730384D01*
X68926467Y-99747557D01*
X69013311Y-99793977D01*
X69082991Y-99831222D01*
X69118729Y-99860552D01*
X69220186Y-99943814D01*
X69275703Y-100011463D01*
X69332778Y-100081009D01*
X69332779Y-100081011D01*
X69416443Y-100237533D01*
X69433616Y-100294147D01*
X69467963Y-100407373D01*
X69485359Y-100584000D01*
X69467963Y-100760627D01*
X69433616Y-100873853D01*
X69416443Y-100930467D01*
X69347698Y-101059078D01*
X69332778Y-101086991D01*
X69303448Y-101122729D01*
X69220186Y-101224186D01*
X69118729Y-101307448D01*
X69082991Y-101336778D01*
X69082989Y-101336779D01*
X68926467Y-101420443D01*
X68919069Y-101422687D01*
X68756627Y-101471963D01*
X68690443Y-101478481D01*
X68624260Y-101485000D01*
X68535740Y-101485000D01*
X68469557Y-101478481D01*
X68403373Y-101471963D01*
X68240931Y-101422687D01*
X68233533Y-101420443D01*
X68077011Y-101336779D01*
X68077009Y-101336778D01*
X68041271Y-101307448D01*
X67939814Y-101224186D01*
X67856552Y-101122729D01*
X67827222Y-101086991D01*
X67812302Y-101059078D01*
X67743557Y-100930467D01*
X67726384Y-100873853D01*
X67692037Y-100760627D01*
X67674641Y-100584000D01*
X67692037Y-100407373D01*
X67726384Y-100294147D01*
X67743557Y-100237533D01*
X67827221Y-100081011D01*
X67827222Y-100081009D01*
X67884297Y-100011463D01*
X67939814Y-99943814D01*
X68041271Y-99860552D01*
X68077009Y-99831222D01*
X68146689Y-99793977D01*
X68233533Y-99747557D01*
X68290147Y-99730384D01*
X68403373Y-99696037D01*
X68469558Y-99689518D01*
X68535740Y-99683000D01*
X68624260Y-99683000D01*
X68690442Y-99689518D01*
X68690442Y-99689518D01*
G37*
G36*
X94146821Y-99745313D02*
X94146824Y-99745314D01*
X94146825Y-99745314D01*
X94307239Y-99793975D01*
X94307241Y-99793976D01*
X94307244Y-99793977D01*
X94455078Y-99872995D01*
X94584659Y-99979341D01*
X94691005Y-100108922D01*
X94770023Y-100256756D01*
X94770024Y-100256759D01*
X94770025Y-100256761D01*
X94815713Y-100407375D01*
X94818687Y-100417179D01*
X94835117Y-100584000D01*
X94818687Y-100750821D01*
X94818686Y-100750824D01*
X94818686Y-100750825D01*
X94815713Y-100760627D01*
X94770023Y-100911244D01*
X94691005Y-101059078D01*
X94584659Y-101188659D01*
X94455078Y-101295005D01*
X94307244Y-101374023D01*
X94307241Y-101374024D01*
X94307239Y-101374025D01*
X94146825Y-101422686D01*
X94146824Y-101422686D01*
X94146821Y-101422687D01*
X94021804Y-101435000D01*
X93938196Y-101435000D01*
X93813179Y-101422687D01*
X93813176Y-101422686D01*
X93813175Y-101422686D01*
X93652761Y-101374025D01*
X93652759Y-101374024D01*
X93652756Y-101374023D01*
X93504922Y-101295005D01*
X93375341Y-101188659D01*
X93268995Y-101059078D01*
X93189977Y-100911244D01*
X93144288Y-100760627D01*
X93141314Y-100750825D01*
X93141314Y-100750824D01*
X93141313Y-100750821D01*
X93124883Y-100584000D01*
X93141313Y-100417179D01*
X93144287Y-100407375D01*
X93189975Y-100256761D01*
X93189976Y-100256759D01*
X93189977Y-100256756D01*
X93268995Y-100108922D01*
X93375341Y-99979341D01*
X93504922Y-99872995D01*
X93652756Y-99793977D01*
X93652759Y-99793976D01*
X93652761Y-99793975D01*
X93813175Y-99745314D01*
X93813176Y-99745314D01*
X93813179Y-99745313D01*
X93938196Y-99733000D01*
X94021804Y-99733000D01*
X94146821Y-99745313D01*
X94146821Y-99745313D01*
G37*
G36*
X101766821Y-99745313D02*
X101766824Y-99745314D01*
X101766825Y-99745314D01*
X101927239Y-99793975D01*
X101927241Y-99793976D01*
X101927244Y-99793977D01*
X102075078Y-99872995D01*
X102204659Y-99979341D01*
X102311005Y-100108922D01*
X102390023Y-100256756D01*
X102390024Y-100256759D01*
X102390025Y-100256761D01*
X102435713Y-100407375D01*
X102438687Y-100417179D01*
X102455117Y-100584000D01*
X102438687Y-100750821D01*
X102438686Y-100750824D01*
X102438686Y-100750825D01*
X102435713Y-100760627D01*
X102390023Y-100911244D01*
X102311005Y-101059078D01*
X102204659Y-101188659D01*
X102075078Y-101295005D01*
X101927244Y-101374023D01*
X101927241Y-101374024D01*
X101927239Y-101374025D01*
X101766825Y-101422686D01*
X101766824Y-101422686D01*
X101766821Y-101422687D01*
X101641804Y-101435000D01*
X101558196Y-101435000D01*
X101433179Y-101422687D01*
X101433176Y-101422686D01*
X101433175Y-101422686D01*
X101272761Y-101374025D01*
X101272759Y-101374024D01*
X101272756Y-101374023D01*
X101124922Y-101295005D01*
X100995341Y-101188659D01*
X100888995Y-101059078D01*
X100809977Y-100911244D01*
X100764288Y-100760627D01*
X100761314Y-100750825D01*
X100761314Y-100750824D01*
X100761313Y-100750821D01*
X100744883Y-100584000D01*
X100761313Y-100417179D01*
X100764287Y-100407375D01*
X100809975Y-100256761D01*
X100809976Y-100256759D01*
X100809977Y-100256756D01*
X100888995Y-100108922D01*
X100995341Y-99979341D01*
X101124922Y-99872995D01*
X101272756Y-99793977D01*
X101272759Y-99793976D01*
X101272761Y-99793975D01*
X101433175Y-99745314D01*
X101433176Y-99745314D01*
X101433179Y-99745313D01*
X101558196Y-99733000D01*
X101641804Y-99733000D01*
X101766821Y-99745313D01*
X101766821Y-99745313D01*
G37*
G36*
X127618443Y-98229019D02*
X127684627Y-98235537D01*
X127797853Y-98269884D01*
X127854467Y-98287057D01*
X127993087Y-98361152D01*
X128010991Y-98370722D01*
X128046729Y-98400052D01*
X128148186Y-98483314D01*
X128204554Y-98552000D01*
X128260778Y-98620509D01*
X128260779Y-98620511D01*
X128344443Y-98777033D01*
X128344443Y-98777034D01*
X128395963Y-98946873D01*
X128413359Y-99123500D01*
X128395963Y-99300127D01*
X128374677Y-99370297D01*
X128344443Y-99469967D01*
X128270348Y-99608587D01*
X128260778Y-99626491D01*
X128231448Y-99662229D01*
X128148186Y-99763686D01*
X128065893Y-99831221D01*
X128010991Y-99876278D01*
X128010989Y-99876279D01*
X127854467Y-99959943D01*
X127797853Y-99977116D01*
X127684627Y-100011463D01*
X127618443Y-100017981D01*
X127552260Y-100024500D01*
X127463740Y-100024500D01*
X127397557Y-100017981D01*
X127331373Y-100011463D01*
X127218147Y-99977116D01*
X127161533Y-99959943D01*
X127005011Y-99876279D01*
X127005009Y-99876278D01*
X126950107Y-99831221D01*
X126867814Y-99763686D01*
X126784552Y-99662229D01*
X126755222Y-99626491D01*
X126745652Y-99608587D01*
X126671557Y-99469967D01*
X126641323Y-99370297D01*
X126620037Y-99300127D01*
X126602641Y-99123500D01*
X126620037Y-98946873D01*
X126671557Y-98777034D01*
X126671557Y-98777033D01*
X126755221Y-98620511D01*
X126755222Y-98620509D01*
X126811446Y-98552000D01*
X126867814Y-98483314D01*
X126969271Y-98400052D01*
X127005009Y-98370722D01*
X127022913Y-98361152D01*
X127161533Y-98287057D01*
X127218147Y-98269884D01*
X127331373Y-98235537D01*
X127397557Y-98229019D01*
X127463740Y-98222500D01*
X127552260Y-98222500D01*
X127618443Y-98229019D01*
X127618443Y-98229019D01*
G37*
G36*
X117006821Y-97713313D02*
X117006824Y-97713314D01*
X117006825Y-97713314D01*
X117167239Y-97761975D01*
X117167241Y-97761976D01*
X117167244Y-97761977D01*
X117315078Y-97840995D01*
X117444659Y-97947341D01*
X117551005Y-98076922D01*
X117630023Y-98224756D01*
X117630024Y-98224759D01*
X117630025Y-98224761D01*
X117674460Y-98371244D01*
X117678687Y-98385179D01*
X117695117Y-98552000D01*
X117678687Y-98718821D01*
X117678686Y-98718824D01*
X117678686Y-98718825D01*
X117643741Y-98834025D01*
X117630023Y-98879244D01*
X117551005Y-99027078D01*
X117444659Y-99156659D01*
X117315078Y-99263005D01*
X117167244Y-99342023D01*
X117167241Y-99342024D01*
X117167239Y-99342025D01*
X117006825Y-99390686D01*
X117006824Y-99390686D01*
X117006821Y-99390687D01*
X116881804Y-99403000D01*
X116798196Y-99403000D01*
X116673179Y-99390687D01*
X116673176Y-99390686D01*
X116673175Y-99390686D01*
X116512761Y-99342025D01*
X116512759Y-99342024D01*
X116512756Y-99342023D01*
X116364922Y-99263005D01*
X116235341Y-99156659D01*
X116128995Y-99027078D01*
X116049977Y-98879244D01*
X116036260Y-98834025D01*
X116001314Y-98718825D01*
X116001314Y-98718824D01*
X116001313Y-98718821D01*
X115984883Y-98552000D01*
X116001313Y-98385179D01*
X116005540Y-98371244D01*
X116049975Y-98224761D01*
X116049976Y-98224759D01*
X116049977Y-98224756D01*
X116128995Y-98076922D01*
X116235341Y-97947341D01*
X116364922Y-97840995D01*
X116512756Y-97761977D01*
X116512759Y-97761976D01*
X116512761Y-97761975D01*
X116673175Y-97713314D01*
X116673176Y-97713314D01*
X116673179Y-97713313D01*
X116798196Y-97701000D01*
X116881804Y-97701000D01*
X117006821Y-97713313D01*
X117006821Y-97713313D01*
G37*
G36*
X106338821Y-97713313D02*
X106338824Y-97713314D01*
X106338825Y-97713314D01*
X106499239Y-97761975D01*
X106499241Y-97761976D01*
X106499244Y-97761977D01*
X106647078Y-97840995D01*
X106776659Y-97947341D01*
X106883005Y-98076922D01*
X106962023Y-98224756D01*
X106962024Y-98224759D01*
X106962025Y-98224761D01*
X107006460Y-98371244D01*
X107010687Y-98385179D01*
X107027117Y-98552000D01*
X107010687Y-98718821D01*
X107010686Y-98718824D01*
X107010686Y-98718825D01*
X106975741Y-98834025D01*
X106962023Y-98879244D01*
X106883005Y-99027078D01*
X106776659Y-99156659D01*
X106647078Y-99263005D01*
X106499244Y-99342023D01*
X106499241Y-99342024D01*
X106499239Y-99342025D01*
X106338825Y-99390686D01*
X106338824Y-99390686D01*
X106338821Y-99390687D01*
X106213804Y-99403000D01*
X106130196Y-99403000D01*
X106005179Y-99390687D01*
X106005176Y-99390686D01*
X106005175Y-99390686D01*
X105844761Y-99342025D01*
X105844759Y-99342024D01*
X105844756Y-99342023D01*
X105696922Y-99263005D01*
X105567341Y-99156659D01*
X105460995Y-99027078D01*
X105381977Y-98879244D01*
X105368260Y-98834025D01*
X105333314Y-98718825D01*
X105333314Y-98718824D01*
X105333313Y-98718821D01*
X105316883Y-98552000D01*
X105333313Y-98385179D01*
X105337540Y-98371244D01*
X105381975Y-98224761D01*
X105381976Y-98224759D01*
X105381977Y-98224756D01*
X105460995Y-98076922D01*
X105567341Y-97947341D01*
X105696922Y-97840995D01*
X105844756Y-97761977D01*
X105844759Y-97761976D01*
X105844761Y-97761975D01*
X106005175Y-97713314D01*
X106005176Y-97713314D01*
X106005179Y-97713313D01*
X106130196Y-97701000D01*
X106213804Y-97701000D01*
X106338821Y-97713313D01*
X106338821Y-97713313D01*
G37*
G36*
X113450821Y-97713313D02*
X113450824Y-97713314D01*
X113450825Y-97713314D01*
X113611239Y-97761975D01*
X113611241Y-97761976D01*
X113611244Y-97761977D01*
X113759078Y-97840995D01*
X113888659Y-97947341D01*
X113995005Y-98076922D01*
X114074023Y-98224756D01*
X114074024Y-98224759D01*
X114074025Y-98224761D01*
X114118460Y-98371244D01*
X114122687Y-98385179D01*
X114139117Y-98552000D01*
X114122687Y-98718821D01*
X114122686Y-98718824D01*
X114122686Y-98718825D01*
X114087741Y-98834025D01*
X114074023Y-98879244D01*
X113995005Y-99027078D01*
X113888659Y-99156659D01*
X113759078Y-99263005D01*
X113611244Y-99342023D01*
X113611241Y-99342024D01*
X113611239Y-99342025D01*
X113450825Y-99390686D01*
X113450824Y-99390686D01*
X113450821Y-99390687D01*
X113325804Y-99403000D01*
X113242196Y-99403000D01*
X113117179Y-99390687D01*
X113117176Y-99390686D01*
X113117175Y-99390686D01*
X112956761Y-99342025D01*
X112956759Y-99342024D01*
X112956756Y-99342023D01*
X112808922Y-99263005D01*
X112679341Y-99156659D01*
X112572995Y-99027078D01*
X112493977Y-98879244D01*
X112480260Y-98834025D01*
X112445314Y-98718825D01*
X112445314Y-98718824D01*
X112445313Y-98718821D01*
X112428883Y-98552000D01*
X112445313Y-98385179D01*
X112449540Y-98371244D01*
X112493975Y-98224761D01*
X112493976Y-98224759D01*
X112493977Y-98224756D01*
X112572995Y-98076922D01*
X112679341Y-97947341D01*
X112808922Y-97840995D01*
X112956756Y-97761977D01*
X112956759Y-97761976D01*
X112956761Y-97761975D01*
X113117175Y-97713314D01*
X113117176Y-97713314D01*
X113117179Y-97713313D01*
X113242196Y-97701000D01*
X113325804Y-97701000D01*
X113450821Y-97713313D01*
X113450821Y-97713313D01*
G37*
G36*
X109976228Y-97733703D02*
X110131100Y-97797853D01*
X110270481Y-97890985D01*
X110389015Y-98009519D01*
X110482147Y-98148900D01*
X110546297Y-98303772D01*
X110579000Y-98468184D01*
X110579000Y-98635816D01*
X110546297Y-98800228D01*
X110482147Y-98955100D01*
X110389015Y-99094481D01*
X110270481Y-99213015D01*
X110131100Y-99306147D01*
X109976228Y-99370297D01*
X109811816Y-99403000D01*
X109644184Y-99403000D01*
X109479772Y-99370297D01*
X109324900Y-99306147D01*
X109185519Y-99213015D01*
X109066985Y-99094481D01*
X108973853Y-98955100D01*
X108909703Y-98800228D01*
X108877000Y-98635816D01*
X108877000Y-98468184D01*
X108909703Y-98303772D01*
X108973853Y-98148900D01*
X109066985Y-98009519D01*
X109185519Y-97890985D01*
X109324900Y-97797853D01*
X109479772Y-97733703D01*
X109644184Y-97701000D01*
X109811816Y-97701000D01*
X109976228Y-97733703D01*
X109976228Y-97733703D01*
G37*
G36*
X69481000Y-98945000D02*
X67679000Y-98945000D01*
X67679000Y-97143000D01*
X69481000Y-97143000D01*
X69481000Y-98945000D01*
X69481000Y-98945000D01*
G37*
G36*
X94146821Y-97205313D02*
X94146824Y-97205314D01*
X94146825Y-97205314D01*
X94307239Y-97253975D01*
X94307241Y-97253976D01*
X94307244Y-97253977D01*
X94455078Y-97332995D01*
X94584659Y-97439341D01*
X94691005Y-97568922D01*
X94770023Y-97716756D01*
X94770024Y-97716759D01*
X94770025Y-97716761D01*
X94783741Y-97761977D01*
X94818687Y-97877179D01*
X94835117Y-98044000D01*
X94818687Y-98210821D01*
X94818686Y-98210824D01*
X94818686Y-98210825D01*
X94770182Y-98370722D01*
X94770023Y-98371244D01*
X94691005Y-98519078D01*
X94584659Y-98648659D01*
X94455078Y-98755005D01*
X94307244Y-98834023D01*
X94307241Y-98834024D01*
X94307239Y-98834025D01*
X94146825Y-98882686D01*
X94146824Y-98882686D01*
X94146821Y-98882687D01*
X94021804Y-98895000D01*
X93938196Y-98895000D01*
X93813179Y-98882687D01*
X93813176Y-98882686D01*
X93813175Y-98882686D01*
X93652761Y-98834025D01*
X93652759Y-98834024D01*
X93652756Y-98834023D01*
X93504922Y-98755005D01*
X93375341Y-98648659D01*
X93268995Y-98519078D01*
X93189977Y-98371244D01*
X93189819Y-98370722D01*
X93141314Y-98210825D01*
X93141314Y-98210824D01*
X93141313Y-98210821D01*
X93124883Y-98044000D01*
X93141313Y-97877179D01*
X93176259Y-97761977D01*
X93189975Y-97716761D01*
X93189976Y-97716759D01*
X93189977Y-97716756D01*
X93268995Y-97568922D01*
X93375341Y-97439341D01*
X93504922Y-97332995D01*
X93652756Y-97253977D01*
X93652759Y-97253976D01*
X93652761Y-97253975D01*
X93813175Y-97205314D01*
X93813176Y-97205314D01*
X93813179Y-97205313D01*
X93938196Y-97193000D01*
X94021804Y-97193000D01*
X94146821Y-97205313D01*
X94146821Y-97205313D01*
G37*
G36*
X101766821Y-97205313D02*
X101766824Y-97205314D01*
X101766825Y-97205314D01*
X101927239Y-97253975D01*
X101927241Y-97253976D01*
X101927244Y-97253977D01*
X102075078Y-97332995D01*
X102204659Y-97439341D01*
X102311005Y-97568922D01*
X102390023Y-97716756D01*
X102390024Y-97716759D01*
X102390025Y-97716761D01*
X102403741Y-97761977D01*
X102438687Y-97877179D01*
X102455117Y-98044000D01*
X102438687Y-98210821D01*
X102438686Y-98210824D01*
X102438686Y-98210825D01*
X102390182Y-98370722D01*
X102390023Y-98371244D01*
X102311005Y-98519078D01*
X102204659Y-98648659D01*
X102075078Y-98755005D01*
X101927244Y-98834023D01*
X101927241Y-98834024D01*
X101927239Y-98834025D01*
X101766825Y-98882686D01*
X101766824Y-98882686D01*
X101766821Y-98882687D01*
X101641804Y-98895000D01*
X101558196Y-98895000D01*
X101433179Y-98882687D01*
X101433176Y-98882686D01*
X101433175Y-98882686D01*
X101272761Y-98834025D01*
X101272759Y-98834024D01*
X101272756Y-98834023D01*
X101124922Y-98755005D01*
X100995341Y-98648659D01*
X100888995Y-98519078D01*
X100809977Y-98371244D01*
X100809819Y-98370722D01*
X100761314Y-98210825D01*
X100761314Y-98210824D01*
X100761313Y-98210821D01*
X100744883Y-98044000D01*
X100761313Y-97877179D01*
X100796259Y-97761977D01*
X100809975Y-97716761D01*
X100809976Y-97716759D01*
X100809977Y-97716756D01*
X100888995Y-97568922D01*
X100995341Y-97439341D01*
X101124922Y-97332995D01*
X101272756Y-97253977D01*
X101272759Y-97253976D01*
X101272761Y-97253975D01*
X101433175Y-97205314D01*
X101433176Y-97205314D01*
X101433179Y-97205313D01*
X101558196Y-97193000D01*
X101641804Y-97193000D01*
X101766821Y-97205313D01*
X101766821Y-97205313D01*
G37*
G36*
X128409000Y-97484500D02*
X126607000Y-97484500D01*
X126607000Y-95682500D01*
X128409000Y-95682500D01*
X128409000Y-97484500D01*
X128409000Y-97484500D01*
G37*
G36*
X87559635Y-94265019D02*
X87740903Y-94301075D01*
X87968571Y-94395378D01*
X88063488Y-94458800D01*
X88173469Y-94532287D01*
X88347713Y-94706531D01*
X88347715Y-94706534D01*
X88484622Y-94911429D01*
X88578925Y-95139097D01*
X88627000Y-95380787D01*
X88627000Y-95627213D01*
X88578925Y-95868903D01*
X88484622Y-96096571D01*
X88352688Y-96294023D01*
X88347713Y-96301469D01*
X88173469Y-96475713D01*
X88173466Y-96475715D01*
X87968571Y-96612622D01*
X87740903Y-96706925D01*
X87590213Y-96736899D01*
X87499214Y-96755000D01*
X87252786Y-96755000D01*
X87161787Y-96736899D01*
X87011097Y-96706925D01*
X86783429Y-96612622D01*
X86578534Y-96475715D01*
X86578531Y-96475713D01*
X86404287Y-96301469D01*
X86399312Y-96294023D01*
X86267378Y-96096571D01*
X86173075Y-95868903D01*
X86125000Y-95627213D01*
X86125000Y-95380787D01*
X86173075Y-95139097D01*
X86267378Y-94911429D01*
X86404285Y-94706534D01*
X86404287Y-94706531D01*
X86578531Y-94532287D01*
X86688512Y-94458800D01*
X86783429Y-94395378D01*
X87011097Y-94301075D01*
X87192365Y-94265019D01*
X87252786Y-94253000D01*
X87499214Y-94253000D01*
X87559635Y-94265019D01*
X87559635Y-94265019D01*
G37*
G36*
X72381239Y-94271101D02*
X72617053Y-94342634D01*
X72834381Y-94458799D01*
X73024871Y-94615129D01*
X73181201Y-94805619D01*
X73297366Y-95022947D01*
X73368899Y-95258761D01*
X73393053Y-95504000D01*
X73368899Y-95749239D01*
X73297366Y-95985053D01*
X73181201Y-96202381D01*
X73024871Y-96392871D01*
X72834381Y-96549201D01*
X72617053Y-96665366D01*
X72381239Y-96736899D01*
X72197457Y-96755000D01*
X72074543Y-96755000D01*
X71890761Y-96736899D01*
X71654947Y-96665366D01*
X71437619Y-96549201D01*
X71247129Y-96392871D01*
X71090799Y-96202381D01*
X70974634Y-95985053D01*
X70903101Y-95749239D01*
X70878947Y-95504000D01*
X70903101Y-95258761D01*
X70974634Y-95022947D01*
X71090799Y-94805619D01*
X71247129Y-94615129D01*
X71437619Y-94458799D01*
X71654947Y-94342634D01*
X71890761Y-94271101D01*
X72074543Y-94253000D01*
X72197457Y-94253000D01*
X72381239Y-94271101D01*
X72381239Y-94271101D01*
G37*
G36*
X91098821Y-94665313D02*
X91098824Y-94665314D01*
X91098825Y-94665314D01*
X91259239Y-94713975D01*
X91259241Y-94713976D01*
X91259244Y-94713977D01*
X91407078Y-94792995D01*
X91536659Y-94899341D01*
X91643005Y-95028922D01*
X91722023Y-95176756D01*
X91722024Y-95176759D01*
X91722025Y-95176761D01*
X91770686Y-95337175D01*
X91770687Y-95337179D01*
X91787117Y-95504000D01*
X91770687Y-95670821D01*
X91770686Y-95670824D01*
X91770686Y-95670825D01*
X91735741Y-95786025D01*
X91722023Y-95831244D01*
X91643005Y-95979078D01*
X91536659Y-96108659D01*
X91407078Y-96215005D01*
X91259244Y-96294023D01*
X91259241Y-96294024D01*
X91259239Y-96294025D01*
X91098825Y-96342686D01*
X91098824Y-96342686D01*
X91098821Y-96342687D01*
X90973804Y-96355000D01*
X90890196Y-96355000D01*
X90765179Y-96342687D01*
X90765176Y-96342686D01*
X90765175Y-96342686D01*
X90604761Y-96294025D01*
X90604759Y-96294024D01*
X90604756Y-96294023D01*
X90456922Y-96215005D01*
X90327341Y-96108659D01*
X90220995Y-95979078D01*
X90141977Y-95831244D01*
X90128260Y-95786025D01*
X90093314Y-95670825D01*
X90093314Y-95670824D01*
X90093313Y-95670821D01*
X90076883Y-95504000D01*
X90093313Y-95337179D01*
X90093314Y-95337175D01*
X90141975Y-95176761D01*
X90141976Y-95176759D01*
X90141977Y-95176756D01*
X90220995Y-95028922D01*
X90327341Y-94899341D01*
X90456922Y-94792995D01*
X90604756Y-94713977D01*
X90604759Y-94713976D01*
X90604761Y-94713975D01*
X90765175Y-94665314D01*
X90765176Y-94665314D01*
X90765179Y-94665313D01*
X90890196Y-94653000D01*
X90973804Y-94653000D01*
X91098821Y-94665313D01*
X91098821Y-94665313D01*
G37*
G36*
X94146821Y-94665313D02*
X94146824Y-94665314D01*
X94146825Y-94665314D01*
X94307239Y-94713975D01*
X94307241Y-94713976D01*
X94307244Y-94713977D01*
X94455078Y-94792995D01*
X94584659Y-94899341D01*
X94691005Y-95028922D01*
X94770023Y-95176756D01*
X94770024Y-95176759D01*
X94770025Y-95176761D01*
X94818686Y-95337175D01*
X94818687Y-95337179D01*
X94835117Y-95504000D01*
X94818687Y-95670821D01*
X94818686Y-95670824D01*
X94818686Y-95670825D01*
X94783741Y-95786025D01*
X94770023Y-95831244D01*
X94691005Y-95979078D01*
X94584659Y-96108659D01*
X94455078Y-96215005D01*
X94307244Y-96294023D01*
X94307241Y-96294024D01*
X94307239Y-96294025D01*
X94146825Y-96342686D01*
X94146824Y-96342686D01*
X94146821Y-96342687D01*
X94021804Y-96355000D01*
X93938196Y-96355000D01*
X93813179Y-96342687D01*
X93813176Y-96342686D01*
X93813175Y-96342686D01*
X93652761Y-96294025D01*
X93652759Y-96294024D01*
X93652756Y-96294023D01*
X93504922Y-96215005D01*
X93375341Y-96108659D01*
X93268995Y-95979078D01*
X93189977Y-95831244D01*
X93176260Y-95786025D01*
X93141314Y-95670825D01*
X93141314Y-95670824D01*
X93141313Y-95670821D01*
X93124883Y-95504000D01*
X93141313Y-95337179D01*
X93141314Y-95337175D01*
X93189975Y-95176761D01*
X93189976Y-95176759D01*
X93189977Y-95176756D01*
X93268995Y-95028922D01*
X93375341Y-94899341D01*
X93504922Y-94792995D01*
X93652756Y-94713977D01*
X93652759Y-94713976D01*
X93652761Y-94713975D01*
X93813175Y-94665314D01*
X93813176Y-94665314D01*
X93813179Y-94665313D01*
X93938196Y-94653000D01*
X94021804Y-94653000D01*
X94146821Y-94665313D01*
X94146821Y-94665313D01*
G37*
G36*
X101766821Y-94665313D02*
X101766824Y-94665314D01*
X101766825Y-94665314D01*
X101927239Y-94713975D01*
X101927241Y-94713976D01*
X101927244Y-94713977D01*
X102075078Y-94792995D01*
X102204659Y-94899341D01*
X102311005Y-95028922D01*
X102390023Y-95176756D01*
X102390024Y-95176759D01*
X102390025Y-95176761D01*
X102438686Y-95337175D01*
X102438687Y-95337179D01*
X102455117Y-95504000D01*
X102438687Y-95670821D01*
X102438686Y-95670824D01*
X102438686Y-95670825D01*
X102403741Y-95786025D01*
X102390023Y-95831244D01*
X102311005Y-95979078D01*
X102204659Y-96108659D01*
X102075078Y-96215005D01*
X101927244Y-96294023D01*
X101927241Y-96294024D01*
X101927239Y-96294025D01*
X101766825Y-96342686D01*
X101766824Y-96342686D01*
X101766821Y-96342687D01*
X101641804Y-96355000D01*
X101558196Y-96355000D01*
X101433179Y-96342687D01*
X101433176Y-96342686D01*
X101433175Y-96342686D01*
X101272761Y-96294025D01*
X101272759Y-96294024D01*
X101272756Y-96294023D01*
X101124922Y-96215005D01*
X100995341Y-96108659D01*
X100888995Y-95979078D01*
X100809977Y-95831244D01*
X100796260Y-95786025D01*
X100761314Y-95670825D01*
X100761314Y-95670824D01*
X100761313Y-95670821D01*
X100744883Y-95504000D01*
X100761313Y-95337179D01*
X100761314Y-95337175D01*
X100809975Y-95176761D01*
X100809976Y-95176759D01*
X100809977Y-95176756D01*
X100888995Y-95028922D01*
X100995341Y-94899341D01*
X101124922Y-94792995D01*
X101272756Y-94713977D01*
X101272759Y-94713976D01*
X101272761Y-94713975D01*
X101433175Y-94665314D01*
X101433176Y-94665314D01*
X101433179Y-94665313D01*
X101558196Y-94653000D01*
X101641804Y-94653000D01*
X101766821Y-94665313D01*
X101766821Y-94665313D01*
G37*
G36*
X116498821Y-94157313D02*
X116498824Y-94157314D01*
X116498825Y-94157314D01*
X116659239Y-94205975D01*
X116659241Y-94205976D01*
X116659244Y-94205977D01*
X116807078Y-94284995D01*
X116936659Y-94391341D01*
X117043005Y-94520922D01*
X117122023Y-94668756D01*
X117122024Y-94668759D01*
X117122025Y-94668761D01*
X117166460Y-94815244D01*
X117170687Y-94829179D01*
X117187117Y-94996000D01*
X117170687Y-95162821D01*
X117170686Y-95162824D01*
X117170686Y-95162825D01*
X117127165Y-95306296D01*
X117122023Y-95323244D01*
X117043005Y-95471078D01*
X116936659Y-95600659D01*
X116807078Y-95707005D01*
X116659244Y-95786023D01*
X116659241Y-95786024D01*
X116659239Y-95786025D01*
X116498825Y-95834686D01*
X116498824Y-95834686D01*
X116498821Y-95834687D01*
X116373804Y-95847000D01*
X116290196Y-95847000D01*
X116165179Y-95834687D01*
X116165176Y-95834686D01*
X116165175Y-95834686D01*
X116004761Y-95786025D01*
X116004759Y-95786024D01*
X116004756Y-95786023D01*
X115856922Y-95707005D01*
X115727341Y-95600659D01*
X115620995Y-95471078D01*
X115541977Y-95323244D01*
X115536836Y-95306296D01*
X115493314Y-95162825D01*
X115493314Y-95162824D01*
X115493313Y-95162821D01*
X115476883Y-94996000D01*
X115493313Y-94829179D01*
X115497540Y-94815244D01*
X115541975Y-94668761D01*
X115541976Y-94668759D01*
X115541977Y-94668756D01*
X115620995Y-94520922D01*
X115727341Y-94391341D01*
X115856922Y-94284995D01*
X116004756Y-94205977D01*
X116004759Y-94205976D01*
X116004761Y-94205975D01*
X116165175Y-94157314D01*
X116165176Y-94157314D01*
X116165179Y-94157313D01*
X116290196Y-94145000D01*
X116373804Y-94145000D01*
X116498821Y-94157313D01*
X116498821Y-94157313D01*
G37*
G36*
X120054821Y-94157313D02*
X120054824Y-94157314D01*
X120054825Y-94157314D01*
X120215239Y-94205975D01*
X120215241Y-94205976D01*
X120215244Y-94205977D01*
X120363078Y-94284995D01*
X120492659Y-94391341D01*
X120599005Y-94520922D01*
X120678023Y-94668756D01*
X120678024Y-94668759D01*
X120678025Y-94668761D01*
X120722460Y-94815244D01*
X120726687Y-94829179D01*
X120743117Y-94996000D01*
X120726687Y-95162821D01*
X120726686Y-95162824D01*
X120726686Y-95162825D01*
X120683165Y-95306296D01*
X120678023Y-95323244D01*
X120599005Y-95471078D01*
X120492659Y-95600659D01*
X120363078Y-95707005D01*
X120215244Y-95786023D01*
X120215241Y-95786024D01*
X120215239Y-95786025D01*
X120054825Y-95834686D01*
X120054824Y-95834686D01*
X120054821Y-95834687D01*
X119929804Y-95847000D01*
X119846196Y-95847000D01*
X119721179Y-95834687D01*
X119721176Y-95834686D01*
X119721175Y-95834686D01*
X119560761Y-95786025D01*
X119560759Y-95786024D01*
X119560756Y-95786023D01*
X119412922Y-95707005D01*
X119283341Y-95600659D01*
X119176995Y-95471078D01*
X119097977Y-95323244D01*
X119092836Y-95306296D01*
X119049314Y-95162825D01*
X119049314Y-95162824D01*
X119049313Y-95162821D01*
X119032883Y-94996000D01*
X119049313Y-94829179D01*
X119053540Y-94815244D01*
X119097975Y-94668761D01*
X119097976Y-94668759D01*
X119097977Y-94668756D01*
X119176995Y-94520922D01*
X119283341Y-94391341D01*
X119412922Y-94284995D01*
X119560756Y-94205977D01*
X119560759Y-94205976D01*
X119560761Y-94205975D01*
X119721175Y-94157314D01*
X119721176Y-94157314D01*
X119721179Y-94157313D01*
X119846196Y-94145000D01*
X119929804Y-94145000D01*
X120054821Y-94157313D01*
X120054821Y-94157313D01*
G37*
G36*
X105830821Y-93649313D02*
X105830824Y-93649314D01*
X105830825Y-93649314D01*
X105991239Y-93697975D01*
X105991241Y-93697976D01*
X105991244Y-93697977D01*
X106139078Y-93776995D01*
X106268659Y-93883341D01*
X106375005Y-94012922D01*
X106454023Y-94160756D01*
X106454024Y-94160759D01*
X106454025Y-94160761D01*
X106502686Y-94321175D01*
X106502687Y-94321179D01*
X106519117Y-94488000D01*
X106502687Y-94654821D01*
X106502686Y-94654824D01*
X106502686Y-94654825D01*
X106460773Y-94792995D01*
X106454023Y-94815244D01*
X106375005Y-94963078D01*
X106268659Y-95092659D01*
X106139078Y-95199005D01*
X105991244Y-95278023D01*
X105991241Y-95278024D01*
X105991239Y-95278025D01*
X105830825Y-95326686D01*
X105830824Y-95326686D01*
X105830821Y-95326687D01*
X105705804Y-95339000D01*
X105622196Y-95339000D01*
X105497179Y-95326687D01*
X105497176Y-95326686D01*
X105497175Y-95326686D01*
X105336761Y-95278025D01*
X105336759Y-95278024D01*
X105336756Y-95278023D01*
X105188922Y-95199005D01*
X105059341Y-95092659D01*
X104952995Y-94963078D01*
X104873977Y-94815244D01*
X104867228Y-94792995D01*
X104825314Y-94654825D01*
X104825314Y-94654824D01*
X104825313Y-94654821D01*
X104808883Y-94488000D01*
X104825313Y-94321179D01*
X104825314Y-94321175D01*
X104873975Y-94160761D01*
X104873976Y-94160759D01*
X104873977Y-94160756D01*
X104952995Y-94012922D01*
X105059341Y-93883341D01*
X105188922Y-93776995D01*
X105336756Y-93697977D01*
X105336759Y-93697976D01*
X105336761Y-93697975D01*
X105497175Y-93649314D01*
X105497176Y-93649314D01*
X105497179Y-93649313D01*
X105622196Y-93637000D01*
X105705804Y-93637000D01*
X105830821Y-93649313D01*
X105830821Y-93649313D01*
G37*
G36*
X113532228Y-93669703D02*
X113687100Y-93733853D01*
X113826481Y-93826985D01*
X113945015Y-93945519D01*
X114038147Y-94084900D01*
X114102297Y-94239772D01*
X114135000Y-94404184D01*
X114135000Y-94571816D01*
X114102297Y-94736228D01*
X114038147Y-94891100D01*
X113945015Y-95030481D01*
X113826481Y-95149015D01*
X113687100Y-95242147D01*
X113532228Y-95306297D01*
X113367816Y-95339000D01*
X113200184Y-95339000D01*
X113035772Y-95306297D01*
X112880900Y-95242147D01*
X112741519Y-95149015D01*
X112622985Y-95030481D01*
X112529853Y-94891100D01*
X112465703Y-94736228D01*
X112433000Y-94571816D01*
X112433000Y-94404184D01*
X112465703Y-94239772D01*
X112529853Y-94084900D01*
X112622985Y-93945519D01*
X112741519Y-93826985D01*
X112880900Y-93733853D01*
X113035772Y-93669703D01*
X113200184Y-93637000D01*
X113367816Y-93637000D01*
X113532228Y-93669703D01*
X113532228Y-93669703D01*
G37*
G36*
X94146821Y-92125313D02*
X94146824Y-92125314D01*
X94146825Y-92125314D01*
X94307239Y-92173975D01*
X94307241Y-92173976D01*
X94307244Y-92173977D01*
X94455078Y-92252995D01*
X94584659Y-92359341D01*
X94691005Y-92488922D01*
X94770023Y-92636756D01*
X94818687Y-92797179D01*
X94835117Y-92964000D01*
X94818687Y-93130821D01*
X94770023Y-93291244D01*
X94691005Y-93439078D01*
X94584659Y-93568659D01*
X94455078Y-93675005D01*
X94307244Y-93754023D01*
X94307241Y-93754024D01*
X94307239Y-93754025D01*
X94146825Y-93802686D01*
X94146824Y-93802686D01*
X94146821Y-93802687D01*
X94021804Y-93815000D01*
X93938196Y-93815000D01*
X93813179Y-93802687D01*
X93813176Y-93802686D01*
X93813175Y-93802686D01*
X93652761Y-93754025D01*
X93652759Y-93754024D01*
X93652756Y-93754023D01*
X93504922Y-93675005D01*
X93375341Y-93568659D01*
X93268995Y-93439078D01*
X93189977Y-93291244D01*
X93141313Y-93130821D01*
X93124883Y-92964000D01*
X93141313Y-92797179D01*
X93189977Y-92636756D01*
X93268995Y-92488922D01*
X93375341Y-92359341D01*
X93504922Y-92252995D01*
X93652756Y-92173977D01*
X93652759Y-92173976D01*
X93652761Y-92173975D01*
X93813175Y-92125314D01*
X93813176Y-92125314D01*
X93813179Y-92125313D01*
X93938196Y-92113000D01*
X94021804Y-92113000D01*
X94146821Y-92125313D01*
X94146821Y-92125313D01*
G37*
G36*
X101766821Y-92125313D02*
X101766824Y-92125314D01*
X101766825Y-92125314D01*
X101927239Y-92173975D01*
X101927241Y-92173976D01*
X101927244Y-92173977D01*
X102075078Y-92252995D01*
X102204659Y-92359341D01*
X102311005Y-92488922D01*
X102390023Y-92636756D01*
X102438687Y-92797179D01*
X102455117Y-92964000D01*
X102438687Y-93130821D01*
X102390023Y-93291244D01*
X102311005Y-93439078D01*
X102204659Y-93568659D01*
X102075078Y-93675005D01*
X101927244Y-93754023D01*
X101927241Y-93754024D01*
X101927239Y-93754025D01*
X101766825Y-93802686D01*
X101766824Y-93802686D01*
X101766821Y-93802687D01*
X101641804Y-93815000D01*
X101558196Y-93815000D01*
X101433179Y-93802687D01*
X101433176Y-93802686D01*
X101433175Y-93802686D01*
X101272761Y-93754025D01*
X101272759Y-93754024D01*
X101272756Y-93754023D01*
X101124922Y-93675005D01*
X100995341Y-93568659D01*
X100888995Y-93439078D01*
X100809977Y-93291244D01*
X100761313Y-93130821D01*
X100744883Y-92964000D01*
X100761313Y-92797179D01*
X100809977Y-92636756D01*
X100888995Y-92488922D01*
X100995341Y-92359341D01*
X101124922Y-92252995D01*
X101272756Y-92173977D01*
X101272759Y-92173976D01*
X101272761Y-92173975D01*
X101433175Y-92125314D01*
X101433176Y-92125314D01*
X101433179Y-92125313D01*
X101558196Y-92113000D01*
X101641804Y-92113000D01*
X101766821Y-92125313D01*
X101766821Y-92125313D01*
G37*
G36*
X101766821Y-89585313D02*
X101766824Y-89585314D01*
X101766825Y-89585314D01*
X101927239Y-89633975D01*
X101927241Y-89633976D01*
X101927244Y-89633977D01*
X102075078Y-89712995D01*
X102204659Y-89819341D01*
X102311005Y-89948922D01*
X102390023Y-90096756D01*
X102438687Y-90257179D01*
X102455117Y-90424000D01*
X102438687Y-90590821D01*
X102390023Y-90751244D01*
X102311005Y-90899078D01*
X102204659Y-91028659D01*
X102075078Y-91135005D01*
X101927244Y-91214023D01*
X101927241Y-91214024D01*
X101927239Y-91214025D01*
X101766825Y-91262686D01*
X101766824Y-91262686D01*
X101766821Y-91262687D01*
X101641804Y-91275000D01*
X101558196Y-91275000D01*
X101433179Y-91262687D01*
X101433176Y-91262686D01*
X101433175Y-91262686D01*
X101272761Y-91214025D01*
X101272759Y-91214024D01*
X101272756Y-91214023D01*
X101124922Y-91135005D01*
X100995341Y-91028659D01*
X100888995Y-90899078D01*
X100809977Y-90751244D01*
X100761313Y-90590821D01*
X100744883Y-90424000D01*
X100761313Y-90257179D01*
X100809977Y-90096756D01*
X100888995Y-89948922D01*
X100995341Y-89819341D01*
X101124922Y-89712995D01*
X101272756Y-89633977D01*
X101272759Y-89633976D01*
X101272761Y-89633975D01*
X101433175Y-89585314D01*
X101433176Y-89585314D01*
X101433179Y-89585313D01*
X101558196Y-89573000D01*
X101641804Y-89573000D01*
X101766821Y-89585313D01*
X101766821Y-89585313D01*
G37*
G36*
X94146821Y-89585313D02*
X94146824Y-89585314D01*
X94146825Y-89585314D01*
X94307239Y-89633975D01*
X94307241Y-89633976D01*
X94307244Y-89633977D01*
X94455078Y-89712995D01*
X94584659Y-89819341D01*
X94691005Y-89948922D01*
X94770023Y-90096756D01*
X94818687Y-90257179D01*
X94835117Y-90424000D01*
X94818687Y-90590821D01*
X94770023Y-90751244D01*
X94691005Y-90899078D01*
X94584659Y-91028659D01*
X94455078Y-91135005D01*
X94307244Y-91214023D01*
X94307241Y-91214024D01*
X94307239Y-91214025D01*
X94146825Y-91262686D01*
X94146824Y-91262686D01*
X94146821Y-91262687D01*
X94021804Y-91275000D01*
X93938196Y-91275000D01*
X93813179Y-91262687D01*
X93813176Y-91262686D01*
X93813175Y-91262686D01*
X93652761Y-91214025D01*
X93652759Y-91214024D01*
X93652756Y-91214023D01*
X93504922Y-91135005D01*
X93375341Y-91028659D01*
X93268995Y-90899078D01*
X93189977Y-90751244D01*
X93141313Y-90590821D01*
X93124883Y-90424000D01*
X93141313Y-90257179D01*
X93189977Y-90096756D01*
X93268995Y-89948922D01*
X93375341Y-89819341D01*
X93504922Y-89712995D01*
X93652756Y-89633977D01*
X93652759Y-89633976D01*
X93652761Y-89633975D01*
X93813175Y-89585314D01*
X93813176Y-89585314D01*
X93813179Y-89585313D01*
X93938196Y-89573000D01*
X94021804Y-89573000D01*
X94146821Y-89585313D01*
X94146821Y-89585313D01*
G37*
G36*
X87559636Y-88677019D02*
X87740903Y-88713075D01*
X87968571Y-88807378D01*
X88063488Y-88870800D01*
X88173469Y-88944287D01*
X88347713Y-89118531D01*
X88347715Y-89118534D01*
X88484622Y-89323429D01*
X88578925Y-89551097D01*
X88627000Y-89792787D01*
X88627000Y-90039213D01*
X88578925Y-90280903D01*
X88484622Y-90508571D01*
X88413921Y-90614382D01*
X88347713Y-90713469D01*
X88173469Y-90887713D01*
X88173466Y-90887715D01*
X87968571Y-91024622D01*
X87740903Y-91118925D01*
X87590213Y-91148899D01*
X87499214Y-91167000D01*
X87252786Y-91167000D01*
X87161787Y-91148899D01*
X87011097Y-91118925D01*
X86783429Y-91024622D01*
X86578534Y-90887715D01*
X86578531Y-90887713D01*
X86404287Y-90713469D01*
X86338079Y-90614382D01*
X86267378Y-90508571D01*
X86173075Y-90280903D01*
X86125000Y-90039213D01*
X86125000Y-89792787D01*
X86173075Y-89551097D01*
X86267378Y-89323429D01*
X86404285Y-89118534D01*
X86404287Y-89118531D01*
X86578531Y-88944287D01*
X86688512Y-88870800D01*
X86783429Y-88807378D01*
X87011097Y-88713075D01*
X87192364Y-88677019D01*
X87252786Y-88665000D01*
X87499214Y-88665000D01*
X87559636Y-88677019D01*
X87559636Y-88677019D01*
G37*
G36*
X72381239Y-88683101D02*
X72617053Y-88754634D01*
X72834381Y-88870799D01*
X73024871Y-89027129D01*
X73181201Y-89217619D01*
X73297366Y-89434947D01*
X73368899Y-89670761D01*
X73393053Y-89916000D01*
X73368899Y-90161239D01*
X73297366Y-90397053D01*
X73181201Y-90614381D01*
X73024871Y-90804871D01*
X72834381Y-90961201D01*
X72617053Y-91077366D01*
X72381239Y-91148899D01*
X72197457Y-91167000D01*
X72074543Y-91167000D01*
X71890761Y-91148899D01*
X71654947Y-91077366D01*
X71437619Y-90961201D01*
X71247129Y-90804871D01*
X71090799Y-90614381D01*
X70974634Y-90397053D01*
X70903101Y-90161239D01*
X70878947Y-89916000D01*
X70903101Y-89670761D01*
X70974634Y-89434947D01*
X71090799Y-89217619D01*
X71247129Y-89027129D01*
X71437619Y-88870799D01*
X71654947Y-88754634D01*
X71890761Y-88683101D01*
X72074543Y-88665000D01*
X72197457Y-88665000D01*
X72381239Y-88683101D01*
X72381239Y-88683101D01*
G37*
G36*
X128409000Y-90118500D02*
X126607000Y-90118500D01*
X126607000Y-88316500D01*
X128409000Y-88316500D01*
X128409000Y-90118500D01*
X128409000Y-90118500D01*
G37*
G36*
X120136228Y-86557703D02*
X120291100Y-86621853D01*
X120430481Y-86714985D01*
X120549015Y-86833519D01*
X120642147Y-86972900D01*
X120706297Y-87127772D01*
X120739000Y-87292184D01*
X120739000Y-87459816D01*
X120706297Y-87624228D01*
X120642147Y-87779100D01*
X120549015Y-87918481D01*
X120430481Y-88037015D01*
X120291100Y-88130147D01*
X120136228Y-88194297D01*
X119971816Y-88227000D01*
X119804184Y-88227000D01*
X119639772Y-88194297D01*
X119484900Y-88130147D01*
X119345519Y-88037015D01*
X119226985Y-87918481D01*
X119133853Y-87779100D01*
X119069703Y-87624228D01*
X119037000Y-87459816D01*
X119037000Y-87292184D01*
X119069703Y-87127772D01*
X119133853Y-86972900D01*
X119226985Y-86833519D01*
X119345519Y-86714985D01*
X119484900Y-86621853D01*
X119639772Y-86557703D01*
X119804184Y-86525000D01*
X119971816Y-86525000D01*
X120136228Y-86557703D01*
X120136228Y-86557703D01*
G37*
G36*
X116580228Y-86557703D02*
X116735100Y-86621853D01*
X116874481Y-86714985D01*
X116993015Y-86833519D01*
X117086147Y-86972900D01*
X117150297Y-87127772D01*
X117183000Y-87292184D01*
X117183000Y-87459816D01*
X117150297Y-87624228D01*
X117086147Y-87779100D01*
X116993015Y-87918481D01*
X116874481Y-88037015D01*
X116735100Y-88130147D01*
X116580228Y-88194297D01*
X116415816Y-88227000D01*
X116248184Y-88227000D01*
X116083772Y-88194297D01*
X115928900Y-88130147D01*
X115789519Y-88037015D01*
X115670985Y-87918481D01*
X115577853Y-87779100D01*
X115513703Y-87624228D01*
X115481000Y-87459816D01*
X115481000Y-87292184D01*
X115513703Y-87127772D01*
X115577853Y-86972900D01*
X115670985Y-86833519D01*
X115789519Y-86714985D01*
X115928900Y-86621853D01*
X116083772Y-86557703D01*
X116248184Y-86525000D01*
X116415816Y-86525000D01*
X116580228Y-86557703D01*
X116580228Y-86557703D01*
G37*
M02*
