G04 #@! TF.GenerationSoftware,KiCad,Pcbnew,5.0.2-bee76a0~70~ubuntu18.04.1*
G04 #@! TF.CreationDate,2019-03-23T13:43:10-04:00*
G04 #@! TF.ProjectId,linemonitor,6c696e65-6d6f-46e6-9974-6f722e6b6963,rev?*
G04 #@! TF.SameCoordinates,Original*
G04 #@! TF.FileFunction,Copper,L1,Top*
G04 #@! TF.FilePolarity,Positive*
%FSLAX46Y46*%
G04 Gerber Fmt 4.6, Leading zero omitted, Abs format (unit mm)*
G04 Created by KiCad (PCBNEW 5.0.2-bee76a0~70~ubuntu18.04.1) date Sat 23 Mar 2019 01:43:10 PM EDT*
%MOMM*%
%LPD*%
G01*
G04 APERTURE LIST*
G04 #@! TA.AperFunction,ComponentPad*
%ADD10C,1.600000*%
G04 #@! TD*
G04 #@! TA.AperFunction,ComponentPad*
%ADD11C,2.400000*%
G04 #@! TD*
G04 #@! TA.AperFunction,ComponentPad*
%ADD12O,2.400000X2.400000*%
G04 #@! TD*
G04 #@! TA.AperFunction,ComponentPad*
%ADD13O,1.600000X1.600000*%
G04 #@! TD*
G04 #@! TA.AperFunction,Conductor*
%ADD14C,0.100000*%
G04 #@! TD*
G04 #@! TA.AperFunction,SMDPad,CuDef*
%ADD15C,0.600000*%
G04 #@! TD*
G04 #@! TA.AperFunction,ComponentPad*
%ADD16R,1.600000X1.600000*%
G04 #@! TD*
G04 #@! TA.AperFunction,ComponentPad*
%ADD17R,1.800000X1.800000*%
G04 #@! TD*
G04 #@! TA.AperFunction,ComponentPad*
%ADD18C,1.800000*%
G04 #@! TD*
G04 #@! TA.AperFunction,ComponentPad*
%ADD19R,1.700000X1.700000*%
G04 #@! TD*
G04 #@! TA.AperFunction,ComponentPad*
%ADD20O,1.700000X1.700000*%
G04 #@! TD*
G04 #@! TA.AperFunction,ViaPad*
%ADD21C,0.800000*%
G04 #@! TD*
G04 #@! TA.AperFunction,Conductor*
%ADD22C,0.250000*%
G04 #@! TD*
G04 APERTURE END LIST*
D10*
G04 #@! TO.P,C1,1*
G04 #@! TO.N,Net-(C1-Pad1)*
X116840000Y-110236000D03*
G04 #@! TO.P,C1,2*
G04 #@! TO.N,GNDREF*
X114340000Y-110236000D03*
G04 #@! TD*
D11*
G04 #@! TO.P,R1,1*
G04 #@! TO.N,Net-(R1-Pad1)*
X87376000Y-108712000D03*
D12*
G04 #@! TO.P,R1,2*
G04 #@! TO.N,Net-(J1-Pad2)*
X72136000Y-108712000D03*
G04 #@! TD*
G04 #@! TO.P,R2,2*
G04 #@! TO.N,Net-(R1-Pad1)*
X72136000Y-103124000D03*
D11*
G04 #@! TO.P,R2,1*
G04 #@! TO.N,Net-(R2-Pad1)*
X87376000Y-103124000D03*
G04 #@! TD*
G04 #@! TO.P,R3,1*
G04 #@! TO.N,Net-(R3-Pad1)*
X87376000Y-89916000D03*
D12*
G04 #@! TO.P,R3,2*
G04 #@! TO.N,Net-(J1-Pad1)*
X72136000Y-89916000D03*
G04 #@! TD*
G04 #@! TO.P,R4,2*
G04 #@! TO.N,Net-(R3-Pad1)*
X72136000Y-95504000D03*
D11*
G04 #@! TO.P,R4,1*
G04 #@! TO.N,Net-(R4-Pad1)*
X87376000Y-95504000D03*
G04 #@! TD*
D10*
G04 #@! TO.P,R5,1*
G04 #@! TO.N,Net-(R2-Pad1)*
X90932000Y-103124000D03*
D13*
G04 #@! TO.P,R5,2*
G04 #@! TO.N,Net-(R4-Pad1)*
X90932000Y-95504000D03*
G04 #@! TD*
G04 #@! TO.P,R6,2*
G04 #@! TO.N,Net-(R6-Pad2)*
X106172000Y-98552000D03*
D10*
G04 #@! TO.P,R6,1*
G04 #@! TO.N,Net-(C1-Pad1)*
X106172000Y-106172000D03*
G04 #@! TD*
G04 #@! TO.P,R7,1*
G04 #@! TO.N,Net-(R7-Pad1)*
X119888000Y-87376000D03*
D13*
G04 #@! TO.P,R7,2*
G04 #@! TO.N,GNDREF*
X119888000Y-94996000D03*
G04 #@! TD*
G04 #@! TO.P,R8,2*
G04 #@! TO.N,Net-(R11-Pad1)*
X109728000Y-106172000D03*
D10*
G04 #@! TO.P,R8,1*
G04 #@! TO.N,Net-(R6-Pad2)*
X109728000Y-98552000D03*
G04 #@! TD*
G04 #@! TO.P,R9,1*
G04 #@! TO.N,Net-(R7-Pad1)*
X116332000Y-87376000D03*
D13*
G04 #@! TO.P,R9,2*
G04 #@! TO.N,Net-(R12-Pad2)*
X116332000Y-94996000D03*
G04 #@! TD*
G04 #@! TO.P,R10,2*
G04 #@! TO.N,GNDREF*
X93980000Y-110236000D03*
D10*
G04 #@! TO.P,R10,1*
G04 #@! TO.N,Net-(R10-Pad1)*
X101600000Y-110236000D03*
G04 #@! TD*
D13*
G04 #@! TO.P,R11,2*
G04 #@! TO.N,Net-(R10-Pad1)*
X104140000Y-110236000D03*
D10*
G04 #@! TO.P,R11,1*
G04 #@! TO.N,Net-(R11-Pad1)*
X111760000Y-110236000D03*
G04 #@! TD*
G04 #@! TO.P,R12,1*
G04 #@! TO.N,Net-(R12-Pad1)*
X116840000Y-106172000D03*
D13*
G04 #@! TO.P,R12,2*
G04 #@! TO.N,Net-(R12-Pad2)*
X116840000Y-98552000D03*
G04 #@! TD*
G04 #@! TO.P,R15,2*
G04 #@! TO.N,+3V3*
X105664000Y-94488000D03*
D10*
G04 #@! TO.P,R15,1*
G04 #@! TO.N,Net-(C1-Pad1)*
X113284000Y-94488000D03*
G04 #@! TD*
G04 #@! TO.P,R17,1*
G04 #@! TO.N,Net-(C1-Pad1)*
X113284000Y-106172000D03*
D13*
G04 #@! TO.P,R17,2*
G04 #@! TO.N,Net-(R12-Pad1)*
X113284000Y-98552000D03*
G04 #@! TD*
D14*
G04 #@! TO.N,+3V3*
G04 #@! TO.C,U1*
G36*
X106036703Y-87584722D02*
X106051264Y-87586882D01*
X106065543Y-87590459D01*
X106079403Y-87595418D01*
X106092710Y-87601712D01*
X106105336Y-87609280D01*
X106117159Y-87618048D01*
X106128066Y-87627934D01*
X106137952Y-87638841D01*
X106146720Y-87650664D01*
X106154288Y-87663290D01*
X106160582Y-87676597D01*
X106165541Y-87690457D01*
X106169118Y-87704736D01*
X106171278Y-87719297D01*
X106172000Y-87734000D01*
X106172000Y-88034000D01*
X106171278Y-88048703D01*
X106169118Y-88063264D01*
X106165541Y-88077543D01*
X106160582Y-88091403D01*
X106154288Y-88104710D01*
X106146720Y-88117336D01*
X106137952Y-88129159D01*
X106128066Y-88140066D01*
X106117159Y-88149952D01*
X106105336Y-88158720D01*
X106092710Y-88166288D01*
X106079403Y-88172582D01*
X106065543Y-88177541D01*
X106051264Y-88181118D01*
X106036703Y-88183278D01*
X106022000Y-88184000D01*
X104798000Y-88184000D01*
X104783297Y-88183278D01*
X104768736Y-88181118D01*
X104754457Y-88177541D01*
X104740597Y-88172582D01*
X104727290Y-88166288D01*
X104714664Y-88158720D01*
X104702841Y-88149952D01*
X104691934Y-88140066D01*
X104682048Y-88129159D01*
X104673280Y-88117336D01*
X104665712Y-88104710D01*
X104659418Y-88091403D01*
X104654459Y-88077543D01*
X104650882Y-88063264D01*
X104648722Y-88048703D01*
X104648000Y-88034000D01*
X104648000Y-87734000D01*
X104648722Y-87719297D01*
X104650882Y-87704736D01*
X104654459Y-87690457D01*
X104659418Y-87676597D01*
X104665712Y-87663290D01*
X104673280Y-87650664D01*
X104682048Y-87638841D01*
X104691934Y-87627934D01*
X104702841Y-87618048D01*
X104714664Y-87609280D01*
X104727290Y-87601712D01*
X104740597Y-87595418D01*
X104754457Y-87590459D01*
X104768736Y-87586882D01*
X104783297Y-87584722D01*
X104798000Y-87584000D01*
X106022000Y-87584000D01*
X106036703Y-87584722D01*
X106036703Y-87584722D01*
G37*
D15*
G04 #@! TD*
G04 #@! TO.P,U1,1*
G04 #@! TO.N,+3V3*
X105410000Y-87884000D03*
D14*
G04 #@! TO.N,Net-(U1-Pad2)*
G04 #@! TO.C,U1*
G36*
X106036703Y-88854722D02*
X106051264Y-88856882D01*
X106065543Y-88860459D01*
X106079403Y-88865418D01*
X106092710Y-88871712D01*
X106105336Y-88879280D01*
X106117159Y-88888048D01*
X106128066Y-88897934D01*
X106137952Y-88908841D01*
X106146720Y-88920664D01*
X106154288Y-88933290D01*
X106160582Y-88946597D01*
X106165541Y-88960457D01*
X106169118Y-88974736D01*
X106171278Y-88989297D01*
X106172000Y-89004000D01*
X106172000Y-89304000D01*
X106171278Y-89318703D01*
X106169118Y-89333264D01*
X106165541Y-89347543D01*
X106160582Y-89361403D01*
X106154288Y-89374710D01*
X106146720Y-89387336D01*
X106137952Y-89399159D01*
X106128066Y-89410066D01*
X106117159Y-89419952D01*
X106105336Y-89428720D01*
X106092710Y-89436288D01*
X106079403Y-89442582D01*
X106065543Y-89447541D01*
X106051264Y-89451118D01*
X106036703Y-89453278D01*
X106022000Y-89454000D01*
X104798000Y-89454000D01*
X104783297Y-89453278D01*
X104768736Y-89451118D01*
X104754457Y-89447541D01*
X104740597Y-89442582D01*
X104727290Y-89436288D01*
X104714664Y-89428720D01*
X104702841Y-89419952D01*
X104691934Y-89410066D01*
X104682048Y-89399159D01*
X104673280Y-89387336D01*
X104665712Y-89374710D01*
X104659418Y-89361403D01*
X104654459Y-89347543D01*
X104650882Y-89333264D01*
X104648722Y-89318703D01*
X104648000Y-89304000D01*
X104648000Y-89004000D01*
X104648722Y-88989297D01*
X104650882Y-88974736D01*
X104654459Y-88960457D01*
X104659418Y-88946597D01*
X104665712Y-88933290D01*
X104673280Y-88920664D01*
X104682048Y-88908841D01*
X104691934Y-88897934D01*
X104702841Y-88888048D01*
X104714664Y-88879280D01*
X104727290Y-88871712D01*
X104740597Y-88865418D01*
X104754457Y-88860459D01*
X104768736Y-88856882D01*
X104783297Y-88854722D01*
X104798000Y-88854000D01*
X106022000Y-88854000D01*
X106036703Y-88854722D01*
X106036703Y-88854722D01*
G37*
D15*
G04 #@! TD*
G04 #@! TO.P,U1,2*
G04 #@! TO.N,Net-(U1-Pad2)*
X105410000Y-89154000D03*
D14*
G04 #@! TO.N,GNDREF*
G04 #@! TO.C,U1*
G36*
X106036703Y-90124722D02*
X106051264Y-90126882D01*
X106065543Y-90130459D01*
X106079403Y-90135418D01*
X106092710Y-90141712D01*
X106105336Y-90149280D01*
X106117159Y-90158048D01*
X106128066Y-90167934D01*
X106137952Y-90178841D01*
X106146720Y-90190664D01*
X106154288Y-90203290D01*
X106160582Y-90216597D01*
X106165541Y-90230457D01*
X106169118Y-90244736D01*
X106171278Y-90259297D01*
X106172000Y-90274000D01*
X106172000Y-90574000D01*
X106171278Y-90588703D01*
X106169118Y-90603264D01*
X106165541Y-90617543D01*
X106160582Y-90631403D01*
X106154288Y-90644710D01*
X106146720Y-90657336D01*
X106137952Y-90669159D01*
X106128066Y-90680066D01*
X106117159Y-90689952D01*
X106105336Y-90698720D01*
X106092710Y-90706288D01*
X106079403Y-90712582D01*
X106065543Y-90717541D01*
X106051264Y-90721118D01*
X106036703Y-90723278D01*
X106022000Y-90724000D01*
X104798000Y-90724000D01*
X104783297Y-90723278D01*
X104768736Y-90721118D01*
X104754457Y-90717541D01*
X104740597Y-90712582D01*
X104727290Y-90706288D01*
X104714664Y-90698720D01*
X104702841Y-90689952D01*
X104691934Y-90680066D01*
X104682048Y-90669159D01*
X104673280Y-90657336D01*
X104665712Y-90644710D01*
X104659418Y-90631403D01*
X104654459Y-90617543D01*
X104650882Y-90603264D01*
X104648722Y-90588703D01*
X104648000Y-90574000D01*
X104648000Y-90274000D01*
X104648722Y-90259297D01*
X104650882Y-90244736D01*
X104654459Y-90230457D01*
X104659418Y-90216597D01*
X104665712Y-90203290D01*
X104673280Y-90190664D01*
X104682048Y-90178841D01*
X104691934Y-90167934D01*
X104702841Y-90158048D01*
X104714664Y-90149280D01*
X104727290Y-90141712D01*
X104740597Y-90135418D01*
X104754457Y-90130459D01*
X104768736Y-90126882D01*
X104783297Y-90124722D01*
X104798000Y-90124000D01*
X106022000Y-90124000D01*
X106036703Y-90124722D01*
X106036703Y-90124722D01*
G37*
D15*
G04 #@! TD*
G04 #@! TO.P,U1,3*
G04 #@! TO.N,GNDREF*
X105410000Y-90424000D03*
D14*
G04 #@! TO.N,Net-(R11-Pad1)*
G04 #@! TO.C,U1*
G36*
X106036703Y-91394722D02*
X106051264Y-91396882D01*
X106065543Y-91400459D01*
X106079403Y-91405418D01*
X106092710Y-91411712D01*
X106105336Y-91419280D01*
X106117159Y-91428048D01*
X106128066Y-91437934D01*
X106137952Y-91448841D01*
X106146720Y-91460664D01*
X106154288Y-91473290D01*
X106160582Y-91486597D01*
X106165541Y-91500457D01*
X106169118Y-91514736D01*
X106171278Y-91529297D01*
X106172000Y-91544000D01*
X106172000Y-91844000D01*
X106171278Y-91858703D01*
X106169118Y-91873264D01*
X106165541Y-91887543D01*
X106160582Y-91901403D01*
X106154288Y-91914710D01*
X106146720Y-91927336D01*
X106137952Y-91939159D01*
X106128066Y-91950066D01*
X106117159Y-91959952D01*
X106105336Y-91968720D01*
X106092710Y-91976288D01*
X106079403Y-91982582D01*
X106065543Y-91987541D01*
X106051264Y-91991118D01*
X106036703Y-91993278D01*
X106022000Y-91994000D01*
X104798000Y-91994000D01*
X104783297Y-91993278D01*
X104768736Y-91991118D01*
X104754457Y-91987541D01*
X104740597Y-91982582D01*
X104727290Y-91976288D01*
X104714664Y-91968720D01*
X104702841Y-91959952D01*
X104691934Y-91950066D01*
X104682048Y-91939159D01*
X104673280Y-91927336D01*
X104665712Y-91914710D01*
X104659418Y-91901403D01*
X104654459Y-91887543D01*
X104650882Y-91873264D01*
X104648722Y-91858703D01*
X104648000Y-91844000D01*
X104648000Y-91544000D01*
X104648722Y-91529297D01*
X104650882Y-91514736D01*
X104654459Y-91500457D01*
X104659418Y-91486597D01*
X104665712Y-91473290D01*
X104673280Y-91460664D01*
X104682048Y-91448841D01*
X104691934Y-91437934D01*
X104702841Y-91428048D01*
X104714664Y-91419280D01*
X104727290Y-91411712D01*
X104740597Y-91405418D01*
X104754457Y-91400459D01*
X104768736Y-91396882D01*
X104783297Y-91394722D01*
X104798000Y-91394000D01*
X106022000Y-91394000D01*
X106036703Y-91394722D01*
X106036703Y-91394722D01*
G37*
D15*
G04 #@! TD*
G04 #@! TO.P,U1,4*
G04 #@! TO.N,Net-(R11-Pad1)*
X105410000Y-91694000D03*
D14*
G04 #@! TO.N,Net-(R12-Pad2)*
G04 #@! TO.C,U1*
G36*
X111446703Y-91394722D02*
X111461264Y-91396882D01*
X111475543Y-91400459D01*
X111489403Y-91405418D01*
X111502710Y-91411712D01*
X111515336Y-91419280D01*
X111527159Y-91428048D01*
X111538066Y-91437934D01*
X111547952Y-91448841D01*
X111556720Y-91460664D01*
X111564288Y-91473290D01*
X111570582Y-91486597D01*
X111575541Y-91500457D01*
X111579118Y-91514736D01*
X111581278Y-91529297D01*
X111582000Y-91544000D01*
X111582000Y-91844000D01*
X111581278Y-91858703D01*
X111579118Y-91873264D01*
X111575541Y-91887543D01*
X111570582Y-91901403D01*
X111564288Y-91914710D01*
X111556720Y-91927336D01*
X111547952Y-91939159D01*
X111538066Y-91950066D01*
X111527159Y-91959952D01*
X111515336Y-91968720D01*
X111502710Y-91976288D01*
X111489403Y-91982582D01*
X111475543Y-91987541D01*
X111461264Y-91991118D01*
X111446703Y-91993278D01*
X111432000Y-91994000D01*
X110208000Y-91994000D01*
X110193297Y-91993278D01*
X110178736Y-91991118D01*
X110164457Y-91987541D01*
X110150597Y-91982582D01*
X110137290Y-91976288D01*
X110124664Y-91968720D01*
X110112841Y-91959952D01*
X110101934Y-91950066D01*
X110092048Y-91939159D01*
X110083280Y-91927336D01*
X110075712Y-91914710D01*
X110069418Y-91901403D01*
X110064459Y-91887543D01*
X110060882Y-91873264D01*
X110058722Y-91858703D01*
X110058000Y-91844000D01*
X110058000Y-91544000D01*
X110058722Y-91529297D01*
X110060882Y-91514736D01*
X110064459Y-91500457D01*
X110069418Y-91486597D01*
X110075712Y-91473290D01*
X110083280Y-91460664D01*
X110092048Y-91448841D01*
X110101934Y-91437934D01*
X110112841Y-91428048D01*
X110124664Y-91419280D01*
X110137290Y-91411712D01*
X110150597Y-91405418D01*
X110164457Y-91400459D01*
X110178736Y-91396882D01*
X110193297Y-91394722D01*
X110208000Y-91394000D01*
X111432000Y-91394000D01*
X111446703Y-91394722D01*
X111446703Y-91394722D01*
G37*
D15*
G04 #@! TD*
G04 #@! TO.P,U1,5*
G04 #@! TO.N,Net-(R12-Pad2)*
X110820000Y-91694000D03*
D14*
G04 #@! TO.N,Net-(R2-Pad1)*
G04 #@! TO.C,U1*
G36*
X111446703Y-90124722D02*
X111461264Y-90126882D01*
X111475543Y-90130459D01*
X111489403Y-90135418D01*
X111502710Y-90141712D01*
X111515336Y-90149280D01*
X111527159Y-90158048D01*
X111538066Y-90167934D01*
X111547952Y-90178841D01*
X111556720Y-90190664D01*
X111564288Y-90203290D01*
X111570582Y-90216597D01*
X111575541Y-90230457D01*
X111579118Y-90244736D01*
X111581278Y-90259297D01*
X111582000Y-90274000D01*
X111582000Y-90574000D01*
X111581278Y-90588703D01*
X111579118Y-90603264D01*
X111575541Y-90617543D01*
X111570582Y-90631403D01*
X111564288Y-90644710D01*
X111556720Y-90657336D01*
X111547952Y-90669159D01*
X111538066Y-90680066D01*
X111527159Y-90689952D01*
X111515336Y-90698720D01*
X111502710Y-90706288D01*
X111489403Y-90712582D01*
X111475543Y-90717541D01*
X111461264Y-90721118D01*
X111446703Y-90723278D01*
X111432000Y-90724000D01*
X110208000Y-90724000D01*
X110193297Y-90723278D01*
X110178736Y-90721118D01*
X110164457Y-90717541D01*
X110150597Y-90712582D01*
X110137290Y-90706288D01*
X110124664Y-90698720D01*
X110112841Y-90689952D01*
X110101934Y-90680066D01*
X110092048Y-90669159D01*
X110083280Y-90657336D01*
X110075712Y-90644710D01*
X110069418Y-90631403D01*
X110064459Y-90617543D01*
X110060882Y-90603264D01*
X110058722Y-90588703D01*
X110058000Y-90574000D01*
X110058000Y-90274000D01*
X110058722Y-90259297D01*
X110060882Y-90244736D01*
X110064459Y-90230457D01*
X110069418Y-90216597D01*
X110075712Y-90203290D01*
X110083280Y-90190664D01*
X110092048Y-90178841D01*
X110101934Y-90167934D01*
X110112841Y-90158048D01*
X110124664Y-90149280D01*
X110137290Y-90141712D01*
X110150597Y-90135418D01*
X110164457Y-90130459D01*
X110178736Y-90126882D01*
X110193297Y-90124722D01*
X110208000Y-90124000D01*
X111432000Y-90124000D01*
X111446703Y-90124722D01*
X111446703Y-90124722D01*
G37*
D15*
G04 #@! TD*
G04 #@! TO.P,U1,6*
G04 #@! TO.N,Net-(R2-Pad1)*
X110820000Y-90424000D03*
D14*
G04 #@! TO.N,Net-(R4-Pad1)*
G04 #@! TO.C,U1*
G36*
X111446703Y-88854722D02*
X111461264Y-88856882D01*
X111475543Y-88860459D01*
X111489403Y-88865418D01*
X111502710Y-88871712D01*
X111515336Y-88879280D01*
X111527159Y-88888048D01*
X111538066Y-88897934D01*
X111547952Y-88908841D01*
X111556720Y-88920664D01*
X111564288Y-88933290D01*
X111570582Y-88946597D01*
X111575541Y-88960457D01*
X111579118Y-88974736D01*
X111581278Y-88989297D01*
X111582000Y-89004000D01*
X111582000Y-89304000D01*
X111581278Y-89318703D01*
X111579118Y-89333264D01*
X111575541Y-89347543D01*
X111570582Y-89361403D01*
X111564288Y-89374710D01*
X111556720Y-89387336D01*
X111547952Y-89399159D01*
X111538066Y-89410066D01*
X111527159Y-89419952D01*
X111515336Y-89428720D01*
X111502710Y-89436288D01*
X111489403Y-89442582D01*
X111475543Y-89447541D01*
X111461264Y-89451118D01*
X111446703Y-89453278D01*
X111432000Y-89454000D01*
X110208000Y-89454000D01*
X110193297Y-89453278D01*
X110178736Y-89451118D01*
X110164457Y-89447541D01*
X110150597Y-89442582D01*
X110137290Y-89436288D01*
X110124664Y-89428720D01*
X110112841Y-89419952D01*
X110101934Y-89410066D01*
X110092048Y-89399159D01*
X110083280Y-89387336D01*
X110075712Y-89374710D01*
X110069418Y-89361403D01*
X110064459Y-89347543D01*
X110060882Y-89333264D01*
X110058722Y-89318703D01*
X110058000Y-89304000D01*
X110058000Y-89004000D01*
X110058722Y-88989297D01*
X110060882Y-88974736D01*
X110064459Y-88960457D01*
X110069418Y-88946597D01*
X110075712Y-88933290D01*
X110083280Y-88920664D01*
X110092048Y-88908841D01*
X110101934Y-88897934D01*
X110112841Y-88888048D01*
X110124664Y-88879280D01*
X110137290Y-88871712D01*
X110150597Y-88865418D01*
X110164457Y-88860459D01*
X110178736Y-88856882D01*
X110193297Y-88854722D01*
X110208000Y-88854000D01*
X111432000Y-88854000D01*
X111446703Y-88854722D01*
X111446703Y-88854722D01*
G37*
D15*
G04 #@! TD*
G04 #@! TO.P,U1,7*
G04 #@! TO.N,Net-(R4-Pad1)*
X110820000Y-89154000D03*
D14*
G04 #@! TO.N,GNDREF*
G04 #@! TO.C,U1*
G36*
X111446703Y-87584722D02*
X111461264Y-87586882D01*
X111475543Y-87590459D01*
X111489403Y-87595418D01*
X111502710Y-87601712D01*
X111515336Y-87609280D01*
X111527159Y-87618048D01*
X111538066Y-87627934D01*
X111547952Y-87638841D01*
X111556720Y-87650664D01*
X111564288Y-87663290D01*
X111570582Y-87676597D01*
X111575541Y-87690457D01*
X111579118Y-87704736D01*
X111581278Y-87719297D01*
X111582000Y-87734000D01*
X111582000Y-88034000D01*
X111581278Y-88048703D01*
X111579118Y-88063264D01*
X111575541Y-88077543D01*
X111570582Y-88091403D01*
X111564288Y-88104710D01*
X111556720Y-88117336D01*
X111547952Y-88129159D01*
X111538066Y-88140066D01*
X111527159Y-88149952D01*
X111515336Y-88158720D01*
X111502710Y-88166288D01*
X111489403Y-88172582D01*
X111475543Y-88177541D01*
X111461264Y-88181118D01*
X111446703Y-88183278D01*
X111432000Y-88184000D01*
X110208000Y-88184000D01*
X110193297Y-88183278D01*
X110178736Y-88181118D01*
X110164457Y-88177541D01*
X110150597Y-88172582D01*
X110137290Y-88166288D01*
X110124664Y-88158720D01*
X110112841Y-88149952D01*
X110101934Y-88140066D01*
X110092048Y-88129159D01*
X110083280Y-88117336D01*
X110075712Y-88104710D01*
X110069418Y-88091403D01*
X110064459Y-88077543D01*
X110060882Y-88063264D01*
X110058722Y-88048703D01*
X110058000Y-88034000D01*
X110058000Y-87734000D01*
X110058722Y-87719297D01*
X110060882Y-87704736D01*
X110064459Y-87690457D01*
X110069418Y-87676597D01*
X110075712Y-87663290D01*
X110083280Y-87650664D01*
X110092048Y-87638841D01*
X110101934Y-87627934D01*
X110112841Y-87618048D01*
X110124664Y-87609280D01*
X110137290Y-87601712D01*
X110150597Y-87595418D01*
X110164457Y-87590459D01*
X110178736Y-87586882D01*
X110193297Y-87584722D01*
X110208000Y-87584000D01*
X111432000Y-87584000D01*
X111446703Y-87584722D01*
X111446703Y-87584722D01*
G37*
D15*
G04 #@! TD*
G04 #@! TO.P,U1,8*
G04 #@! TO.N,GNDREF*
X110820000Y-87884000D03*
D16*
G04 #@! TO.P,U2,1*
G04 #@! TO.N,Net-(C1-Pad1)*
X101600000Y-105664000D03*
D13*
G04 #@! TO.P,U2,8*
G04 #@! TO.N,N/C*
X93980000Y-90424000D03*
G04 #@! TO.P,U2,2*
G04 #@! TO.N,Net-(C1-Pad1)*
X101600000Y-103124000D03*
G04 #@! TO.P,U2,9*
G04 #@! TO.N,N/C*
X93980000Y-92964000D03*
G04 #@! TO.P,U2,3*
G04 #@! TO.N,+3V3*
X101600000Y-100584000D03*
G04 #@! TO.P,U2,10*
G04 #@! TO.N,N/C*
X93980000Y-95504000D03*
G04 #@! TO.P,U2,4*
G04 #@! TO.N,Net-(R10-Pad1)*
X101600000Y-98044000D03*
G04 #@! TO.P,U2,11*
G04 #@! TO.N,N/C*
X93980000Y-98044000D03*
G04 #@! TO.P,U2,5*
G04 #@! TO.N,Net-(R12-Pad1)*
X101600000Y-95504000D03*
G04 #@! TO.P,U2,12*
G04 #@! TO.N,GNDREF*
X93980000Y-100584000D03*
G04 #@! TO.P,U2,6*
G04 #@! TO.N,Net-(R7-Pad1)*
X101600000Y-92964000D03*
G04 #@! TO.P,U2,13*
G04 #@! TO.N,N/C*
X93980000Y-103124000D03*
G04 #@! TO.P,U2,7*
G04 #@! TO.N,Net-(R6-Pad2)*
X101600000Y-90424000D03*
G04 #@! TO.P,U2,14*
G04 #@! TO.N,N/C*
X93980000Y-105664000D03*
G04 #@! TD*
D17*
G04 #@! TO.P,D1,1*
G04 #@! TO.N,GNDREF*
X123444000Y-104140000D03*
D18*
G04 #@! TO.P,D1,2*
G04 #@! TO.N,Net-(D1-Pad2)*
X120904000Y-104140000D03*
G04 #@! TD*
D10*
G04 #@! TO.P,R99,1*
G04 #@! TO.N,Net-(C1-Pad1)*
X119380000Y-110236000D03*
D13*
G04 #@! TO.P,R99,2*
G04 #@! TO.N,Net-(D1-Pad2)*
X127000000Y-110236000D03*
G04 #@! TD*
D19*
G04 #@! TO.P,J2,1*
G04 #@! TO.N,Net-(C1-Pad1)*
X127508000Y-89217500D03*
G04 #@! TD*
G04 #@! TO.P,J1,1*
G04 #@! TO.N,Net-(J1-Pad1)*
X68580000Y-98044000D03*
D20*
G04 #@! TO.P,J1,2*
G04 #@! TO.N,Net-(J1-Pad2)*
X68580000Y-100584000D03*
G04 #@! TD*
G04 #@! TO.P,J3,2*
G04 #@! TO.N,GNDREF*
X127508000Y-99123500D03*
D19*
G04 #@! TO.P,J3,1*
G04 #@! TO.N,+3V3*
X127508000Y-96583500D03*
G04 #@! TD*
D21*
G04 #@! TO.N,GNDREF*
X106680000Y-90170000D03*
X109220000Y-91440000D03*
X109220000Y-93980000D03*
X106680000Y-109855000D03*
X98425000Y-109855000D03*
X113030000Y-87884000D03*
X116332000Y-89852500D03*
G04 #@! TD*
D22*
G04 #@! TO.N,GNDREF*
X106426000Y-90424000D02*
X106680000Y-90170000D01*
X105410000Y-90424000D02*
X106426000Y-90424000D01*
X105410000Y-108585000D02*
X106680000Y-109855000D01*
X98425000Y-109855000D02*
X99695000Y-108585000D01*
X99695000Y-108585000D02*
X105410000Y-108585000D01*
X113030000Y-87884000D02*
X110820000Y-87884000D01*
X114998500Y-89852500D02*
X116332000Y-89852500D01*
X113030000Y-87884000D02*
X114998500Y-89852500D01*
X109220000Y-92005685D02*
X109220000Y-93980000D01*
X109220000Y-91440000D02*
X109220000Y-92005685D01*
G04 #@! TO.N,Net-(R1-Pad1)*
X77724000Y-108712000D02*
X87376000Y-108712000D01*
X72136000Y-103124000D02*
X77724000Y-108712000D01*
G04 #@! TO.N,Net-(R2-Pad1)*
X87376000Y-103124000D02*
X90932000Y-103124000D01*
X108839000Y-90424000D02*
X110820000Y-90424000D01*
X108400009Y-89985009D02*
X108839000Y-90424000D01*
X92075000Y-101981000D02*
X92075000Y-87630000D01*
X90932000Y-103124000D02*
X92075000Y-101981000D01*
X92075000Y-87630000D02*
X92710000Y-86995000D01*
X92710000Y-86995000D02*
X107316410Y-86995000D01*
X107316410Y-86995000D02*
X108400009Y-88078599D01*
X108400009Y-88078599D02*
X108400009Y-89985009D01*
G04 #@! TO.N,Net-(R3-Pad1)*
X81788000Y-95504000D02*
X72136000Y-95504000D01*
X87376000Y-89916000D02*
X81788000Y-95504000D01*
G04 #@! TO.N,Net-(R4-Pad1)*
X87376000Y-95504000D02*
X90932000Y-95504000D01*
X108850019Y-89154000D02*
X110820000Y-89154000D01*
X108850019Y-87892199D02*
X108850019Y-89154000D01*
X107444820Y-86487000D02*
X108850019Y-87892199D01*
X92202000Y-86487000D02*
X107444820Y-86487000D01*
X90932000Y-95504000D02*
X90932000Y-87757000D01*
X90932000Y-87757000D02*
X92202000Y-86487000D01*
G04 #@! TO.N,Net-(R6-Pad2)*
X107303370Y-98552000D02*
X109728000Y-98552000D01*
X106172000Y-98552000D02*
X107303370Y-98552000D01*
X105040630Y-98552000D02*
X106172000Y-98552000D01*
X99695000Y-92075000D02*
X99695000Y-97804002D01*
X101346000Y-90424000D02*
X99695000Y-92075000D01*
X104423629Y-99169001D02*
X105040630Y-98552000D01*
X101600000Y-90424000D02*
X101346000Y-90424000D01*
X99695000Y-97804002D02*
X101059999Y-99169001D01*
X101059999Y-99169001D02*
X104423629Y-99169001D01*
G04 #@! TO.N,Net-(R7-Pad1)*
X118756630Y-87376000D02*
X116332000Y-87376000D01*
X119888000Y-87376000D02*
X118756630Y-87376000D01*
G04 #@! TO.N,Net-(R11-Pad1)*
X109728000Y-108204000D02*
X111760000Y-110236000D01*
X99060000Y-88265000D02*
X99060000Y-107950000D01*
X109728000Y-107950000D02*
X109728000Y-108204000D01*
X109728000Y-106172000D02*
X109728000Y-107950000D01*
X103505000Y-88265000D02*
X99060000Y-88265000D01*
X99060000Y-107950000D02*
X109728000Y-107950000D01*
X105410000Y-91694000D02*
X104394000Y-91694000D01*
X104394000Y-91694000D02*
X103505000Y-90805000D01*
X103505000Y-90805000D02*
X103505000Y-88265000D01*
G04 #@! TO.N,Net-(R12-Pad2)*
X116840000Y-95504000D02*
X116332000Y-94996000D01*
X116840000Y-98552000D02*
X116840000Y-95504000D01*
X113030000Y-91694000D02*
X116332000Y-94996000D01*
X110820000Y-91694000D02*
X113030000Y-91694000D01*
G04 #@! TO.N,Net-(R10-Pad1)*
X102731370Y-110236000D02*
X104140000Y-110236000D01*
X101600000Y-110236000D02*
X102731370Y-110236000D01*
G04 #@! TO.N,Net-(R12-Pad1)*
X113284000Y-102616000D02*
X116840000Y-106172000D01*
X113284000Y-98552000D02*
X113284000Y-102616000D01*
X112484001Y-97752001D02*
X113284000Y-98552000D01*
X111035999Y-96303999D02*
X112484001Y-97752001D01*
X102399999Y-96303999D02*
X111035999Y-96303999D01*
X101600000Y-95504000D02*
X102399999Y-96303999D01*
G04 #@! TO.N,+3V3*
X105410000Y-87884000D02*
X107569000Y-87884000D01*
X107950000Y-88265000D02*
X107569000Y-87884000D01*
X107950000Y-92202000D02*
X105664000Y-94488000D01*
X107950000Y-88265000D02*
X107950000Y-92202000D01*
G04 #@! TO.N,Net-(D1-Pad2)*
X126200001Y-109436001D02*
X120904000Y-104140000D01*
X127000000Y-110236000D02*
X126200001Y-109436001D01*
G04 #@! TO.N,Net-(C1-Pad1)*
X105664000Y-105664000D02*
X106172000Y-106172000D01*
X101600000Y-105664000D02*
X105664000Y-105664000D01*
X106172000Y-106172000D02*
X106172000Y-103632000D01*
X105664000Y-103124000D02*
X101600000Y-103124000D01*
X106172000Y-103632000D02*
X105664000Y-103124000D01*
X116840000Y-109728000D02*
X116840000Y-110236000D01*
X113284000Y-106172000D02*
X116840000Y-109728000D01*
X117971370Y-110236000D02*
X119380000Y-110236000D01*
X116840000Y-110236000D02*
X117971370Y-110236000D01*
X114083999Y-95287999D02*
X114083999Y-96303999D01*
X113284000Y-94488000D02*
X114083999Y-95287999D01*
X114083999Y-96303999D02*
X114935000Y-97155000D01*
X114935000Y-97155000D02*
X114935000Y-100330000D01*
X114427000Y-106172000D02*
X113284000Y-106172000D01*
X118745000Y-100330000D02*
X118745000Y-107950000D01*
X116205000Y-107950000D02*
X114427000Y-106172000D01*
X118745000Y-107950000D02*
X116205000Y-107950000D01*
X118173500Y-89217500D02*
X118173500Y-100266500D01*
X114935000Y-100330000D02*
X118237000Y-100330000D01*
X118173500Y-100266500D02*
X118237000Y-100330000D01*
X118237000Y-100330000D02*
X118745000Y-100330000D01*
X127508000Y-89217500D02*
X118173500Y-89217500D01*
G04 #@! TO.N,Net-(J1-Pad1)*
X72136000Y-89916000D02*
X68834000Y-89916000D01*
X68580000Y-90170000D02*
X68580000Y-98044000D01*
X68834000Y-89916000D02*
X68580000Y-90170000D01*
G04 #@! TO.N,Net-(J1-Pad2)*
X69342000Y-108712000D02*
X72136000Y-108712000D01*
X68580000Y-100584000D02*
X68580000Y-107950000D01*
X68580000Y-107950000D02*
X69342000Y-108712000D01*
G04 #@! TD*
M02*
