G04 #@! TF.GenerationSoftware,KiCad,Pcbnew,5.0.2-bee76a0~70~ubuntu18.04.1*
G04 #@! TF.CreationDate,2019-03-27T19:33:44-04:00*
G04 #@! TF.ProjectId,linemonitor,6c696e65-6d6f-46e6-9974-6f722e6b6963,rev?*
G04 #@! TF.SameCoordinates,Original*
G04 #@! TF.FileFunction,Legend,Top*
G04 #@! TF.FilePolarity,Positive*
%FSLAX46Y46*%
G04 Gerber Fmt 4.6, Leading zero omitted, Abs format (unit mm)*
G04 Created by KiCad (PCBNEW 5.0.2-bee76a0~70~ubuntu18.04.1) date Wed 27 Mar 2019 07:33:44 PM EDT*
%MOMM*%
%LPD*%
G01*
G04 APERTURE LIST*
%ADD10C,0.200000*%
%ADD11C,0.120000*%
%ADD12C,0.300000*%
%ADD13C,0.150000*%
G04 APERTURE END LIST*
D10*
X122118619Y-88883380D02*
X121642428Y-88883380D01*
X121642428Y-87883380D01*
X122642428Y-87883380D02*
X122832904Y-87883380D01*
X122928142Y-87931000D01*
X123023380Y-88026238D01*
X123071000Y-88216714D01*
X123071000Y-88550047D01*
X123023380Y-88740523D01*
X122928142Y-88835761D01*
X122832904Y-88883380D01*
X122642428Y-88883380D01*
X122547190Y-88835761D01*
X122451952Y-88740523D01*
X122404333Y-88550047D01*
X122404333Y-88216714D01*
X122451952Y-88026238D01*
X122547190Y-87931000D01*
X122642428Y-87883380D01*
X124023380Y-87931000D02*
X123928142Y-87883380D01*
X123785285Y-87883380D01*
X123642428Y-87931000D01*
X123547190Y-88026238D01*
X123499571Y-88121476D01*
X123451952Y-88311952D01*
X123451952Y-88454809D01*
X123499571Y-88645285D01*
X123547190Y-88740523D01*
X123642428Y-88835761D01*
X123785285Y-88883380D01*
X123880523Y-88883380D01*
X124023380Y-88835761D01*
X124071000Y-88788142D01*
X124071000Y-88454809D01*
X123880523Y-88454809D01*
X124499571Y-88883380D02*
X124499571Y-87883380D01*
X125547190Y-88788142D02*
X125499571Y-88835761D01*
X125356714Y-88883380D01*
X125261476Y-88883380D01*
X125118619Y-88835761D01*
X125023380Y-88740523D01*
X124975761Y-88645285D01*
X124928142Y-88454809D01*
X124928142Y-88311952D01*
X124975761Y-88121476D01*
X125023380Y-88026238D01*
X125118619Y-87931000D01*
X125261476Y-87883380D01*
X125356714Y-87883380D01*
X125499571Y-87931000D01*
X125547190Y-87978619D01*
X122571000Y-89583380D02*
X122761476Y-89583380D01*
X122856714Y-89631000D01*
X122951952Y-89726238D01*
X122999571Y-89916714D01*
X122999571Y-90250047D01*
X122951952Y-90440523D01*
X122856714Y-90535761D01*
X122761476Y-90583380D01*
X122571000Y-90583380D01*
X122475761Y-90535761D01*
X122380523Y-90440523D01*
X122332904Y-90250047D01*
X122332904Y-89916714D01*
X122380523Y-89726238D01*
X122475761Y-89631000D01*
X122571000Y-89583380D01*
X123428142Y-89583380D02*
X123428142Y-90392904D01*
X123475761Y-90488142D01*
X123523380Y-90535761D01*
X123618619Y-90583380D01*
X123809095Y-90583380D01*
X123904333Y-90535761D01*
X123951952Y-90488142D01*
X123999571Y-90392904D01*
X123999571Y-89583380D01*
X124332904Y-89583380D02*
X124904333Y-89583380D01*
X124618619Y-90583380D02*
X124618619Y-89583380D01*
X121809095Y-96654928D02*
X122571000Y-96654928D01*
X122190047Y-97035880D02*
X122190047Y-96273976D01*
X122951952Y-96035880D02*
X123571000Y-96035880D01*
X123237666Y-96416833D01*
X123380523Y-96416833D01*
X123475761Y-96464452D01*
X123523380Y-96512071D01*
X123571000Y-96607309D01*
X123571000Y-96845404D01*
X123523380Y-96940642D01*
X123475761Y-96988261D01*
X123380523Y-97035880D01*
X123094809Y-97035880D01*
X122999571Y-96988261D01*
X122951952Y-96940642D01*
X123856714Y-96035880D02*
X124190047Y-97035880D01*
X124523380Y-96035880D01*
X124761476Y-96035880D02*
X125380523Y-96035880D01*
X125047190Y-96416833D01*
X125190047Y-96416833D01*
X125285285Y-96464452D01*
X125332904Y-96512071D01*
X125380523Y-96607309D01*
X125380523Y-96845404D01*
X125332904Y-96940642D01*
X125285285Y-96988261D01*
X125190047Y-97035880D01*
X124904333Y-97035880D01*
X124809095Y-96988261D01*
X124761476Y-96940642D01*
X123317095Y-98623500D02*
X123221857Y-98575880D01*
X123079000Y-98575880D01*
X122936142Y-98623500D01*
X122840904Y-98718738D01*
X122793285Y-98813976D01*
X122745666Y-99004452D01*
X122745666Y-99147309D01*
X122793285Y-99337785D01*
X122840904Y-99433023D01*
X122936142Y-99528261D01*
X123079000Y-99575880D01*
X123174238Y-99575880D01*
X123317095Y-99528261D01*
X123364714Y-99480642D01*
X123364714Y-99147309D01*
X123174238Y-99147309D01*
X123793285Y-99575880D02*
X123793285Y-98575880D01*
X124364714Y-99575880D01*
X124364714Y-98575880D01*
X124840904Y-99575880D02*
X124840904Y-98575880D01*
X125079000Y-98575880D01*
X125221857Y-98623500D01*
X125317095Y-98718738D01*
X125364714Y-98813976D01*
X125412333Y-99004452D01*
X125412333Y-99147309D01*
X125364714Y-99337785D01*
X125317095Y-99433023D01*
X125221857Y-99528261D01*
X125079000Y-99575880D01*
X124840904Y-99575880D01*
X71120119Y-101099880D02*
X70786785Y-100623690D01*
X70548690Y-101099880D02*
X70548690Y-100099880D01*
X70929642Y-100099880D01*
X71024880Y-100147500D01*
X71072500Y-100195119D01*
X71120119Y-100290357D01*
X71120119Y-100433214D01*
X71072500Y-100528452D01*
X71024880Y-100576071D01*
X70929642Y-100623690D01*
X70548690Y-100623690D01*
X71548690Y-101099880D02*
X71548690Y-100099880D01*
X72024880Y-101099880D02*
X72024880Y-100099880D01*
X72596309Y-101099880D01*
X72596309Y-100099880D01*
X73596309Y-100147500D02*
X73501071Y-100099880D01*
X73358214Y-100099880D01*
X73215357Y-100147500D01*
X73120119Y-100242738D01*
X73072500Y-100337976D01*
X73024880Y-100528452D01*
X73024880Y-100671309D01*
X73072500Y-100861785D01*
X73120119Y-100957023D01*
X73215357Y-101052261D01*
X73358214Y-101099880D01*
X73453452Y-101099880D01*
X73596309Y-101052261D01*
X73643928Y-101004642D01*
X73643928Y-100671309D01*
X73453452Y-100671309D01*
X70540690Y-97559880D02*
X71112119Y-97559880D01*
X70826404Y-98559880D02*
X70826404Y-97559880D01*
X71445452Y-98559880D02*
X71445452Y-97559880D01*
X71921642Y-98559880D02*
X71921642Y-97559880D01*
X72302595Y-97559880D01*
X72397833Y-97607500D01*
X72445452Y-97655119D01*
X72493071Y-97750357D01*
X72493071Y-97893214D01*
X72445452Y-97988452D01*
X72397833Y-98036071D01*
X72302595Y-98083690D01*
X71921642Y-98083690D01*
D11*
G04 #@! TO.C,C1*
X117610000Y-111656000D02*
X113570000Y-111656000D01*
X117610000Y-108816000D02*
X113570000Y-108816000D01*
X117610000Y-111656000D02*
X117610000Y-111031000D01*
X117610000Y-109441000D02*
X117610000Y-108816000D01*
X113570000Y-111656000D02*
X113570000Y-111031000D01*
X113570000Y-109441000D02*
X113570000Y-108816000D01*
G04 #@! TO.C,R1*
X85826000Y-111082000D02*
X85826000Y-106342000D01*
X85826000Y-106342000D02*
X73686000Y-106342000D01*
X73686000Y-106342000D02*
X73686000Y-111082000D01*
X73686000Y-111082000D02*
X85826000Y-111082000D01*
X85936000Y-108712000D02*
X85826000Y-108712000D01*
X73576000Y-108712000D02*
X73686000Y-108712000D01*
G04 #@! TO.C,R2*
X73576000Y-103124000D02*
X73686000Y-103124000D01*
X85936000Y-103124000D02*
X85826000Y-103124000D01*
X73686000Y-105494000D02*
X85826000Y-105494000D01*
X73686000Y-100754000D02*
X73686000Y-105494000D01*
X85826000Y-100754000D02*
X73686000Y-100754000D01*
X85826000Y-105494000D02*
X85826000Y-100754000D01*
G04 #@! TO.C,R3*
X85826000Y-92286000D02*
X85826000Y-87546000D01*
X85826000Y-87546000D02*
X73686000Y-87546000D01*
X73686000Y-87546000D02*
X73686000Y-92286000D01*
X73686000Y-92286000D02*
X85826000Y-92286000D01*
X85936000Y-89916000D02*
X85826000Y-89916000D01*
X73576000Y-89916000D02*
X73686000Y-89916000D01*
G04 #@! TO.C,R4*
X73576000Y-95504000D02*
X73686000Y-95504000D01*
X85936000Y-95504000D02*
X85826000Y-95504000D01*
X73686000Y-97874000D02*
X85826000Y-97874000D01*
X73686000Y-93134000D02*
X73686000Y-97874000D01*
X85826000Y-93134000D02*
X73686000Y-93134000D01*
X85826000Y-97874000D02*
X85826000Y-93134000D01*
G04 #@! TO.C,R5*
X89892000Y-102584000D02*
X89562000Y-102584000D01*
X89562000Y-102584000D02*
X89562000Y-96044000D01*
X89562000Y-96044000D02*
X89892000Y-96044000D01*
X91972000Y-102584000D02*
X92302000Y-102584000D01*
X92302000Y-102584000D02*
X92302000Y-96044000D01*
X92302000Y-96044000D02*
X91972000Y-96044000D01*
G04 #@! TO.C,R6*
X107542000Y-99092000D02*
X107212000Y-99092000D01*
X107542000Y-105632000D02*
X107542000Y-99092000D01*
X107212000Y-105632000D02*
X107542000Y-105632000D01*
X104802000Y-99092000D02*
X105132000Y-99092000D01*
X104802000Y-105632000D02*
X104802000Y-99092000D01*
X105132000Y-105632000D02*
X104802000Y-105632000D01*
G04 #@! TO.C,R7*
X120928000Y-87916000D02*
X121258000Y-87916000D01*
X121258000Y-87916000D02*
X121258000Y-94456000D01*
X121258000Y-94456000D02*
X120928000Y-94456000D01*
X118848000Y-87916000D02*
X118518000Y-87916000D01*
X118518000Y-87916000D02*
X118518000Y-94456000D01*
X118518000Y-94456000D02*
X118848000Y-94456000D01*
G04 #@! TO.C,R8*
X108358000Y-105632000D02*
X108688000Y-105632000D01*
X108358000Y-99092000D02*
X108358000Y-105632000D01*
X108688000Y-99092000D02*
X108358000Y-99092000D01*
X111098000Y-105632000D02*
X110768000Y-105632000D01*
X111098000Y-99092000D02*
X111098000Y-105632000D01*
X110768000Y-99092000D02*
X111098000Y-99092000D01*
G04 #@! TO.C,R9*
X117372000Y-87916000D02*
X117702000Y-87916000D01*
X117702000Y-87916000D02*
X117702000Y-94456000D01*
X117702000Y-94456000D02*
X117372000Y-94456000D01*
X115292000Y-87916000D02*
X114962000Y-87916000D01*
X114962000Y-87916000D02*
X114962000Y-94456000D01*
X114962000Y-94456000D02*
X115292000Y-94456000D01*
G04 #@! TO.C,R10*
X94520000Y-108866000D02*
X94520000Y-109196000D01*
X101060000Y-108866000D02*
X94520000Y-108866000D01*
X101060000Y-109196000D02*
X101060000Y-108866000D01*
X94520000Y-111606000D02*
X94520000Y-111276000D01*
X101060000Y-111606000D02*
X94520000Y-111606000D01*
X101060000Y-111276000D02*
X101060000Y-111606000D01*
G04 #@! TO.C,R11*
X104680000Y-108866000D02*
X104680000Y-109196000D01*
X111220000Y-108866000D02*
X104680000Y-108866000D01*
X111220000Y-109196000D02*
X111220000Y-108866000D01*
X104680000Y-111606000D02*
X104680000Y-111276000D01*
X111220000Y-111606000D02*
X104680000Y-111606000D01*
X111220000Y-111276000D02*
X111220000Y-111606000D01*
G04 #@! TO.C,R12*
X115800000Y-105632000D02*
X115470000Y-105632000D01*
X115470000Y-105632000D02*
X115470000Y-99092000D01*
X115470000Y-99092000D02*
X115800000Y-99092000D01*
X117880000Y-105632000D02*
X118210000Y-105632000D01*
X118210000Y-105632000D02*
X118210000Y-99092000D01*
X118210000Y-99092000D02*
X117880000Y-99092000D01*
G04 #@! TO.C,R15*
X106204000Y-93118000D02*
X106204000Y-93448000D01*
X112744000Y-93118000D02*
X106204000Y-93118000D01*
X112744000Y-93448000D02*
X112744000Y-93118000D01*
X106204000Y-95858000D02*
X106204000Y-95528000D01*
X112744000Y-95858000D02*
X106204000Y-95858000D01*
X112744000Y-95528000D02*
X112744000Y-95858000D01*
G04 #@! TO.C,R17*
X112244000Y-105632000D02*
X111914000Y-105632000D01*
X111914000Y-105632000D02*
X111914000Y-99092000D01*
X111914000Y-99092000D02*
X112244000Y-99092000D01*
X114324000Y-105632000D02*
X114654000Y-105632000D01*
X114654000Y-105632000D02*
X114654000Y-99092000D01*
X114654000Y-99092000D02*
X114324000Y-99092000D01*
D12*
G04 #@! TO.C,U1*
X106934000Y-87884000D02*
G75*
G03X106934000Y-87884000I-254000J0D01*
G01*
D11*
G04 #@! TO.C,U2*
X96790000Y-106994000D02*
G75*
G02X98790000Y-106994000I1000000J0D01*
G01*
X98790000Y-106994000D02*
X100440000Y-106994000D01*
X100440000Y-106994000D02*
X100440000Y-89094000D01*
X100440000Y-89094000D02*
X95140000Y-89094000D01*
X95140000Y-89094000D02*
X95140000Y-106994000D01*
X95140000Y-106994000D02*
X96790000Y-106994000D01*
G04 #@! TO.C,D1*
X124734000Y-105685000D02*
X124734000Y-102595000D01*
X124674000Y-104140000D02*
G75*
G03X124674000Y-104140000I-2500000J0D01*
G01*
X119184000Y-104139538D02*
G75*
G03X124734000Y-105684830I2990000J-462D01*
G01*
X119184000Y-104140462D02*
G75*
G02X124734000Y-102595170I2990000J462D01*
G01*
G04 #@! TO.C,R99*
X119920000Y-109196000D02*
X119920000Y-108866000D01*
X119920000Y-108866000D02*
X126460000Y-108866000D01*
X126460000Y-108866000D02*
X126460000Y-109196000D01*
X119920000Y-111276000D02*
X119920000Y-111606000D01*
X119920000Y-111606000D02*
X126460000Y-111606000D01*
X126460000Y-111606000D02*
X126460000Y-111276000D01*
G04 #@! TO.C,J2*
X126178000Y-90547500D02*
X128838000Y-90547500D01*
X126178000Y-90487500D02*
X126178000Y-90547500D01*
X128838000Y-90487500D02*
X128838000Y-90547500D01*
X126178000Y-90487500D02*
X128838000Y-90487500D01*
X126178000Y-89217500D02*
X126178000Y-87887500D01*
X126178000Y-87887500D02*
X127508000Y-87887500D01*
G04 #@! TO.C,J1*
X67250000Y-101914000D02*
X69910000Y-101914000D01*
X67250000Y-99314000D02*
X67250000Y-101914000D01*
X69910000Y-99314000D02*
X69910000Y-101914000D01*
X67250000Y-99314000D02*
X69910000Y-99314000D01*
X67250000Y-98044000D02*
X67250000Y-96714000D01*
X67250000Y-96714000D02*
X68580000Y-96714000D01*
G04 #@! TO.C,J3*
X126178000Y-95253500D02*
X127508000Y-95253500D01*
X126178000Y-96583500D02*
X126178000Y-95253500D01*
X126178000Y-97853500D02*
X128838000Y-97853500D01*
X128838000Y-97853500D02*
X128838000Y-100453500D01*
X126178000Y-97853500D02*
X126178000Y-100453500D01*
X126178000Y-100453500D02*
X128838000Y-100453500D01*
G04 #@! TO.C,C1*
D13*
X115339833Y-109132642D02*
X115292214Y-109180261D01*
X115149357Y-109227880D01*
X115054119Y-109227880D01*
X114911261Y-109180261D01*
X114816023Y-109085023D01*
X114768404Y-108989785D01*
X114720785Y-108799309D01*
X114720785Y-108656452D01*
X114768404Y-108465976D01*
X114816023Y-108370738D01*
X114911261Y-108275500D01*
X115054119Y-108227880D01*
X115149357Y-108227880D01*
X115292214Y-108275500D01*
X115339833Y-108323119D01*
X116292214Y-109227880D02*
X115720785Y-109227880D01*
X116006500Y-109227880D02*
X116006500Y-108227880D01*
X115911261Y-108370738D01*
X115816023Y-108465976D01*
X115720785Y-108513595D01*
G04 #@! TO.C,R1*
X79589333Y-109164380D02*
X79256000Y-108688190D01*
X79017904Y-109164380D02*
X79017904Y-108164380D01*
X79398857Y-108164380D01*
X79494095Y-108212000D01*
X79541714Y-108259619D01*
X79589333Y-108354857D01*
X79589333Y-108497714D01*
X79541714Y-108592952D01*
X79494095Y-108640571D01*
X79398857Y-108688190D01*
X79017904Y-108688190D01*
X80541714Y-109164380D02*
X79970285Y-109164380D01*
X80256000Y-109164380D02*
X80256000Y-108164380D01*
X80160761Y-108307238D01*
X80065523Y-108402476D01*
X79970285Y-108450095D01*
G04 #@! TO.C,R2*
X79589333Y-103576380D02*
X79256000Y-103100190D01*
X79017904Y-103576380D02*
X79017904Y-102576380D01*
X79398857Y-102576380D01*
X79494095Y-102624000D01*
X79541714Y-102671619D01*
X79589333Y-102766857D01*
X79589333Y-102909714D01*
X79541714Y-103004952D01*
X79494095Y-103052571D01*
X79398857Y-103100190D01*
X79017904Y-103100190D01*
X79970285Y-102671619D02*
X80017904Y-102624000D01*
X80113142Y-102576380D01*
X80351238Y-102576380D01*
X80446476Y-102624000D01*
X80494095Y-102671619D01*
X80541714Y-102766857D01*
X80541714Y-102862095D01*
X80494095Y-103004952D01*
X79922666Y-103576380D01*
X80541714Y-103576380D01*
G04 #@! TO.C,R3*
X79589333Y-90368380D02*
X79256000Y-89892190D01*
X79017904Y-90368380D02*
X79017904Y-89368380D01*
X79398857Y-89368380D01*
X79494095Y-89416000D01*
X79541714Y-89463619D01*
X79589333Y-89558857D01*
X79589333Y-89701714D01*
X79541714Y-89796952D01*
X79494095Y-89844571D01*
X79398857Y-89892190D01*
X79017904Y-89892190D01*
X79922666Y-89368380D02*
X80541714Y-89368380D01*
X80208380Y-89749333D01*
X80351238Y-89749333D01*
X80446476Y-89796952D01*
X80494095Y-89844571D01*
X80541714Y-89939809D01*
X80541714Y-90177904D01*
X80494095Y-90273142D01*
X80446476Y-90320761D01*
X80351238Y-90368380D01*
X80065523Y-90368380D01*
X79970285Y-90320761D01*
X79922666Y-90273142D01*
G04 #@! TO.C,R4*
X79589333Y-95956380D02*
X79256000Y-95480190D01*
X79017904Y-95956380D02*
X79017904Y-94956380D01*
X79398857Y-94956380D01*
X79494095Y-95004000D01*
X79541714Y-95051619D01*
X79589333Y-95146857D01*
X79589333Y-95289714D01*
X79541714Y-95384952D01*
X79494095Y-95432571D01*
X79398857Y-95480190D01*
X79017904Y-95480190D01*
X80446476Y-95289714D02*
X80446476Y-95956380D01*
X80208380Y-94908761D02*
X79970285Y-95623047D01*
X80589333Y-95623047D01*
G04 #@! TO.C,R5*
X91384380Y-99480666D02*
X90908190Y-99814000D01*
X91384380Y-100052095D02*
X90384380Y-100052095D01*
X90384380Y-99671142D01*
X90432000Y-99575904D01*
X90479619Y-99528285D01*
X90574857Y-99480666D01*
X90717714Y-99480666D01*
X90812952Y-99528285D01*
X90860571Y-99575904D01*
X90908190Y-99671142D01*
X90908190Y-100052095D01*
X90384380Y-98575904D02*
X90384380Y-99052095D01*
X90860571Y-99099714D01*
X90812952Y-99052095D01*
X90765333Y-98956857D01*
X90765333Y-98718761D01*
X90812952Y-98623523D01*
X90860571Y-98575904D01*
X90955809Y-98528285D01*
X91193904Y-98528285D01*
X91289142Y-98575904D01*
X91336761Y-98623523D01*
X91384380Y-98718761D01*
X91384380Y-98956857D01*
X91336761Y-99052095D01*
X91289142Y-99099714D01*
G04 #@! TO.C,R6*
X106624380Y-102528666D02*
X106148190Y-102862000D01*
X106624380Y-103100095D02*
X105624380Y-103100095D01*
X105624380Y-102719142D01*
X105672000Y-102623904D01*
X105719619Y-102576285D01*
X105814857Y-102528666D01*
X105957714Y-102528666D01*
X106052952Y-102576285D01*
X106100571Y-102623904D01*
X106148190Y-102719142D01*
X106148190Y-103100095D01*
X105624380Y-101671523D02*
X105624380Y-101862000D01*
X105672000Y-101957238D01*
X105719619Y-102004857D01*
X105862476Y-102100095D01*
X106052952Y-102147714D01*
X106433904Y-102147714D01*
X106529142Y-102100095D01*
X106576761Y-102052476D01*
X106624380Y-101957238D01*
X106624380Y-101766761D01*
X106576761Y-101671523D01*
X106529142Y-101623904D01*
X106433904Y-101576285D01*
X106195809Y-101576285D01*
X106100571Y-101623904D01*
X106052952Y-101671523D01*
X106005333Y-101766761D01*
X106005333Y-101957238D01*
X106052952Y-102052476D01*
X106100571Y-102100095D01*
X106195809Y-102147714D01*
G04 #@! TO.C,R7*
X120340380Y-91352666D02*
X119864190Y-91686000D01*
X120340380Y-91924095D02*
X119340380Y-91924095D01*
X119340380Y-91543142D01*
X119388000Y-91447904D01*
X119435619Y-91400285D01*
X119530857Y-91352666D01*
X119673714Y-91352666D01*
X119768952Y-91400285D01*
X119816571Y-91447904D01*
X119864190Y-91543142D01*
X119864190Y-91924095D01*
X119340380Y-91019333D02*
X119340380Y-90352666D01*
X120340380Y-90781238D01*
G04 #@! TO.C,R8*
X110180380Y-102528666D02*
X109704190Y-102862000D01*
X110180380Y-103100095D02*
X109180380Y-103100095D01*
X109180380Y-102719142D01*
X109228000Y-102623904D01*
X109275619Y-102576285D01*
X109370857Y-102528666D01*
X109513714Y-102528666D01*
X109608952Y-102576285D01*
X109656571Y-102623904D01*
X109704190Y-102719142D01*
X109704190Y-103100095D01*
X109608952Y-101957238D02*
X109561333Y-102052476D01*
X109513714Y-102100095D01*
X109418476Y-102147714D01*
X109370857Y-102147714D01*
X109275619Y-102100095D01*
X109228000Y-102052476D01*
X109180380Y-101957238D01*
X109180380Y-101766761D01*
X109228000Y-101671523D01*
X109275619Y-101623904D01*
X109370857Y-101576285D01*
X109418476Y-101576285D01*
X109513714Y-101623904D01*
X109561333Y-101671523D01*
X109608952Y-101766761D01*
X109608952Y-101957238D01*
X109656571Y-102052476D01*
X109704190Y-102100095D01*
X109799428Y-102147714D01*
X109989904Y-102147714D01*
X110085142Y-102100095D01*
X110132761Y-102052476D01*
X110180380Y-101957238D01*
X110180380Y-101766761D01*
X110132761Y-101671523D01*
X110085142Y-101623904D01*
X109989904Y-101576285D01*
X109799428Y-101576285D01*
X109704190Y-101623904D01*
X109656571Y-101671523D01*
X109608952Y-101766761D01*
G04 #@! TO.C,R9*
X116784380Y-91352666D02*
X116308190Y-91686000D01*
X116784380Y-91924095D02*
X115784380Y-91924095D01*
X115784380Y-91543142D01*
X115832000Y-91447904D01*
X115879619Y-91400285D01*
X115974857Y-91352666D01*
X116117714Y-91352666D01*
X116212952Y-91400285D01*
X116260571Y-91447904D01*
X116308190Y-91543142D01*
X116308190Y-91924095D01*
X116784380Y-90876476D02*
X116784380Y-90686000D01*
X116736761Y-90590761D01*
X116689142Y-90543142D01*
X116546285Y-90447904D01*
X116355809Y-90400285D01*
X115974857Y-90400285D01*
X115879619Y-90447904D01*
X115832000Y-90495523D01*
X115784380Y-90590761D01*
X115784380Y-90781238D01*
X115832000Y-90876476D01*
X115879619Y-90924095D01*
X115974857Y-90971714D01*
X116212952Y-90971714D01*
X116308190Y-90924095D01*
X116355809Y-90876476D01*
X116403428Y-90781238D01*
X116403428Y-90590761D01*
X116355809Y-90495523D01*
X116308190Y-90447904D01*
X116212952Y-90400285D01*
G04 #@! TO.C,R10*
X97147142Y-110688380D02*
X96813809Y-110212190D01*
X96575714Y-110688380D02*
X96575714Y-109688380D01*
X96956666Y-109688380D01*
X97051904Y-109736000D01*
X97099523Y-109783619D01*
X97147142Y-109878857D01*
X97147142Y-110021714D01*
X97099523Y-110116952D01*
X97051904Y-110164571D01*
X96956666Y-110212190D01*
X96575714Y-110212190D01*
X98099523Y-110688380D02*
X97528095Y-110688380D01*
X97813809Y-110688380D02*
X97813809Y-109688380D01*
X97718571Y-109831238D01*
X97623333Y-109926476D01*
X97528095Y-109974095D01*
X98718571Y-109688380D02*
X98813809Y-109688380D01*
X98909047Y-109736000D01*
X98956666Y-109783619D01*
X99004285Y-109878857D01*
X99051904Y-110069333D01*
X99051904Y-110307428D01*
X99004285Y-110497904D01*
X98956666Y-110593142D01*
X98909047Y-110640761D01*
X98813809Y-110688380D01*
X98718571Y-110688380D01*
X98623333Y-110640761D01*
X98575714Y-110593142D01*
X98528095Y-110497904D01*
X98480476Y-110307428D01*
X98480476Y-110069333D01*
X98528095Y-109878857D01*
X98575714Y-109783619D01*
X98623333Y-109736000D01*
X98718571Y-109688380D01*
G04 #@! TO.C,R11*
X107307142Y-110688380D02*
X106973809Y-110212190D01*
X106735714Y-110688380D02*
X106735714Y-109688380D01*
X107116666Y-109688380D01*
X107211904Y-109736000D01*
X107259523Y-109783619D01*
X107307142Y-109878857D01*
X107307142Y-110021714D01*
X107259523Y-110116952D01*
X107211904Y-110164571D01*
X107116666Y-110212190D01*
X106735714Y-110212190D01*
X108259523Y-110688380D02*
X107688095Y-110688380D01*
X107973809Y-110688380D02*
X107973809Y-109688380D01*
X107878571Y-109831238D01*
X107783333Y-109926476D01*
X107688095Y-109974095D01*
X109211904Y-110688380D02*
X108640476Y-110688380D01*
X108926190Y-110688380D02*
X108926190Y-109688380D01*
X108830952Y-109831238D01*
X108735714Y-109926476D01*
X108640476Y-109974095D01*
G04 #@! TO.C,R12*
X117292380Y-103004857D02*
X116816190Y-103338190D01*
X117292380Y-103576285D02*
X116292380Y-103576285D01*
X116292380Y-103195333D01*
X116340000Y-103100095D01*
X116387619Y-103052476D01*
X116482857Y-103004857D01*
X116625714Y-103004857D01*
X116720952Y-103052476D01*
X116768571Y-103100095D01*
X116816190Y-103195333D01*
X116816190Y-103576285D01*
X117292380Y-102052476D02*
X117292380Y-102623904D01*
X117292380Y-102338190D02*
X116292380Y-102338190D01*
X116435238Y-102433428D01*
X116530476Y-102528666D01*
X116578095Y-102623904D01*
X116387619Y-101671523D02*
X116340000Y-101623904D01*
X116292380Y-101528666D01*
X116292380Y-101290571D01*
X116340000Y-101195333D01*
X116387619Y-101147714D01*
X116482857Y-101100095D01*
X116578095Y-101100095D01*
X116720952Y-101147714D01*
X117292380Y-101719142D01*
X117292380Y-101100095D01*
G04 #@! TO.C,R15*
X108831142Y-94940380D02*
X108497809Y-94464190D01*
X108259714Y-94940380D02*
X108259714Y-93940380D01*
X108640666Y-93940380D01*
X108735904Y-93988000D01*
X108783523Y-94035619D01*
X108831142Y-94130857D01*
X108831142Y-94273714D01*
X108783523Y-94368952D01*
X108735904Y-94416571D01*
X108640666Y-94464190D01*
X108259714Y-94464190D01*
X109783523Y-94940380D02*
X109212095Y-94940380D01*
X109497809Y-94940380D02*
X109497809Y-93940380D01*
X109402571Y-94083238D01*
X109307333Y-94178476D01*
X109212095Y-94226095D01*
X110688285Y-93940380D02*
X110212095Y-93940380D01*
X110164476Y-94416571D01*
X110212095Y-94368952D01*
X110307333Y-94321333D01*
X110545428Y-94321333D01*
X110640666Y-94368952D01*
X110688285Y-94416571D01*
X110735904Y-94511809D01*
X110735904Y-94749904D01*
X110688285Y-94845142D01*
X110640666Y-94892761D01*
X110545428Y-94940380D01*
X110307333Y-94940380D01*
X110212095Y-94892761D01*
X110164476Y-94845142D01*
G04 #@! TO.C,R17*
X113736380Y-103004857D02*
X113260190Y-103338190D01*
X113736380Y-103576285D02*
X112736380Y-103576285D01*
X112736380Y-103195333D01*
X112784000Y-103100095D01*
X112831619Y-103052476D01*
X112926857Y-103004857D01*
X113069714Y-103004857D01*
X113164952Y-103052476D01*
X113212571Y-103100095D01*
X113260190Y-103195333D01*
X113260190Y-103576285D01*
X113736380Y-102052476D02*
X113736380Y-102623904D01*
X113736380Y-102338190D02*
X112736380Y-102338190D01*
X112879238Y-102433428D01*
X112974476Y-102528666D01*
X113022095Y-102623904D01*
X112736380Y-101719142D02*
X112736380Y-101052476D01*
X113736380Y-101481047D01*
G04 #@! TO.C,U1*
X107442095Y-89368380D02*
X107442095Y-90177904D01*
X107489714Y-90273142D01*
X107537333Y-90320761D01*
X107632571Y-90368380D01*
X107823047Y-90368380D01*
X107918285Y-90320761D01*
X107965904Y-90273142D01*
X108013523Y-90177904D01*
X108013523Y-89368380D01*
X109013523Y-90368380D02*
X108442095Y-90368380D01*
X108727809Y-90368380D02*
X108727809Y-89368380D01*
X108632571Y-89511238D01*
X108537333Y-89606476D01*
X108442095Y-89654095D01*
G04 #@! TO.C,U2*
X97028095Y-97496380D02*
X97028095Y-98305904D01*
X97075714Y-98401142D01*
X97123333Y-98448761D01*
X97218571Y-98496380D01*
X97409047Y-98496380D01*
X97504285Y-98448761D01*
X97551904Y-98401142D01*
X97599523Y-98305904D01*
X97599523Y-97496380D01*
X98028095Y-97591619D02*
X98075714Y-97544000D01*
X98170952Y-97496380D01*
X98409047Y-97496380D01*
X98504285Y-97544000D01*
X98551904Y-97591619D01*
X98599523Y-97686857D01*
X98599523Y-97782095D01*
X98551904Y-97924952D01*
X97980476Y-98496380D01*
X98599523Y-98496380D01*
G04 #@! TO.C,D1*
X121435904Y-102560380D02*
X121435904Y-101560380D01*
X121674000Y-101560380D01*
X121816857Y-101608000D01*
X121912095Y-101703238D01*
X121959714Y-101798476D01*
X122007333Y-101988952D01*
X122007333Y-102131809D01*
X121959714Y-102322285D01*
X121912095Y-102417523D01*
X121816857Y-102512761D01*
X121674000Y-102560380D01*
X121435904Y-102560380D01*
X122959714Y-102560380D02*
X122388285Y-102560380D01*
X122674000Y-102560380D02*
X122674000Y-101560380D01*
X122578761Y-101703238D01*
X122483523Y-101798476D01*
X122388285Y-101846095D01*
G04 #@! TO.C,R99*
X122547142Y-110688380D02*
X122213809Y-110212190D01*
X121975714Y-110688380D02*
X121975714Y-109688380D01*
X122356666Y-109688380D01*
X122451904Y-109736000D01*
X122499523Y-109783619D01*
X122547142Y-109878857D01*
X122547142Y-110021714D01*
X122499523Y-110116952D01*
X122451904Y-110164571D01*
X122356666Y-110212190D01*
X121975714Y-110212190D01*
X123023333Y-110688380D02*
X123213809Y-110688380D01*
X123309047Y-110640761D01*
X123356666Y-110593142D01*
X123451904Y-110450285D01*
X123499523Y-110259809D01*
X123499523Y-109878857D01*
X123451904Y-109783619D01*
X123404285Y-109736000D01*
X123309047Y-109688380D01*
X123118571Y-109688380D01*
X123023333Y-109736000D01*
X122975714Y-109783619D01*
X122928095Y-109878857D01*
X122928095Y-110116952D01*
X122975714Y-110212190D01*
X123023333Y-110259809D01*
X123118571Y-110307428D01*
X123309047Y-110307428D01*
X123404285Y-110259809D01*
X123451904Y-110212190D01*
X123499523Y-110116952D01*
X123975714Y-110688380D02*
X124166190Y-110688380D01*
X124261428Y-110640761D01*
X124309047Y-110593142D01*
X124404285Y-110450285D01*
X124451904Y-110259809D01*
X124451904Y-109878857D01*
X124404285Y-109783619D01*
X124356666Y-109736000D01*
X124261428Y-109688380D01*
X124070952Y-109688380D01*
X123975714Y-109736000D01*
X123928095Y-109783619D01*
X123880476Y-109878857D01*
X123880476Y-110116952D01*
X123928095Y-110212190D01*
X123975714Y-110259809D01*
X124070952Y-110307428D01*
X124261428Y-110307428D01*
X124356666Y-110259809D01*
X124404285Y-110212190D01*
X124451904Y-110116952D01*
G04 #@! TO.C,J2*
X127174666Y-91273380D02*
X127174666Y-91987666D01*
X127127047Y-92130523D01*
X127031809Y-92225761D01*
X126888952Y-92273380D01*
X126793714Y-92273380D01*
X127603238Y-91368619D02*
X127650857Y-91321000D01*
X127746095Y-91273380D01*
X127984190Y-91273380D01*
X128079428Y-91321000D01*
X128127047Y-91368619D01*
X128174666Y-91463857D01*
X128174666Y-91559095D01*
X128127047Y-91701952D01*
X127555619Y-92273380D01*
X128174666Y-92273380D01*
G04 #@! TO.C,J1*
X68246666Y-95166380D02*
X68246666Y-95880666D01*
X68199047Y-96023523D01*
X68103809Y-96118761D01*
X67960952Y-96166380D01*
X67865714Y-96166380D01*
X69246666Y-96166380D02*
X68675238Y-96166380D01*
X68960952Y-96166380D02*
X68960952Y-95166380D01*
X68865714Y-95309238D01*
X68770476Y-95404476D01*
X68675238Y-95452095D01*
G04 #@! TO.C,J3*
X127174666Y-93705880D02*
X127174666Y-94420166D01*
X127127047Y-94563023D01*
X127031809Y-94658261D01*
X126888952Y-94705880D01*
X126793714Y-94705880D01*
X127555619Y-93705880D02*
X128174666Y-93705880D01*
X127841333Y-94086833D01*
X127984190Y-94086833D01*
X128079428Y-94134452D01*
X128127047Y-94182071D01*
X128174666Y-94277309D01*
X128174666Y-94515404D01*
X128127047Y-94610642D01*
X128079428Y-94658261D01*
X127984190Y-94705880D01*
X127698476Y-94705880D01*
X127603238Y-94658261D01*
X127555619Y-94610642D01*
G04 #@! TD*
M02*
