G04 #@! TF.GenerationSoftware,KiCad,Pcbnew,5.0.2-bee76a0~70~ubuntu18.04.1*
G04 #@! TF.CreationDate,2019-03-27T19:33:44-04:00*
G04 #@! TF.ProjectId,linemonitor,6c696e65-6d6f-46e6-9974-6f722e6b6963,rev?*
G04 #@! TF.SameCoordinates,Original*
G04 #@! TF.FileFunction,Copper,L2,Bot*
G04 #@! TF.FilePolarity,Positive*
%FSLAX46Y46*%
G04 Gerber Fmt 4.6, Leading zero omitted, Abs format (unit mm)*
G04 Created by KiCad (PCBNEW 5.0.2-bee76a0~70~ubuntu18.04.1) date Wed 27 Mar 2019 07:33:44 PM EDT*
%MOMM*%
%LPD*%
G01*
G04 APERTURE LIST*
G04 #@! TA.AperFunction,ComponentPad*
%ADD10C,1.600000*%
G04 #@! TD*
G04 #@! TA.AperFunction,ComponentPad*
%ADD11C,2.400000*%
G04 #@! TD*
G04 #@! TA.AperFunction,ComponentPad*
%ADD12O,2.400000X2.400000*%
G04 #@! TD*
G04 #@! TA.AperFunction,ComponentPad*
%ADD13O,1.600000X1.600000*%
G04 #@! TD*
G04 #@! TA.AperFunction,ComponentPad*
%ADD14R,1.600000X1.600000*%
G04 #@! TD*
G04 #@! TA.AperFunction,ComponentPad*
%ADD15R,1.800000X1.800000*%
G04 #@! TD*
G04 #@! TA.AperFunction,ComponentPad*
%ADD16C,1.800000*%
G04 #@! TD*
G04 #@! TA.AperFunction,ComponentPad*
%ADD17R,1.700000X1.700000*%
G04 #@! TD*
G04 #@! TA.AperFunction,ComponentPad*
%ADD18O,1.700000X1.700000*%
G04 #@! TD*
G04 #@! TA.AperFunction,ViaPad*
%ADD19C,0.800000*%
G04 #@! TD*
G04 #@! TA.AperFunction,Conductor*
%ADD20C,0.250000*%
G04 #@! TD*
G04 #@! TA.AperFunction,Conductor*
%ADD21C,0.254000*%
G04 #@! TD*
G04 APERTURE END LIST*
D10*
G04 #@! TO.P,C1,1*
G04 #@! TO.N,Net-(C1-Pad1)*
X116840000Y-110236000D03*
G04 #@! TO.P,C1,2*
G04 #@! TO.N,GNDREF*
X114340000Y-110236000D03*
G04 #@! TD*
D11*
G04 #@! TO.P,R1,1*
G04 #@! TO.N,Net-(R1-Pad1)*
X87376000Y-108712000D03*
D12*
G04 #@! TO.P,R1,2*
G04 #@! TO.N,Net-(J1-Pad2)*
X72136000Y-108712000D03*
G04 #@! TD*
G04 #@! TO.P,R2,2*
G04 #@! TO.N,Net-(R1-Pad1)*
X72136000Y-103124000D03*
D11*
G04 #@! TO.P,R2,1*
G04 #@! TO.N,Net-(R2-Pad1)*
X87376000Y-103124000D03*
G04 #@! TD*
G04 #@! TO.P,R3,1*
G04 #@! TO.N,Net-(R3-Pad1)*
X87376000Y-89916000D03*
D12*
G04 #@! TO.P,R3,2*
G04 #@! TO.N,Net-(J1-Pad1)*
X72136000Y-89916000D03*
G04 #@! TD*
G04 #@! TO.P,R4,2*
G04 #@! TO.N,Net-(R3-Pad1)*
X72136000Y-95504000D03*
D11*
G04 #@! TO.P,R4,1*
G04 #@! TO.N,Net-(R4-Pad1)*
X87376000Y-95504000D03*
G04 #@! TD*
D10*
G04 #@! TO.P,R5,1*
G04 #@! TO.N,Net-(R2-Pad1)*
X90932000Y-103124000D03*
D13*
G04 #@! TO.P,R5,2*
G04 #@! TO.N,Net-(R4-Pad1)*
X90932000Y-95504000D03*
G04 #@! TD*
G04 #@! TO.P,R6,2*
G04 #@! TO.N,Net-(R6-Pad2)*
X106172000Y-98552000D03*
D10*
G04 #@! TO.P,R6,1*
G04 #@! TO.N,Net-(C1-Pad1)*
X106172000Y-106172000D03*
G04 #@! TD*
G04 #@! TO.P,R7,1*
G04 #@! TO.N,Net-(R7-Pad1)*
X119888000Y-87376000D03*
D13*
G04 #@! TO.P,R7,2*
G04 #@! TO.N,GNDREF*
X119888000Y-94996000D03*
G04 #@! TD*
G04 #@! TO.P,R8,2*
G04 #@! TO.N,Net-(R11-Pad1)*
X109728000Y-106172000D03*
D10*
G04 #@! TO.P,R8,1*
G04 #@! TO.N,Net-(R6-Pad2)*
X109728000Y-98552000D03*
G04 #@! TD*
G04 #@! TO.P,R9,1*
G04 #@! TO.N,Net-(R7-Pad1)*
X116332000Y-87376000D03*
D13*
G04 #@! TO.P,R9,2*
G04 #@! TO.N,Net-(R12-Pad2)*
X116332000Y-94996000D03*
G04 #@! TD*
G04 #@! TO.P,R10,2*
G04 #@! TO.N,GNDREF*
X93980000Y-110236000D03*
D10*
G04 #@! TO.P,R10,1*
G04 #@! TO.N,Net-(R10-Pad1)*
X101600000Y-110236000D03*
G04 #@! TD*
D13*
G04 #@! TO.P,R11,2*
G04 #@! TO.N,Net-(R10-Pad1)*
X104140000Y-110236000D03*
D10*
G04 #@! TO.P,R11,1*
G04 #@! TO.N,Net-(R11-Pad1)*
X111760000Y-110236000D03*
G04 #@! TD*
G04 #@! TO.P,R12,1*
G04 #@! TO.N,Net-(R12-Pad1)*
X116840000Y-106172000D03*
D13*
G04 #@! TO.P,R12,2*
G04 #@! TO.N,Net-(R12-Pad2)*
X116840000Y-98552000D03*
G04 #@! TD*
G04 #@! TO.P,R15,2*
G04 #@! TO.N,+3V3*
X105664000Y-94488000D03*
D10*
G04 #@! TO.P,R15,1*
G04 #@! TO.N,Net-(C1-Pad1)*
X113284000Y-94488000D03*
G04 #@! TD*
G04 #@! TO.P,R17,1*
G04 #@! TO.N,Net-(C1-Pad1)*
X113284000Y-106172000D03*
D13*
G04 #@! TO.P,R17,2*
G04 #@! TO.N,Net-(R12-Pad1)*
X113284000Y-98552000D03*
G04 #@! TD*
D14*
G04 #@! TO.P,U2,1*
G04 #@! TO.N,Net-(C1-Pad1)*
X101600000Y-105664000D03*
D13*
G04 #@! TO.P,U2,8*
G04 #@! TO.N,N/C*
X93980000Y-90424000D03*
G04 #@! TO.P,U2,2*
G04 #@! TO.N,Net-(C1-Pad1)*
X101600000Y-103124000D03*
G04 #@! TO.P,U2,9*
G04 #@! TO.N,N/C*
X93980000Y-92964000D03*
G04 #@! TO.P,U2,3*
G04 #@! TO.N,+3V3*
X101600000Y-100584000D03*
G04 #@! TO.P,U2,10*
G04 #@! TO.N,N/C*
X93980000Y-95504000D03*
G04 #@! TO.P,U2,4*
G04 #@! TO.N,Net-(R10-Pad1)*
X101600000Y-98044000D03*
G04 #@! TO.P,U2,11*
G04 #@! TO.N,N/C*
X93980000Y-98044000D03*
G04 #@! TO.P,U2,5*
G04 #@! TO.N,Net-(R12-Pad1)*
X101600000Y-95504000D03*
G04 #@! TO.P,U2,12*
G04 #@! TO.N,GNDREF*
X93980000Y-100584000D03*
G04 #@! TO.P,U2,6*
G04 #@! TO.N,Net-(R7-Pad1)*
X101600000Y-92964000D03*
G04 #@! TO.P,U2,13*
G04 #@! TO.N,N/C*
X93980000Y-103124000D03*
G04 #@! TO.P,U2,7*
G04 #@! TO.N,Net-(R6-Pad2)*
X101600000Y-90424000D03*
G04 #@! TO.P,U2,14*
G04 #@! TO.N,N/C*
X93980000Y-105664000D03*
G04 #@! TD*
D15*
G04 #@! TO.P,D1,1*
G04 #@! TO.N,GNDREF*
X123444000Y-104140000D03*
D16*
G04 #@! TO.P,D1,2*
G04 #@! TO.N,Net-(D1-Pad2)*
X120904000Y-104140000D03*
G04 #@! TD*
D10*
G04 #@! TO.P,R99,1*
G04 #@! TO.N,Net-(C1-Pad1)*
X119380000Y-110236000D03*
D13*
G04 #@! TO.P,R99,2*
G04 #@! TO.N,Net-(D1-Pad2)*
X127000000Y-110236000D03*
G04 #@! TD*
D17*
G04 #@! TO.P,J2,1*
G04 #@! TO.N,Net-(C1-Pad1)*
X127508000Y-89217500D03*
G04 #@! TD*
G04 #@! TO.P,J1,1*
G04 #@! TO.N,Net-(J1-Pad1)*
X68580000Y-98044000D03*
D18*
G04 #@! TO.P,J1,2*
G04 #@! TO.N,Net-(J1-Pad2)*
X68580000Y-100584000D03*
G04 #@! TD*
G04 #@! TO.P,J3,2*
G04 #@! TO.N,GNDREF*
X127508000Y-99123500D03*
D17*
G04 #@! TO.P,J3,1*
G04 #@! TO.N,+3V3*
X127508000Y-96583500D03*
G04 #@! TD*
D19*
G04 #@! TO.N,GNDREF*
X106680000Y-90170000D03*
X109220000Y-91440000D03*
X109220000Y-93980000D03*
X106680000Y-109855000D03*
X98425000Y-109855000D03*
X113030000Y-87884000D03*
X116332000Y-89852500D03*
G04 #@! TD*
D20*
G04 #@! TO.N,Net-(R7-Pad1)*
X110744000Y-92964000D02*
X116332000Y-87376000D01*
X101600000Y-92964000D02*
X110744000Y-92964000D01*
G04 #@! TO.N,Net-(R10-Pad1)*
X99695000Y-108331000D02*
X101600000Y-110236000D01*
X99695000Y-98817630D02*
X99695000Y-108331000D01*
X101600000Y-98044000D02*
X100468630Y-98044000D01*
X100468630Y-98044000D02*
X99695000Y-98817630D01*
G04 #@! TO.N,+3V3*
X104864001Y-97319999D02*
X102399999Y-99784001D01*
X102399999Y-99784001D02*
X101600000Y-100584000D01*
X105664000Y-94488000D02*
X104864001Y-95287999D01*
X104864001Y-96583500D02*
X104864001Y-97319999D01*
X104864001Y-96583500D02*
X127508000Y-96583500D01*
X104864001Y-95287999D02*
X104864001Y-96583500D01*
G04 #@! TO.N,Net-(C1-Pad1)*
X106172000Y-106172000D02*
X106172000Y-107442000D01*
X106172000Y-107442000D02*
X106680000Y-107950000D01*
X106680000Y-107950000D02*
X113030000Y-107950000D01*
X113284000Y-107696000D02*
X113284000Y-106172000D01*
X113030000Y-107950000D02*
X113284000Y-107696000D01*
G04 #@! TD*
D21*
G04 #@! TO.N,GNDREF*
G36*
X118671466Y-86563138D02*
X118453000Y-87090561D01*
X118453000Y-87661439D01*
X118671466Y-88188862D01*
X119075138Y-88592534D01*
X119602561Y-88811000D01*
X120173439Y-88811000D01*
X120700862Y-88592534D01*
X120925896Y-88367500D01*
X126010560Y-88367500D01*
X126010560Y-90067500D01*
X126059843Y-90315265D01*
X126200191Y-90525309D01*
X126410235Y-90665657D01*
X126658000Y-90714940D01*
X128358000Y-90714940D01*
X128605765Y-90665657D01*
X128815809Y-90525309D01*
X128956157Y-90315265D01*
X129005440Y-90067500D01*
X129005440Y-88367500D01*
X128956157Y-88119735D01*
X128815809Y-87909691D01*
X128605765Y-87769343D01*
X128358000Y-87720060D01*
X126658000Y-87720060D01*
X126410235Y-87769343D01*
X126200191Y-87909691D01*
X126059843Y-88119735D01*
X126010560Y-88367500D01*
X120925896Y-88367500D01*
X121104534Y-88188862D01*
X121323000Y-87661439D01*
X121323000Y-87090561D01*
X121104534Y-86563138D01*
X121028396Y-86487000D01*
X128001956Y-86487000D01*
X128088698Y-86497958D01*
X128319886Y-86589492D01*
X129315342Y-87584948D01*
X129370067Y-87701244D01*
X129413000Y-87926307D01*
X129413000Y-110221957D01*
X129402042Y-110308699D01*
X129310509Y-110539885D01*
X128315051Y-111535343D01*
X128198756Y-111590067D01*
X127973693Y-111633000D01*
X127332372Y-111633000D01*
X127559909Y-111587740D01*
X128034577Y-111270577D01*
X128351740Y-110795909D01*
X128463113Y-110236000D01*
X128351740Y-109676091D01*
X128034577Y-109201423D01*
X127559909Y-108884260D01*
X127141333Y-108801000D01*
X126858667Y-108801000D01*
X126440091Y-108884260D01*
X125965423Y-109201423D01*
X125648260Y-109676091D01*
X125536887Y-110236000D01*
X125648260Y-110795909D01*
X125965423Y-111270577D01*
X126440091Y-111587740D01*
X126667628Y-111633000D01*
X119757179Y-111633000D01*
X120192862Y-111452534D01*
X120596534Y-111048862D01*
X120815000Y-110521439D01*
X120815000Y-109950561D01*
X120596534Y-109423138D01*
X120192862Y-109019466D01*
X119665439Y-108801000D01*
X119094561Y-108801000D01*
X118567138Y-109019466D01*
X118163466Y-109423138D01*
X118110000Y-109552216D01*
X118056534Y-109423138D01*
X117652862Y-109019466D01*
X117125439Y-108801000D01*
X116554561Y-108801000D01*
X116027138Y-109019466D01*
X115623466Y-109423138D01*
X115596475Y-109488299D01*
X115593864Y-109481995D01*
X115347745Y-109407861D01*
X114519605Y-110236000D01*
X115347745Y-111064139D01*
X115593864Y-110990005D01*
X115596290Y-110983254D01*
X115623466Y-111048862D01*
X116027138Y-111452534D01*
X116462821Y-111633000D01*
X114748445Y-111633000D01*
X115094005Y-111489864D01*
X115168139Y-111243745D01*
X114340000Y-110415605D01*
X113511861Y-111243745D01*
X113585995Y-111489864D01*
X113984215Y-111633000D01*
X112137179Y-111633000D01*
X112572862Y-111452534D01*
X112976534Y-111048862D01*
X113043525Y-110887132D01*
X113086136Y-110990005D01*
X113332255Y-111064139D01*
X114160395Y-110236000D01*
X113332255Y-109407861D01*
X113086136Y-109481995D01*
X113046542Y-109592151D01*
X112976534Y-109423138D01*
X112781651Y-109228255D01*
X113511861Y-109228255D01*
X114340000Y-110056395D01*
X115168139Y-109228255D01*
X115094005Y-108982136D01*
X114556777Y-108789035D01*
X113986546Y-108816222D01*
X113585995Y-108982136D01*
X113511861Y-109228255D01*
X112781651Y-109228255D01*
X112572862Y-109019466D01*
X112045439Y-108801000D01*
X111474561Y-108801000D01*
X110947138Y-109019466D01*
X110543466Y-109423138D01*
X110325000Y-109950561D01*
X110325000Y-110521439D01*
X110543466Y-111048862D01*
X110947138Y-111452534D01*
X111382821Y-111633000D01*
X104472372Y-111633000D01*
X104699909Y-111587740D01*
X105174577Y-111270577D01*
X105491740Y-110795909D01*
X105603113Y-110236000D01*
X105491740Y-109676091D01*
X105174577Y-109201423D01*
X104699909Y-108884260D01*
X104281333Y-108801000D01*
X103998667Y-108801000D01*
X103580091Y-108884260D01*
X103105423Y-109201423D01*
X102870394Y-109553168D01*
X102816534Y-109423138D01*
X102412862Y-109019466D01*
X101885439Y-108801000D01*
X101314561Y-108801000D01*
X101261698Y-108822897D01*
X100455000Y-108016199D01*
X100455000Y-106997186D01*
X100552235Y-107062157D01*
X100800000Y-107111440D01*
X102400000Y-107111440D01*
X102647765Y-107062157D01*
X102857809Y-106921809D01*
X102998157Y-106711765D01*
X103047440Y-106464000D01*
X103047440Y-105886561D01*
X104737000Y-105886561D01*
X104737000Y-106457439D01*
X104955466Y-106984862D01*
X105359138Y-107388534D01*
X105404047Y-107407136D01*
X105397112Y-107442000D01*
X105456097Y-107738537D01*
X105477689Y-107770851D01*
X105624072Y-107989929D01*
X105687527Y-108032328D01*
X106089672Y-108434475D01*
X106132071Y-108497929D01*
X106195524Y-108540327D01*
X106195526Y-108540329D01*
X106320902Y-108624102D01*
X106383463Y-108665904D01*
X106605148Y-108710000D01*
X106605152Y-108710000D01*
X106679999Y-108724888D01*
X106754846Y-108710000D01*
X112955153Y-108710000D01*
X113030000Y-108724888D01*
X113104847Y-108710000D01*
X113104852Y-108710000D01*
X113326537Y-108665904D01*
X113577929Y-108497929D01*
X113620331Y-108434470D01*
X113768470Y-108286331D01*
X113831929Y-108243929D01*
X113999904Y-107992537D01*
X114044000Y-107770852D01*
X114044000Y-107770848D01*
X114058888Y-107696001D01*
X114044000Y-107621154D01*
X114044000Y-107410430D01*
X114096862Y-107388534D01*
X114500534Y-106984862D01*
X114719000Y-106457439D01*
X114719000Y-105886561D01*
X115405000Y-105886561D01*
X115405000Y-106457439D01*
X115623466Y-106984862D01*
X116027138Y-107388534D01*
X116554561Y-107607000D01*
X117125439Y-107607000D01*
X117652862Y-107388534D01*
X118056534Y-106984862D01*
X118275000Y-106457439D01*
X118275000Y-105886561D01*
X118056534Y-105359138D01*
X117652862Y-104955466D01*
X117125439Y-104737000D01*
X116554561Y-104737000D01*
X116027138Y-104955466D01*
X115623466Y-105359138D01*
X115405000Y-105886561D01*
X114719000Y-105886561D01*
X114500534Y-105359138D01*
X114096862Y-104955466D01*
X113569439Y-104737000D01*
X112998561Y-104737000D01*
X112471138Y-104955466D01*
X112067466Y-105359138D01*
X111849000Y-105886561D01*
X111849000Y-106457439D01*
X112067466Y-106984862D01*
X112272604Y-107190000D01*
X110773653Y-107190000D01*
X111079740Y-106731909D01*
X111191113Y-106172000D01*
X111079740Y-105612091D01*
X110762577Y-105137423D01*
X110287909Y-104820260D01*
X109869333Y-104737000D01*
X109586667Y-104737000D01*
X109168091Y-104820260D01*
X108693423Y-105137423D01*
X108376260Y-105612091D01*
X108264887Y-106172000D01*
X108376260Y-106731909D01*
X108682347Y-107190000D01*
X107183396Y-107190000D01*
X107388534Y-106984862D01*
X107607000Y-106457439D01*
X107607000Y-105886561D01*
X107388534Y-105359138D01*
X106984862Y-104955466D01*
X106457439Y-104737000D01*
X105886561Y-104737000D01*
X105359138Y-104955466D01*
X104955466Y-105359138D01*
X104737000Y-105886561D01*
X103047440Y-105886561D01*
X103047440Y-104864000D01*
X102998157Y-104616235D01*
X102857809Y-104406191D01*
X102647765Y-104265843D01*
X102513894Y-104239215D01*
X102634577Y-104158577D01*
X102851004Y-103834670D01*
X119369000Y-103834670D01*
X119369000Y-104445330D01*
X119602690Y-105009507D01*
X120034493Y-105441310D01*
X120598670Y-105675000D01*
X121209330Y-105675000D01*
X121773507Y-105441310D01*
X121949861Y-105264956D01*
X122005673Y-105399699D01*
X122184302Y-105578327D01*
X122417691Y-105675000D01*
X123158250Y-105675000D01*
X123317000Y-105516250D01*
X123317000Y-104267000D01*
X123571000Y-104267000D01*
X123571000Y-105516250D01*
X123729750Y-105675000D01*
X124470309Y-105675000D01*
X124703698Y-105578327D01*
X124882327Y-105399699D01*
X124979000Y-105166310D01*
X124979000Y-104425750D01*
X124820250Y-104267000D01*
X123571000Y-104267000D01*
X123317000Y-104267000D01*
X123297000Y-104267000D01*
X123297000Y-104013000D01*
X123317000Y-104013000D01*
X123317000Y-102763750D01*
X123571000Y-102763750D01*
X123571000Y-104013000D01*
X124820250Y-104013000D01*
X124979000Y-103854250D01*
X124979000Y-103113690D01*
X124882327Y-102880301D01*
X124703698Y-102701673D01*
X124470309Y-102605000D01*
X123729750Y-102605000D01*
X123571000Y-102763750D01*
X123317000Y-102763750D01*
X123158250Y-102605000D01*
X122417691Y-102605000D01*
X122184302Y-102701673D01*
X122005673Y-102880301D01*
X121949861Y-103015044D01*
X121773507Y-102838690D01*
X121209330Y-102605000D01*
X120598670Y-102605000D01*
X120034493Y-102838690D01*
X119602690Y-103270493D01*
X119369000Y-103834670D01*
X102851004Y-103834670D01*
X102951740Y-103683909D01*
X103063113Y-103124000D01*
X102951740Y-102564091D01*
X102634577Y-102089423D01*
X102282242Y-101854000D01*
X102634577Y-101618577D01*
X102951740Y-101143909D01*
X103063113Y-100584000D01*
X102998688Y-100260113D01*
X104709405Y-98549397D01*
X104708887Y-98552000D01*
X104820260Y-99111909D01*
X105137423Y-99586577D01*
X105612091Y-99903740D01*
X106030667Y-99987000D01*
X106313333Y-99987000D01*
X106731909Y-99903740D01*
X107206577Y-99586577D01*
X107523740Y-99111909D01*
X107635113Y-98552000D01*
X107523740Y-97992091D01*
X107206577Y-97517423D01*
X106946283Y-97343500D01*
X108907104Y-97343500D01*
X108511466Y-97739138D01*
X108293000Y-98266561D01*
X108293000Y-98837439D01*
X108511466Y-99364862D01*
X108915138Y-99768534D01*
X109442561Y-99987000D01*
X110013439Y-99987000D01*
X110540862Y-99768534D01*
X110944534Y-99364862D01*
X111163000Y-98837439D01*
X111163000Y-98266561D01*
X110944534Y-97739138D01*
X110548896Y-97343500D01*
X112509717Y-97343500D01*
X112249423Y-97517423D01*
X111932260Y-97992091D01*
X111820887Y-98552000D01*
X111932260Y-99111909D01*
X112249423Y-99586577D01*
X112724091Y-99903740D01*
X113142667Y-99987000D01*
X113425333Y-99987000D01*
X113843909Y-99903740D01*
X114318577Y-99586577D01*
X114635740Y-99111909D01*
X114747113Y-98552000D01*
X114635740Y-97992091D01*
X114318577Y-97517423D01*
X114058283Y-97343500D01*
X116065717Y-97343500D01*
X115805423Y-97517423D01*
X115488260Y-97992091D01*
X115376887Y-98552000D01*
X115488260Y-99111909D01*
X115805423Y-99586577D01*
X116280091Y-99903740D01*
X116698667Y-99987000D01*
X116981333Y-99987000D01*
X117399909Y-99903740D01*
X117874577Y-99586577D01*
X117945528Y-99480390D01*
X126066524Y-99480390D01*
X126236355Y-99890424D01*
X126626642Y-100318683D01*
X127151108Y-100564986D01*
X127381000Y-100444319D01*
X127381000Y-99250500D01*
X127635000Y-99250500D01*
X127635000Y-100444319D01*
X127864892Y-100564986D01*
X128389358Y-100318683D01*
X128779645Y-99890424D01*
X128949476Y-99480390D01*
X128828155Y-99250500D01*
X127635000Y-99250500D01*
X127381000Y-99250500D01*
X126187845Y-99250500D01*
X126066524Y-99480390D01*
X117945528Y-99480390D01*
X118191740Y-99111909D01*
X118303113Y-98552000D01*
X118191740Y-97992091D01*
X117874577Y-97517423D01*
X117614283Y-97343500D01*
X126010560Y-97343500D01*
X126010560Y-97433500D01*
X126059843Y-97681265D01*
X126200191Y-97891309D01*
X126410235Y-98031657D01*
X126513708Y-98052239D01*
X126236355Y-98356576D01*
X126066524Y-98766610D01*
X126187845Y-98996500D01*
X127381000Y-98996500D01*
X127381000Y-98976500D01*
X127635000Y-98976500D01*
X127635000Y-98996500D01*
X128828155Y-98996500D01*
X128949476Y-98766610D01*
X128779645Y-98356576D01*
X128502292Y-98052239D01*
X128605765Y-98031657D01*
X128815809Y-97891309D01*
X128956157Y-97681265D01*
X129005440Y-97433500D01*
X129005440Y-95733500D01*
X128956157Y-95485735D01*
X128815809Y-95275691D01*
X128605765Y-95135343D01*
X128358000Y-95086060D01*
X126658000Y-95086060D01*
X126410235Y-95135343D01*
X126200191Y-95275691D01*
X126059843Y-95485735D01*
X126010560Y-95733500D01*
X126010560Y-95823500D01*
X121053468Y-95823500D01*
X121279914Y-95345041D01*
X121158629Y-95123000D01*
X120015000Y-95123000D01*
X120015000Y-95143000D01*
X119761000Y-95143000D01*
X119761000Y-95123000D01*
X118617371Y-95123000D01*
X118496086Y-95345041D01*
X118722532Y-95823500D01*
X117504941Y-95823500D01*
X117683740Y-95555909D01*
X117795113Y-94996000D01*
X117725685Y-94646959D01*
X118496086Y-94646959D01*
X118617371Y-94869000D01*
X119761000Y-94869000D01*
X119761000Y-93726085D01*
X120015000Y-93726085D01*
X120015000Y-94869000D01*
X121158629Y-94869000D01*
X121279914Y-94646959D01*
X121040389Y-94140866D01*
X120625423Y-93764959D01*
X120237039Y-93604096D01*
X120015000Y-93726085D01*
X119761000Y-93726085D01*
X119538961Y-93604096D01*
X119150577Y-93764959D01*
X118735611Y-94140866D01*
X118496086Y-94646959D01*
X117725685Y-94646959D01*
X117683740Y-94436091D01*
X117366577Y-93961423D01*
X116891909Y-93644260D01*
X116473333Y-93561000D01*
X116190667Y-93561000D01*
X115772091Y-93644260D01*
X115297423Y-93961423D01*
X114980260Y-94436091D01*
X114868887Y-94996000D01*
X114980260Y-95555909D01*
X115159059Y-95823500D01*
X113809653Y-95823500D01*
X114096862Y-95704534D01*
X114500534Y-95300862D01*
X114719000Y-94773439D01*
X114719000Y-94202561D01*
X114500534Y-93675138D01*
X114096862Y-93271466D01*
X113569439Y-93053000D01*
X112998561Y-93053000D01*
X112471138Y-93271466D01*
X112067466Y-93675138D01*
X111849000Y-94202561D01*
X111849000Y-94773439D01*
X112067466Y-95300862D01*
X112471138Y-95704534D01*
X112758347Y-95823500D01*
X106248214Y-95823500D01*
X106698577Y-95522577D01*
X107015740Y-95047909D01*
X107127113Y-94488000D01*
X107015740Y-93928091D01*
X106879371Y-93724000D01*
X110669153Y-93724000D01*
X110744000Y-93738888D01*
X110818847Y-93724000D01*
X110818852Y-93724000D01*
X111040537Y-93679904D01*
X111291929Y-93511929D01*
X111334331Y-93448470D01*
X115993699Y-88789104D01*
X116046561Y-88811000D01*
X116617439Y-88811000D01*
X117144862Y-88592534D01*
X117548534Y-88188862D01*
X117767000Y-87661439D01*
X117767000Y-87090561D01*
X117548534Y-86563138D01*
X117472396Y-86487000D01*
X118747604Y-86487000D01*
X118671466Y-86563138D01*
X118671466Y-86563138D01*
G37*
X118671466Y-86563138D02*
X118453000Y-87090561D01*
X118453000Y-87661439D01*
X118671466Y-88188862D01*
X119075138Y-88592534D01*
X119602561Y-88811000D01*
X120173439Y-88811000D01*
X120700862Y-88592534D01*
X120925896Y-88367500D01*
X126010560Y-88367500D01*
X126010560Y-90067500D01*
X126059843Y-90315265D01*
X126200191Y-90525309D01*
X126410235Y-90665657D01*
X126658000Y-90714940D01*
X128358000Y-90714940D01*
X128605765Y-90665657D01*
X128815809Y-90525309D01*
X128956157Y-90315265D01*
X129005440Y-90067500D01*
X129005440Y-88367500D01*
X128956157Y-88119735D01*
X128815809Y-87909691D01*
X128605765Y-87769343D01*
X128358000Y-87720060D01*
X126658000Y-87720060D01*
X126410235Y-87769343D01*
X126200191Y-87909691D01*
X126059843Y-88119735D01*
X126010560Y-88367500D01*
X120925896Y-88367500D01*
X121104534Y-88188862D01*
X121323000Y-87661439D01*
X121323000Y-87090561D01*
X121104534Y-86563138D01*
X121028396Y-86487000D01*
X128001956Y-86487000D01*
X128088698Y-86497958D01*
X128319886Y-86589492D01*
X129315342Y-87584948D01*
X129370067Y-87701244D01*
X129413000Y-87926307D01*
X129413000Y-110221957D01*
X129402042Y-110308699D01*
X129310509Y-110539885D01*
X128315051Y-111535343D01*
X128198756Y-111590067D01*
X127973693Y-111633000D01*
X127332372Y-111633000D01*
X127559909Y-111587740D01*
X128034577Y-111270577D01*
X128351740Y-110795909D01*
X128463113Y-110236000D01*
X128351740Y-109676091D01*
X128034577Y-109201423D01*
X127559909Y-108884260D01*
X127141333Y-108801000D01*
X126858667Y-108801000D01*
X126440091Y-108884260D01*
X125965423Y-109201423D01*
X125648260Y-109676091D01*
X125536887Y-110236000D01*
X125648260Y-110795909D01*
X125965423Y-111270577D01*
X126440091Y-111587740D01*
X126667628Y-111633000D01*
X119757179Y-111633000D01*
X120192862Y-111452534D01*
X120596534Y-111048862D01*
X120815000Y-110521439D01*
X120815000Y-109950561D01*
X120596534Y-109423138D01*
X120192862Y-109019466D01*
X119665439Y-108801000D01*
X119094561Y-108801000D01*
X118567138Y-109019466D01*
X118163466Y-109423138D01*
X118110000Y-109552216D01*
X118056534Y-109423138D01*
X117652862Y-109019466D01*
X117125439Y-108801000D01*
X116554561Y-108801000D01*
X116027138Y-109019466D01*
X115623466Y-109423138D01*
X115596475Y-109488299D01*
X115593864Y-109481995D01*
X115347745Y-109407861D01*
X114519605Y-110236000D01*
X115347745Y-111064139D01*
X115593864Y-110990005D01*
X115596290Y-110983254D01*
X115623466Y-111048862D01*
X116027138Y-111452534D01*
X116462821Y-111633000D01*
X114748445Y-111633000D01*
X115094005Y-111489864D01*
X115168139Y-111243745D01*
X114340000Y-110415605D01*
X113511861Y-111243745D01*
X113585995Y-111489864D01*
X113984215Y-111633000D01*
X112137179Y-111633000D01*
X112572862Y-111452534D01*
X112976534Y-111048862D01*
X113043525Y-110887132D01*
X113086136Y-110990005D01*
X113332255Y-111064139D01*
X114160395Y-110236000D01*
X113332255Y-109407861D01*
X113086136Y-109481995D01*
X113046542Y-109592151D01*
X112976534Y-109423138D01*
X112781651Y-109228255D01*
X113511861Y-109228255D01*
X114340000Y-110056395D01*
X115168139Y-109228255D01*
X115094005Y-108982136D01*
X114556777Y-108789035D01*
X113986546Y-108816222D01*
X113585995Y-108982136D01*
X113511861Y-109228255D01*
X112781651Y-109228255D01*
X112572862Y-109019466D01*
X112045439Y-108801000D01*
X111474561Y-108801000D01*
X110947138Y-109019466D01*
X110543466Y-109423138D01*
X110325000Y-109950561D01*
X110325000Y-110521439D01*
X110543466Y-111048862D01*
X110947138Y-111452534D01*
X111382821Y-111633000D01*
X104472372Y-111633000D01*
X104699909Y-111587740D01*
X105174577Y-111270577D01*
X105491740Y-110795909D01*
X105603113Y-110236000D01*
X105491740Y-109676091D01*
X105174577Y-109201423D01*
X104699909Y-108884260D01*
X104281333Y-108801000D01*
X103998667Y-108801000D01*
X103580091Y-108884260D01*
X103105423Y-109201423D01*
X102870394Y-109553168D01*
X102816534Y-109423138D01*
X102412862Y-109019466D01*
X101885439Y-108801000D01*
X101314561Y-108801000D01*
X101261698Y-108822897D01*
X100455000Y-108016199D01*
X100455000Y-106997186D01*
X100552235Y-107062157D01*
X100800000Y-107111440D01*
X102400000Y-107111440D01*
X102647765Y-107062157D01*
X102857809Y-106921809D01*
X102998157Y-106711765D01*
X103047440Y-106464000D01*
X103047440Y-105886561D01*
X104737000Y-105886561D01*
X104737000Y-106457439D01*
X104955466Y-106984862D01*
X105359138Y-107388534D01*
X105404047Y-107407136D01*
X105397112Y-107442000D01*
X105456097Y-107738537D01*
X105477689Y-107770851D01*
X105624072Y-107989929D01*
X105687527Y-108032328D01*
X106089672Y-108434475D01*
X106132071Y-108497929D01*
X106195524Y-108540327D01*
X106195526Y-108540329D01*
X106320902Y-108624102D01*
X106383463Y-108665904D01*
X106605148Y-108710000D01*
X106605152Y-108710000D01*
X106679999Y-108724888D01*
X106754846Y-108710000D01*
X112955153Y-108710000D01*
X113030000Y-108724888D01*
X113104847Y-108710000D01*
X113104852Y-108710000D01*
X113326537Y-108665904D01*
X113577929Y-108497929D01*
X113620331Y-108434470D01*
X113768470Y-108286331D01*
X113831929Y-108243929D01*
X113999904Y-107992537D01*
X114044000Y-107770852D01*
X114044000Y-107770848D01*
X114058888Y-107696001D01*
X114044000Y-107621154D01*
X114044000Y-107410430D01*
X114096862Y-107388534D01*
X114500534Y-106984862D01*
X114719000Y-106457439D01*
X114719000Y-105886561D01*
X115405000Y-105886561D01*
X115405000Y-106457439D01*
X115623466Y-106984862D01*
X116027138Y-107388534D01*
X116554561Y-107607000D01*
X117125439Y-107607000D01*
X117652862Y-107388534D01*
X118056534Y-106984862D01*
X118275000Y-106457439D01*
X118275000Y-105886561D01*
X118056534Y-105359138D01*
X117652862Y-104955466D01*
X117125439Y-104737000D01*
X116554561Y-104737000D01*
X116027138Y-104955466D01*
X115623466Y-105359138D01*
X115405000Y-105886561D01*
X114719000Y-105886561D01*
X114500534Y-105359138D01*
X114096862Y-104955466D01*
X113569439Y-104737000D01*
X112998561Y-104737000D01*
X112471138Y-104955466D01*
X112067466Y-105359138D01*
X111849000Y-105886561D01*
X111849000Y-106457439D01*
X112067466Y-106984862D01*
X112272604Y-107190000D01*
X110773653Y-107190000D01*
X111079740Y-106731909D01*
X111191113Y-106172000D01*
X111079740Y-105612091D01*
X110762577Y-105137423D01*
X110287909Y-104820260D01*
X109869333Y-104737000D01*
X109586667Y-104737000D01*
X109168091Y-104820260D01*
X108693423Y-105137423D01*
X108376260Y-105612091D01*
X108264887Y-106172000D01*
X108376260Y-106731909D01*
X108682347Y-107190000D01*
X107183396Y-107190000D01*
X107388534Y-106984862D01*
X107607000Y-106457439D01*
X107607000Y-105886561D01*
X107388534Y-105359138D01*
X106984862Y-104955466D01*
X106457439Y-104737000D01*
X105886561Y-104737000D01*
X105359138Y-104955466D01*
X104955466Y-105359138D01*
X104737000Y-105886561D01*
X103047440Y-105886561D01*
X103047440Y-104864000D01*
X102998157Y-104616235D01*
X102857809Y-104406191D01*
X102647765Y-104265843D01*
X102513894Y-104239215D01*
X102634577Y-104158577D01*
X102851004Y-103834670D01*
X119369000Y-103834670D01*
X119369000Y-104445330D01*
X119602690Y-105009507D01*
X120034493Y-105441310D01*
X120598670Y-105675000D01*
X121209330Y-105675000D01*
X121773507Y-105441310D01*
X121949861Y-105264956D01*
X122005673Y-105399699D01*
X122184302Y-105578327D01*
X122417691Y-105675000D01*
X123158250Y-105675000D01*
X123317000Y-105516250D01*
X123317000Y-104267000D01*
X123571000Y-104267000D01*
X123571000Y-105516250D01*
X123729750Y-105675000D01*
X124470309Y-105675000D01*
X124703698Y-105578327D01*
X124882327Y-105399699D01*
X124979000Y-105166310D01*
X124979000Y-104425750D01*
X124820250Y-104267000D01*
X123571000Y-104267000D01*
X123317000Y-104267000D01*
X123297000Y-104267000D01*
X123297000Y-104013000D01*
X123317000Y-104013000D01*
X123317000Y-102763750D01*
X123571000Y-102763750D01*
X123571000Y-104013000D01*
X124820250Y-104013000D01*
X124979000Y-103854250D01*
X124979000Y-103113690D01*
X124882327Y-102880301D01*
X124703698Y-102701673D01*
X124470309Y-102605000D01*
X123729750Y-102605000D01*
X123571000Y-102763750D01*
X123317000Y-102763750D01*
X123158250Y-102605000D01*
X122417691Y-102605000D01*
X122184302Y-102701673D01*
X122005673Y-102880301D01*
X121949861Y-103015044D01*
X121773507Y-102838690D01*
X121209330Y-102605000D01*
X120598670Y-102605000D01*
X120034493Y-102838690D01*
X119602690Y-103270493D01*
X119369000Y-103834670D01*
X102851004Y-103834670D01*
X102951740Y-103683909D01*
X103063113Y-103124000D01*
X102951740Y-102564091D01*
X102634577Y-102089423D01*
X102282242Y-101854000D01*
X102634577Y-101618577D01*
X102951740Y-101143909D01*
X103063113Y-100584000D01*
X102998688Y-100260113D01*
X104709405Y-98549397D01*
X104708887Y-98552000D01*
X104820260Y-99111909D01*
X105137423Y-99586577D01*
X105612091Y-99903740D01*
X106030667Y-99987000D01*
X106313333Y-99987000D01*
X106731909Y-99903740D01*
X107206577Y-99586577D01*
X107523740Y-99111909D01*
X107635113Y-98552000D01*
X107523740Y-97992091D01*
X107206577Y-97517423D01*
X106946283Y-97343500D01*
X108907104Y-97343500D01*
X108511466Y-97739138D01*
X108293000Y-98266561D01*
X108293000Y-98837439D01*
X108511466Y-99364862D01*
X108915138Y-99768534D01*
X109442561Y-99987000D01*
X110013439Y-99987000D01*
X110540862Y-99768534D01*
X110944534Y-99364862D01*
X111163000Y-98837439D01*
X111163000Y-98266561D01*
X110944534Y-97739138D01*
X110548896Y-97343500D01*
X112509717Y-97343500D01*
X112249423Y-97517423D01*
X111932260Y-97992091D01*
X111820887Y-98552000D01*
X111932260Y-99111909D01*
X112249423Y-99586577D01*
X112724091Y-99903740D01*
X113142667Y-99987000D01*
X113425333Y-99987000D01*
X113843909Y-99903740D01*
X114318577Y-99586577D01*
X114635740Y-99111909D01*
X114747113Y-98552000D01*
X114635740Y-97992091D01*
X114318577Y-97517423D01*
X114058283Y-97343500D01*
X116065717Y-97343500D01*
X115805423Y-97517423D01*
X115488260Y-97992091D01*
X115376887Y-98552000D01*
X115488260Y-99111909D01*
X115805423Y-99586577D01*
X116280091Y-99903740D01*
X116698667Y-99987000D01*
X116981333Y-99987000D01*
X117399909Y-99903740D01*
X117874577Y-99586577D01*
X117945528Y-99480390D01*
X126066524Y-99480390D01*
X126236355Y-99890424D01*
X126626642Y-100318683D01*
X127151108Y-100564986D01*
X127381000Y-100444319D01*
X127381000Y-99250500D01*
X127635000Y-99250500D01*
X127635000Y-100444319D01*
X127864892Y-100564986D01*
X128389358Y-100318683D01*
X128779645Y-99890424D01*
X128949476Y-99480390D01*
X128828155Y-99250500D01*
X127635000Y-99250500D01*
X127381000Y-99250500D01*
X126187845Y-99250500D01*
X126066524Y-99480390D01*
X117945528Y-99480390D01*
X118191740Y-99111909D01*
X118303113Y-98552000D01*
X118191740Y-97992091D01*
X117874577Y-97517423D01*
X117614283Y-97343500D01*
X126010560Y-97343500D01*
X126010560Y-97433500D01*
X126059843Y-97681265D01*
X126200191Y-97891309D01*
X126410235Y-98031657D01*
X126513708Y-98052239D01*
X126236355Y-98356576D01*
X126066524Y-98766610D01*
X126187845Y-98996500D01*
X127381000Y-98996500D01*
X127381000Y-98976500D01*
X127635000Y-98976500D01*
X127635000Y-98996500D01*
X128828155Y-98996500D01*
X128949476Y-98766610D01*
X128779645Y-98356576D01*
X128502292Y-98052239D01*
X128605765Y-98031657D01*
X128815809Y-97891309D01*
X128956157Y-97681265D01*
X129005440Y-97433500D01*
X129005440Y-95733500D01*
X128956157Y-95485735D01*
X128815809Y-95275691D01*
X128605765Y-95135343D01*
X128358000Y-95086060D01*
X126658000Y-95086060D01*
X126410235Y-95135343D01*
X126200191Y-95275691D01*
X126059843Y-95485735D01*
X126010560Y-95733500D01*
X126010560Y-95823500D01*
X121053468Y-95823500D01*
X121279914Y-95345041D01*
X121158629Y-95123000D01*
X120015000Y-95123000D01*
X120015000Y-95143000D01*
X119761000Y-95143000D01*
X119761000Y-95123000D01*
X118617371Y-95123000D01*
X118496086Y-95345041D01*
X118722532Y-95823500D01*
X117504941Y-95823500D01*
X117683740Y-95555909D01*
X117795113Y-94996000D01*
X117725685Y-94646959D01*
X118496086Y-94646959D01*
X118617371Y-94869000D01*
X119761000Y-94869000D01*
X119761000Y-93726085D01*
X120015000Y-93726085D01*
X120015000Y-94869000D01*
X121158629Y-94869000D01*
X121279914Y-94646959D01*
X121040389Y-94140866D01*
X120625423Y-93764959D01*
X120237039Y-93604096D01*
X120015000Y-93726085D01*
X119761000Y-93726085D01*
X119538961Y-93604096D01*
X119150577Y-93764959D01*
X118735611Y-94140866D01*
X118496086Y-94646959D01*
X117725685Y-94646959D01*
X117683740Y-94436091D01*
X117366577Y-93961423D01*
X116891909Y-93644260D01*
X116473333Y-93561000D01*
X116190667Y-93561000D01*
X115772091Y-93644260D01*
X115297423Y-93961423D01*
X114980260Y-94436091D01*
X114868887Y-94996000D01*
X114980260Y-95555909D01*
X115159059Y-95823500D01*
X113809653Y-95823500D01*
X114096862Y-95704534D01*
X114500534Y-95300862D01*
X114719000Y-94773439D01*
X114719000Y-94202561D01*
X114500534Y-93675138D01*
X114096862Y-93271466D01*
X113569439Y-93053000D01*
X112998561Y-93053000D01*
X112471138Y-93271466D01*
X112067466Y-93675138D01*
X111849000Y-94202561D01*
X111849000Y-94773439D01*
X112067466Y-95300862D01*
X112471138Y-95704534D01*
X112758347Y-95823500D01*
X106248214Y-95823500D01*
X106698577Y-95522577D01*
X107015740Y-95047909D01*
X107127113Y-94488000D01*
X107015740Y-93928091D01*
X106879371Y-93724000D01*
X110669153Y-93724000D01*
X110744000Y-93738888D01*
X110818847Y-93724000D01*
X110818852Y-93724000D01*
X111040537Y-93679904D01*
X111291929Y-93511929D01*
X111334331Y-93448470D01*
X115993699Y-88789104D01*
X116046561Y-88811000D01*
X116617439Y-88811000D01*
X117144862Y-88592534D01*
X117548534Y-88188862D01*
X117767000Y-87661439D01*
X117767000Y-87090561D01*
X117548534Y-86563138D01*
X117472396Y-86487000D01*
X118747604Y-86487000D01*
X118671466Y-86563138D01*
G36*
X115115466Y-86563138D02*
X114897000Y-87090561D01*
X114897000Y-87661439D01*
X114918896Y-87714301D01*
X110429199Y-92204000D01*
X102818043Y-92204000D01*
X102634577Y-91929423D01*
X102282242Y-91694000D01*
X102634577Y-91458577D01*
X102951740Y-90983909D01*
X103063113Y-90424000D01*
X102951740Y-89864091D01*
X102634577Y-89389423D01*
X102159909Y-89072260D01*
X101741333Y-88989000D01*
X101458667Y-88989000D01*
X101040091Y-89072260D01*
X100565423Y-89389423D01*
X100248260Y-89864091D01*
X100136887Y-90424000D01*
X100248260Y-90983909D01*
X100565423Y-91458577D01*
X100917758Y-91694000D01*
X100565423Y-91929423D01*
X100248260Y-92404091D01*
X100136887Y-92964000D01*
X100248260Y-93523909D01*
X100565423Y-93998577D01*
X100917758Y-94234000D01*
X100565423Y-94469423D01*
X100248260Y-94944091D01*
X100136887Y-95504000D01*
X100248260Y-96063909D01*
X100565423Y-96538577D01*
X100917758Y-96774000D01*
X100565423Y-97009423D01*
X100380145Y-97286712D01*
X100172093Y-97328096D01*
X99920701Y-97496071D01*
X99878301Y-97559527D01*
X99210530Y-98227299D01*
X99147071Y-98269701D01*
X98979096Y-98521094D01*
X98935000Y-98742779D01*
X98935000Y-98742783D01*
X98920112Y-98817630D01*
X98935000Y-98892477D01*
X98935001Y-108256148D01*
X98920112Y-108331000D01*
X98979097Y-108627537D01*
X99087007Y-108789035D01*
X99147072Y-108878929D01*
X99210528Y-108921329D01*
X100186897Y-109897698D01*
X100165000Y-109950561D01*
X100165000Y-110521439D01*
X100383466Y-111048862D01*
X100787138Y-111452534D01*
X101222821Y-111633000D01*
X94107002Y-111633000D01*
X94107002Y-111506630D01*
X94329041Y-111627914D01*
X94835134Y-111388389D01*
X95211041Y-110973423D01*
X95371904Y-110585039D01*
X95249915Y-110363000D01*
X94107000Y-110363000D01*
X94107000Y-110383000D01*
X93853000Y-110383000D01*
X93853000Y-110363000D01*
X92710085Y-110363000D01*
X92588096Y-110585039D01*
X92748959Y-110973423D01*
X93124866Y-111388389D01*
X93630959Y-111627914D01*
X93852998Y-111506630D01*
X93852998Y-111633000D01*
X68213043Y-111633000D01*
X68126301Y-111622042D01*
X67962401Y-111557149D01*
X66802000Y-109816548D01*
X66802000Y-108712000D01*
X70265051Y-108712000D01*
X70407469Y-109427981D01*
X70813039Y-110034961D01*
X71420019Y-110440531D01*
X71955273Y-110547000D01*
X72316727Y-110547000D01*
X72851981Y-110440531D01*
X73458961Y-110034961D01*
X73864531Y-109427981D01*
X74006949Y-108712000D01*
X73934345Y-108346996D01*
X85541000Y-108346996D01*
X85541000Y-109077004D01*
X85820362Y-109751444D01*
X86336556Y-110267638D01*
X87010996Y-110547000D01*
X87741004Y-110547000D01*
X88415444Y-110267638D01*
X88796121Y-109886961D01*
X92588096Y-109886961D01*
X92710085Y-110109000D01*
X93853000Y-110109000D01*
X93853000Y-108965371D01*
X94107000Y-108965371D01*
X94107000Y-110109000D01*
X95249915Y-110109000D01*
X95371904Y-109886961D01*
X95211041Y-109498577D01*
X94835134Y-109083611D01*
X94329041Y-108844086D01*
X94107000Y-108965371D01*
X93853000Y-108965371D01*
X93630959Y-108844086D01*
X93124866Y-109083611D01*
X92748959Y-109498577D01*
X92588096Y-109886961D01*
X88796121Y-109886961D01*
X88931638Y-109751444D01*
X89211000Y-109077004D01*
X89211000Y-108346996D01*
X88931638Y-107672556D01*
X88415444Y-107156362D01*
X87741004Y-106877000D01*
X87010996Y-106877000D01*
X86336556Y-107156362D01*
X85820362Y-107672556D01*
X85541000Y-108346996D01*
X73934345Y-108346996D01*
X73864531Y-107996019D01*
X73458961Y-107389039D01*
X72851981Y-106983469D01*
X72316727Y-106877000D01*
X71955273Y-106877000D01*
X71420019Y-106983469D01*
X70813039Y-107389039D01*
X70407469Y-107996019D01*
X70265051Y-108712000D01*
X66802000Y-108712000D01*
X66802000Y-103124000D01*
X70265051Y-103124000D01*
X70407469Y-103839981D01*
X70813039Y-104446961D01*
X71420019Y-104852531D01*
X71955273Y-104959000D01*
X72316727Y-104959000D01*
X72851981Y-104852531D01*
X73458961Y-104446961D01*
X73864531Y-103839981D01*
X74006949Y-103124000D01*
X73934345Y-102758996D01*
X85541000Y-102758996D01*
X85541000Y-103489004D01*
X85820362Y-104163444D01*
X86336556Y-104679638D01*
X87010996Y-104959000D01*
X87741004Y-104959000D01*
X88415444Y-104679638D01*
X88931638Y-104163444D01*
X89211000Y-103489004D01*
X89211000Y-102838561D01*
X89497000Y-102838561D01*
X89497000Y-103409439D01*
X89715466Y-103936862D01*
X90119138Y-104340534D01*
X90646561Y-104559000D01*
X91217439Y-104559000D01*
X91744862Y-104340534D01*
X92148534Y-103936862D01*
X92367000Y-103409439D01*
X92367000Y-103124000D01*
X92516887Y-103124000D01*
X92628260Y-103683909D01*
X92945423Y-104158577D01*
X93297758Y-104394000D01*
X92945423Y-104629423D01*
X92628260Y-105104091D01*
X92516887Y-105664000D01*
X92628260Y-106223909D01*
X92945423Y-106698577D01*
X93420091Y-107015740D01*
X93838667Y-107099000D01*
X94121333Y-107099000D01*
X94539909Y-107015740D01*
X95014577Y-106698577D01*
X95331740Y-106223909D01*
X95443113Y-105664000D01*
X95331740Y-105104091D01*
X95014577Y-104629423D01*
X94662242Y-104394000D01*
X95014577Y-104158577D01*
X95331740Y-103683909D01*
X95443113Y-103124000D01*
X95331740Y-102564091D01*
X95014577Y-102089423D01*
X94630892Y-101833053D01*
X94835134Y-101736389D01*
X95211041Y-101321423D01*
X95371904Y-100933039D01*
X95249915Y-100711000D01*
X94107000Y-100711000D01*
X94107000Y-100731000D01*
X93853000Y-100731000D01*
X93853000Y-100711000D01*
X92710085Y-100711000D01*
X92588096Y-100933039D01*
X92748959Y-101321423D01*
X93124866Y-101736389D01*
X93329108Y-101833053D01*
X92945423Y-102089423D01*
X92628260Y-102564091D01*
X92516887Y-103124000D01*
X92367000Y-103124000D01*
X92367000Y-102838561D01*
X92148534Y-102311138D01*
X91744862Y-101907466D01*
X91217439Y-101689000D01*
X90646561Y-101689000D01*
X90119138Y-101907466D01*
X89715466Y-102311138D01*
X89497000Y-102838561D01*
X89211000Y-102838561D01*
X89211000Y-102758996D01*
X88931638Y-102084556D01*
X88415444Y-101568362D01*
X87741004Y-101289000D01*
X87010996Y-101289000D01*
X86336556Y-101568362D01*
X85820362Y-102084556D01*
X85541000Y-102758996D01*
X73934345Y-102758996D01*
X73864531Y-102408019D01*
X73458961Y-101801039D01*
X72851981Y-101395469D01*
X72316727Y-101289000D01*
X71955273Y-101289000D01*
X71420019Y-101395469D01*
X70813039Y-101801039D01*
X70407469Y-102408019D01*
X70265051Y-103124000D01*
X66802000Y-103124000D01*
X66802000Y-100584000D01*
X67065908Y-100584000D01*
X67181161Y-101163418D01*
X67509375Y-101654625D01*
X68000582Y-101982839D01*
X68433744Y-102069000D01*
X68726256Y-102069000D01*
X69159418Y-101982839D01*
X69650625Y-101654625D01*
X69978839Y-101163418D01*
X70094092Y-100584000D01*
X69978839Y-100004582D01*
X69650625Y-99513375D01*
X69632381Y-99501184D01*
X69677765Y-99492157D01*
X69887809Y-99351809D01*
X70028157Y-99141765D01*
X70077440Y-98894000D01*
X70077440Y-97194000D01*
X70028157Y-96946235D01*
X69887809Y-96736191D01*
X69677765Y-96595843D01*
X69430000Y-96546560D01*
X67730000Y-96546560D01*
X67482235Y-96595843D01*
X67272191Y-96736191D01*
X67131843Y-96946235D01*
X67082560Y-97194000D01*
X67082560Y-98894000D01*
X67131843Y-99141765D01*
X67272191Y-99351809D01*
X67482235Y-99492157D01*
X67527619Y-99501184D01*
X67509375Y-99513375D01*
X67181161Y-100004582D01*
X67065908Y-100584000D01*
X66802000Y-100584000D01*
X66802000Y-95504000D01*
X70265051Y-95504000D01*
X70407469Y-96219981D01*
X70813039Y-96826961D01*
X71420019Y-97232531D01*
X71955273Y-97339000D01*
X72316727Y-97339000D01*
X72851981Y-97232531D01*
X73458961Y-96826961D01*
X73864531Y-96219981D01*
X74006949Y-95504000D01*
X73934345Y-95138996D01*
X85541000Y-95138996D01*
X85541000Y-95869004D01*
X85820362Y-96543444D01*
X86336556Y-97059638D01*
X87010996Y-97339000D01*
X87741004Y-97339000D01*
X88415444Y-97059638D01*
X88931638Y-96543444D01*
X89211000Y-95869004D01*
X89211000Y-95504000D01*
X89468887Y-95504000D01*
X89580260Y-96063909D01*
X89897423Y-96538577D01*
X90372091Y-96855740D01*
X90790667Y-96939000D01*
X91073333Y-96939000D01*
X91491909Y-96855740D01*
X91966577Y-96538577D01*
X92283740Y-96063909D01*
X92395113Y-95504000D01*
X92283740Y-94944091D01*
X91966577Y-94469423D01*
X91491909Y-94152260D01*
X91073333Y-94069000D01*
X90790667Y-94069000D01*
X90372091Y-94152260D01*
X89897423Y-94469423D01*
X89580260Y-94944091D01*
X89468887Y-95504000D01*
X89211000Y-95504000D01*
X89211000Y-95138996D01*
X88931638Y-94464556D01*
X88415444Y-93948362D01*
X87741004Y-93669000D01*
X87010996Y-93669000D01*
X86336556Y-93948362D01*
X85820362Y-94464556D01*
X85541000Y-95138996D01*
X73934345Y-95138996D01*
X73864531Y-94788019D01*
X73458961Y-94181039D01*
X72851981Y-93775469D01*
X72316727Y-93669000D01*
X71955273Y-93669000D01*
X71420019Y-93775469D01*
X70813039Y-94181039D01*
X70407469Y-94788019D01*
X70265051Y-95504000D01*
X66802000Y-95504000D01*
X66802000Y-89916000D01*
X70265051Y-89916000D01*
X70407469Y-90631981D01*
X70813039Y-91238961D01*
X71420019Y-91644531D01*
X71955273Y-91751000D01*
X72316727Y-91751000D01*
X72851981Y-91644531D01*
X73458961Y-91238961D01*
X73864531Y-90631981D01*
X74006949Y-89916000D01*
X73934345Y-89550996D01*
X85541000Y-89550996D01*
X85541000Y-90281004D01*
X85820362Y-90955444D01*
X86336556Y-91471638D01*
X87010996Y-91751000D01*
X87741004Y-91751000D01*
X88415444Y-91471638D01*
X88931638Y-90955444D01*
X89151769Y-90424000D01*
X92516887Y-90424000D01*
X92628260Y-90983909D01*
X92945423Y-91458577D01*
X93297758Y-91694000D01*
X92945423Y-91929423D01*
X92628260Y-92404091D01*
X92516887Y-92964000D01*
X92628260Y-93523909D01*
X92945423Y-93998577D01*
X93297758Y-94234000D01*
X92945423Y-94469423D01*
X92628260Y-94944091D01*
X92516887Y-95504000D01*
X92628260Y-96063909D01*
X92945423Y-96538577D01*
X93297758Y-96774000D01*
X92945423Y-97009423D01*
X92628260Y-97484091D01*
X92516887Y-98044000D01*
X92628260Y-98603909D01*
X92945423Y-99078577D01*
X93329108Y-99334947D01*
X93124866Y-99431611D01*
X92748959Y-99846577D01*
X92588096Y-100234961D01*
X92710085Y-100457000D01*
X93853000Y-100457000D01*
X93853000Y-100437000D01*
X94107000Y-100437000D01*
X94107000Y-100457000D01*
X95249915Y-100457000D01*
X95371904Y-100234961D01*
X95211041Y-99846577D01*
X94835134Y-99431611D01*
X94630892Y-99334947D01*
X95014577Y-99078577D01*
X95331740Y-98603909D01*
X95443113Y-98044000D01*
X95331740Y-97484091D01*
X95014577Y-97009423D01*
X94662242Y-96774000D01*
X95014577Y-96538577D01*
X95331740Y-96063909D01*
X95443113Y-95504000D01*
X95331740Y-94944091D01*
X95014577Y-94469423D01*
X94662242Y-94234000D01*
X95014577Y-93998577D01*
X95331740Y-93523909D01*
X95443113Y-92964000D01*
X95331740Y-92404091D01*
X95014577Y-91929423D01*
X94662242Y-91694000D01*
X95014577Y-91458577D01*
X95331740Y-90983909D01*
X95443113Y-90424000D01*
X95331740Y-89864091D01*
X95014577Y-89389423D01*
X94539909Y-89072260D01*
X94121333Y-88989000D01*
X93838667Y-88989000D01*
X93420091Y-89072260D01*
X92945423Y-89389423D01*
X92628260Y-89864091D01*
X92516887Y-90424000D01*
X89151769Y-90424000D01*
X89211000Y-90281004D01*
X89211000Y-89550996D01*
X88931638Y-88876556D01*
X88415444Y-88360362D01*
X87741004Y-88081000D01*
X87010996Y-88081000D01*
X86336556Y-88360362D01*
X85820362Y-88876556D01*
X85541000Y-89550996D01*
X73934345Y-89550996D01*
X73864531Y-89200019D01*
X73458961Y-88593039D01*
X72851981Y-88187469D01*
X72316727Y-88081000D01*
X71955273Y-88081000D01*
X71420019Y-88187469D01*
X70813039Y-88593039D01*
X70407469Y-89200019D01*
X70265051Y-89916000D01*
X66802000Y-89916000D01*
X66802000Y-88317606D01*
X68632606Y-86487000D01*
X115191604Y-86487000D01*
X115115466Y-86563138D01*
X115115466Y-86563138D01*
G37*
X115115466Y-86563138D02*
X114897000Y-87090561D01*
X114897000Y-87661439D01*
X114918896Y-87714301D01*
X110429199Y-92204000D01*
X102818043Y-92204000D01*
X102634577Y-91929423D01*
X102282242Y-91694000D01*
X102634577Y-91458577D01*
X102951740Y-90983909D01*
X103063113Y-90424000D01*
X102951740Y-89864091D01*
X102634577Y-89389423D01*
X102159909Y-89072260D01*
X101741333Y-88989000D01*
X101458667Y-88989000D01*
X101040091Y-89072260D01*
X100565423Y-89389423D01*
X100248260Y-89864091D01*
X100136887Y-90424000D01*
X100248260Y-90983909D01*
X100565423Y-91458577D01*
X100917758Y-91694000D01*
X100565423Y-91929423D01*
X100248260Y-92404091D01*
X100136887Y-92964000D01*
X100248260Y-93523909D01*
X100565423Y-93998577D01*
X100917758Y-94234000D01*
X100565423Y-94469423D01*
X100248260Y-94944091D01*
X100136887Y-95504000D01*
X100248260Y-96063909D01*
X100565423Y-96538577D01*
X100917758Y-96774000D01*
X100565423Y-97009423D01*
X100380145Y-97286712D01*
X100172093Y-97328096D01*
X99920701Y-97496071D01*
X99878301Y-97559527D01*
X99210530Y-98227299D01*
X99147071Y-98269701D01*
X98979096Y-98521094D01*
X98935000Y-98742779D01*
X98935000Y-98742783D01*
X98920112Y-98817630D01*
X98935000Y-98892477D01*
X98935001Y-108256148D01*
X98920112Y-108331000D01*
X98979097Y-108627537D01*
X99087007Y-108789035D01*
X99147072Y-108878929D01*
X99210528Y-108921329D01*
X100186897Y-109897698D01*
X100165000Y-109950561D01*
X100165000Y-110521439D01*
X100383466Y-111048862D01*
X100787138Y-111452534D01*
X101222821Y-111633000D01*
X94107002Y-111633000D01*
X94107002Y-111506630D01*
X94329041Y-111627914D01*
X94835134Y-111388389D01*
X95211041Y-110973423D01*
X95371904Y-110585039D01*
X95249915Y-110363000D01*
X94107000Y-110363000D01*
X94107000Y-110383000D01*
X93853000Y-110383000D01*
X93853000Y-110363000D01*
X92710085Y-110363000D01*
X92588096Y-110585039D01*
X92748959Y-110973423D01*
X93124866Y-111388389D01*
X93630959Y-111627914D01*
X93852998Y-111506630D01*
X93852998Y-111633000D01*
X68213043Y-111633000D01*
X68126301Y-111622042D01*
X67962401Y-111557149D01*
X66802000Y-109816548D01*
X66802000Y-108712000D01*
X70265051Y-108712000D01*
X70407469Y-109427981D01*
X70813039Y-110034961D01*
X71420019Y-110440531D01*
X71955273Y-110547000D01*
X72316727Y-110547000D01*
X72851981Y-110440531D01*
X73458961Y-110034961D01*
X73864531Y-109427981D01*
X74006949Y-108712000D01*
X73934345Y-108346996D01*
X85541000Y-108346996D01*
X85541000Y-109077004D01*
X85820362Y-109751444D01*
X86336556Y-110267638D01*
X87010996Y-110547000D01*
X87741004Y-110547000D01*
X88415444Y-110267638D01*
X88796121Y-109886961D01*
X92588096Y-109886961D01*
X92710085Y-110109000D01*
X93853000Y-110109000D01*
X93853000Y-108965371D01*
X94107000Y-108965371D01*
X94107000Y-110109000D01*
X95249915Y-110109000D01*
X95371904Y-109886961D01*
X95211041Y-109498577D01*
X94835134Y-109083611D01*
X94329041Y-108844086D01*
X94107000Y-108965371D01*
X93853000Y-108965371D01*
X93630959Y-108844086D01*
X93124866Y-109083611D01*
X92748959Y-109498577D01*
X92588096Y-109886961D01*
X88796121Y-109886961D01*
X88931638Y-109751444D01*
X89211000Y-109077004D01*
X89211000Y-108346996D01*
X88931638Y-107672556D01*
X88415444Y-107156362D01*
X87741004Y-106877000D01*
X87010996Y-106877000D01*
X86336556Y-107156362D01*
X85820362Y-107672556D01*
X85541000Y-108346996D01*
X73934345Y-108346996D01*
X73864531Y-107996019D01*
X73458961Y-107389039D01*
X72851981Y-106983469D01*
X72316727Y-106877000D01*
X71955273Y-106877000D01*
X71420019Y-106983469D01*
X70813039Y-107389039D01*
X70407469Y-107996019D01*
X70265051Y-108712000D01*
X66802000Y-108712000D01*
X66802000Y-103124000D01*
X70265051Y-103124000D01*
X70407469Y-103839981D01*
X70813039Y-104446961D01*
X71420019Y-104852531D01*
X71955273Y-104959000D01*
X72316727Y-104959000D01*
X72851981Y-104852531D01*
X73458961Y-104446961D01*
X73864531Y-103839981D01*
X74006949Y-103124000D01*
X73934345Y-102758996D01*
X85541000Y-102758996D01*
X85541000Y-103489004D01*
X85820362Y-104163444D01*
X86336556Y-104679638D01*
X87010996Y-104959000D01*
X87741004Y-104959000D01*
X88415444Y-104679638D01*
X88931638Y-104163444D01*
X89211000Y-103489004D01*
X89211000Y-102838561D01*
X89497000Y-102838561D01*
X89497000Y-103409439D01*
X89715466Y-103936862D01*
X90119138Y-104340534D01*
X90646561Y-104559000D01*
X91217439Y-104559000D01*
X91744862Y-104340534D01*
X92148534Y-103936862D01*
X92367000Y-103409439D01*
X92367000Y-103124000D01*
X92516887Y-103124000D01*
X92628260Y-103683909D01*
X92945423Y-104158577D01*
X93297758Y-104394000D01*
X92945423Y-104629423D01*
X92628260Y-105104091D01*
X92516887Y-105664000D01*
X92628260Y-106223909D01*
X92945423Y-106698577D01*
X93420091Y-107015740D01*
X93838667Y-107099000D01*
X94121333Y-107099000D01*
X94539909Y-107015740D01*
X95014577Y-106698577D01*
X95331740Y-106223909D01*
X95443113Y-105664000D01*
X95331740Y-105104091D01*
X95014577Y-104629423D01*
X94662242Y-104394000D01*
X95014577Y-104158577D01*
X95331740Y-103683909D01*
X95443113Y-103124000D01*
X95331740Y-102564091D01*
X95014577Y-102089423D01*
X94630892Y-101833053D01*
X94835134Y-101736389D01*
X95211041Y-101321423D01*
X95371904Y-100933039D01*
X95249915Y-100711000D01*
X94107000Y-100711000D01*
X94107000Y-100731000D01*
X93853000Y-100731000D01*
X93853000Y-100711000D01*
X92710085Y-100711000D01*
X92588096Y-100933039D01*
X92748959Y-101321423D01*
X93124866Y-101736389D01*
X93329108Y-101833053D01*
X92945423Y-102089423D01*
X92628260Y-102564091D01*
X92516887Y-103124000D01*
X92367000Y-103124000D01*
X92367000Y-102838561D01*
X92148534Y-102311138D01*
X91744862Y-101907466D01*
X91217439Y-101689000D01*
X90646561Y-101689000D01*
X90119138Y-101907466D01*
X89715466Y-102311138D01*
X89497000Y-102838561D01*
X89211000Y-102838561D01*
X89211000Y-102758996D01*
X88931638Y-102084556D01*
X88415444Y-101568362D01*
X87741004Y-101289000D01*
X87010996Y-101289000D01*
X86336556Y-101568362D01*
X85820362Y-102084556D01*
X85541000Y-102758996D01*
X73934345Y-102758996D01*
X73864531Y-102408019D01*
X73458961Y-101801039D01*
X72851981Y-101395469D01*
X72316727Y-101289000D01*
X71955273Y-101289000D01*
X71420019Y-101395469D01*
X70813039Y-101801039D01*
X70407469Y-102408019D01*
X70265051Y-103124000D01*
X66802000Y-103124000D01*
X66802000Y-100584000D01*
X67065908Y-100584000D01*
X67181161Y-101163418D01*
X67509375Y-101654625D01*
X68000582Y-101982839D01*
X68433744Y-102069000D01*
X68726256Y-102069000D01*
X69159418Y-101982839D01*
X69650625Y-101654625D01*
X69978839Y-101163418D01*
X70094092Y-100584000D01*
X69978839Y-100004582D01*
X69650625Y-99513375D01*
X69632381Y-99501184D01*
X69677765Y-99492157D01*
X69887809Y-99351809D01*
X70028157Y-99141765D01*
X70077440Y-98894000D01*
X70077440Y-97194000D01*
X70028157Y-96946235D01*
X69887809Y-96736191D01*
X69677765Y-96595843D01*
X69430000Y-96546560D01*
X67730000Y-96546560D01*
X67482235Y-96595843D01*
X67272191Y-96736191D01*
X67131843Y-96946235D01*
X67082560Y-97194000D01*
X67082560Y-98894000D01*
X67131843Y-99141765D01*
X67272191Y-99351809D01*
X67482235Y-99492157D01*
X67527619Y-99501184D01*
X67509375Y-99513375D01*
X67181161Y-100004582D01*
X67065908Y-100584000D01*
X66802000Y-100584000D01*
X66802000Y-95504000D01*
X70265051Y-95504000D01*
X70407469Y-96219981D01*
X70813039Y-96826961D01*
X71420019Y-97232531D01*
X71955273Y-97339000D01*
X72316727Y-97339000D01*
X72851981Y-97232531D01*
X73458961Y-96826961D01*
X73864531Y-96219981D01*
X74006949Y-95504000D01*
X73934345Y-95138996D01*
X85541000Y-95138996D01*
X85541000Y-95869004D01*
X85820362Y-96543444D01*
X86336556Y-97059638D01*
X87010996Y-97339000D01*
X87741004Y-97339000D01*
X88415444Y-97059638D01*
X88931638Y-96543444D01*
X89211000Y-95869004D01*
X89211000Y-95504000D01*
X89468887Y-95504000D01*
X89580260Y-96063909D01*
X89897423Y-96538577D01*
X90372091Y-96855740D01*
X90790667Y-96939000D01*
X91073333Y-96939000D01*
X91491909Y-96855740D01*
X91966577Y-96538577D01*
X92283740Y-96063909D01*
X92395113Y-95504000D01*
X92283740Y-94944091D01*
X91966577Y-94469423D01*
X91491909Y-94152260D01*
X91073333Y-94069000D01*
X90790667Y-94069000D01*
X90372091Y-94152260D01*
X89897423Y-94469423D01*
X89580260Y-94944091D01*
X89468887Y-95504000D01*
X89211000Y-95504000D01*
X89211000Y-95138996D01*
X88931638Y-94464556D01*
X88415444Y-93948362D01*
X87741004Y-93669000D01*
X87010996Y-93669000D01*
X86336556Y-93948362D01*
X85820362Y-94464556D01*
X85541000Y-95138996D01*
X73934345Y-95138996D01*
X73864531Y-94788019D01*
X73458961Y-94181039D01*
X72851981Y-93775469D01*
X72316727Y-93669000D01*
X71955273Y-93669000D01*
X71420019Y-93775469D01*
X70813039Y-94181039D01*
X70407469Y-94788019D01*
X70265051Y-95504000D01*
X66802000Y-95504000D01*
X66802000Y-89916000D01*
X70265051Y-89916000D01*
X70407469Y-90631981D01*
X70813039Y-91238961D01*
X71420019Y-91644531D01*
X71955273Y-91751000D01*
X72316727Y-91751000D01*
X72851981Y-91644531D01*
X73458961Y-91238961D01*
X73864531Y-90631981D01*
X74006949Y-89916000D01*
X73934345Y-89550996D01*
X85541000Y-89550996D01*
X85541000Y-90281004D01*
X85820362Y-90955444D01*
X86336556Y-91471638D01*
X87010996Y-91751000D01*
X87741004Y-91751000D01*
X88415444Y-91471638D01*
X88931638Y-90955444D01*
X89151769Y-90424000D01*
X92516887Y-90424000D01*
X92628260Y-90983909D01*
X92945423Y-91458577D01*
X93297758Y-91694000D01*
X92945423Y-91929423D01*
X92628260Y-92404091D01*
X92516887Y-92964000D01*
X92628260Y-93523909D01*
X92945423Y-93998577D01*
X93297758Y-94234000D01*
X92945423Y-94469423D01*
X92628260Y-94944091D01*
X92516887Y-95504000D01*
X92628260Y-96063909D01*
X92945423Y-96538577D01*
X93297758Y-96774000D01*
X92945423Y-97009423D01*
X92628260Y-97484091D01*
X92516887Y-98044000D01*
X92628260Y-98603909D01*
X92945423Y-99078577D01*
X93329108Y-99334947D01*
X93124866Y-99431611D01*
X92748959Y-99846577D01*
X92588096Y-100234961D01*
X92710085Y-100457000D01*
X93853000Y-100457000D01*
X93853000Y-100437000D01*
X94107000Y-100437000D01*
X94107000Y-100457000D01*
X95249915Y-100457000D01*
X95371904Y-100234961D01*
X95211041Y-99846577D01*
X94835134Y-99431611D01*
X94630892Y-99334947D01*
X95014577Y-99078577D01*
X95331740Y-98603909D01*
X95443113Y-98044000D01*
X95331740Y-97484091D01*
X95014577Y-97009423D01*
X94662242Y-96774000D01*
X95014577Y-96538577D01*
X95331740Y-96063909D01*
X95443113Y-95504000D01*
X95331740Y-94944091D01*
X95014577Y-94469423D01*
X94662242Y-94234000D01*
X95014577Y-93998577D01*
X95331740Y-93523909D01*
X95443113Y-92964000D01*
X95331740Y-92404091D01*
X95014577Y-91929423D01*
X94662242Y-91694000D01*
X95014577Y-91458577D01*
X95331740Y-90983909D01*
X95443113Y-90424000D01*
X95331740Y-89864091D01*
X95014577Y-89389423D01*
X94539909Y-89072260D01*
X94121333Y-88989000D01*
X93838667Y-88989000D01*
X93420091Y-89072260D01*
X92945423Y-89389423D01*
X92628260Y-89864091D01*
X92516887Y-90424000D01*
X89151769Y-90424000D01*
X89211000Y-90281004D01*
X89211000Y-89550996D01*
X88931638Y-88876556D01*
X88415444Y-88360362D01*
X87741004Y-88081000D01*
X87010996Y-88081000D01*
X86336556Y-88360362D01*
X85820362Y-88876556D01*
X85541000Y-89550996D01*
X73934345Y-89550996D01*
X73864531Y-89200019D01*
X73458961Y-88593039D01*
X72851981Y-88187469D01*
X72316727Y-88081000D01*
X71955273Y-88081000D01*
X71420019Y-88187469D01*
X70813039Y-88593039D01*
X70407469Y-89200019D01*
X70265051Y-89916000D01*
X66802000Y-89916000D01*
X66802000Y-88317606D01*
X68632606Y-86487000D01*
X115191604Y-86487000D01*
X115115466Y-86563138D01*
G04 #@! TD*
M02*
