M48
;DRILL file {KiCad 5.0.2-bee76a0~70~ubuntu18.04.1} date Sat 23 Mar 2019 01:43:54 PM EDT
;FORMAT={-:-/ absolute / inch / decimal}
FMAT,2
INCH,TZ
T1C0.0157
T2C0.0315
T3C0.0354
T4C0.0394
T5C0.0472
%
G90
G05
T1
X3.875Y-4.325
X4.2Y-3.55
X4.2Y-4.325
X4.3Y-3.6
X4.3Y-3.7
X4.45Y-3.46
X4.58Y-3.5375
T2
X4.72Y-3.44
X4.72Y-3.74
X4.6Y-3.88
X4.6Y-4.18
X3.7Y-4.34
X4.Y-4.34
X3.7Y-3.56
X3.7Y-3.66
X3.7Y-3.76
X3.7Y-3.86
X3.7Y-3.96
X3.7Y-4.06
X3.7Y-4.16
X4.Y-3.56
X4.Y-3.66
X4.Y-3.76
X4.Y-3.86
X4.Y-3.96
X4.Y-4.06
X4.Y-4.16
X4.46Y-3.88
X4.46Y-4.18
X4.5016Y-4.34
X4.6Y-4.34
X4.16Y-3.72
X4.46Y-3.72
X4.32Y-3.88
X4.32Y-4.18
X4.1Y-4.34
X4.4Y-4.34
X4.18Y-3.88
X4.18Y-4.18
X3.58Y-3.76
X3.58Y-4.06
X4.58Y-3.44
X4.58Y-3.74
X4.7Y-4.34
X5.Y-4.34
T3
X4.76Y-4.1
X4.86Y-4.1
T4
X5.02Y-3.5125
X2.7Y-3.86
X2.7Y-3.96
X5.02Y-3.8025
X5.02Y-3.9025
T5
X2.84Y-4.28
X3.44Y-4.28
X2.84Y-4.06
X3.44Y-4.06
X2.84Y-3.54
X3.44Y-3.54
X2.84Y-3.76
X3.44Y-3.76
T0
M30
